<?xml version="1.0" encoding="utf-8"?>
<!-- Generator: Adobe Illustrator 18.1.1, SVG Export Plug-In . SVG Version: 6.00 Build 0)  -->
<svg version="1.1" id="Layer_1" xmlns="http://www.w3.org/2000/svg" xmlns:xlink="http://www.w3.org/1999/xlink" x="0px" y="0px"
	 viewBox="0 0 690 442.8" enable-background="new 0 0 690 442.8" xml:space="preserve">
<path fill="#333333" d="M622.5,251.1c43.5,50,67.5,118.2,67.5,191.6H573.6c0-45.5-13.7-86.4-38.8-115.2
	c-24.7-28.4-60.1-45.4-99.7-45.4v0.3V167.6v-0.6c39.6,0,75-15.1,99.7-43.5c25.1-28.9,38.8-77.2,38.8-122.7H690
	c0,73.4-24,149-67.5,199.1c-8,9.3-16.7,17.9-25.9,25.7C605.8,233.2,614.5,241.9,622.5,251.1z M221.2,0C99,0,0,99.1,0,221.2
	s99,221.2,221.1,221.2c31.1,0,60.4-6.1,87.4-17.2v16.7h126.5V281.6H309.4h-1v0.9c-18.5,28.2-50.9,43.6-87.4,43.6
	c-58,0-104.9-47-104.9-105s47-104.9,105-104.9c38,0,71.4,20.2,89.7,50.6h124.8C411.4,70.7,324.6,0,221.2,0z"/>
</svg>
