<?xml version="1.0" encoding="utf-8"?>
<!-- Generator: Adobe Illustrator 18.1.1, SVG Export Plug-In . SVG Version: 6.00 Build 0)  -->
<svg version="1.1" id="Layer_1" xmlns="http://www.w3.org/2000/svg" xmlns:xlink="http://www.w3.org/1999/xlink" x="0px" y="0px"
	 viewBox="0 0 560 560" enable-background="new 0 0 560 560" xml:space="preserve">
<path fill="#FFFFFF" d="M362.6,279.7c0,46.1-37.3,83.4-83.4,83.4c-46.1,0-83.4-37.3-83.4-83.4c0-5.5,0.5-10.8,1.6-16h-56.1v110.8
	c0,23.8,19.3,43.1,43.1,43.1H374c23.8,0,43.1-19.3,43.1-43.1V263.6H361C362,268.8,362.6,274.2,362.6,279.7 M374,141.7H184.4
	c-23.8,0-43.1,19.3-43.1,43.1v46.7h69.8c15.1-21.3,40-35.3,68.1-35.3c28.1,0,53,13.9,68.1,35.3h69.8v-46.7
	C417.1,161.1,397.8,141.7,374,141.7 M395.1,195c0,4.2-3.5,7.7-7.7,7.7h-23.1c-4.2,0-7.7-3.5-7.7-7.7v-23.1c0-4.2,3.5-7.7,7.7-7.7
	h23.1c4.3,0,7.7,3.5,7.7,7.7V195z M330.5,279.7c0-28.3-23-51.3-51.3-51.3s-51.3,23-51.3,51.3c0,28.4,23,51.3,51.3,51.3
	S330.5,308,330.5,279.7 M279.2,1C125.3,1,0.6,125.8,0.6,279.7s124.8,278.7,278.7,278.7c153.9,0,278.7-124.8,278.7-278.7
	S433.1,1,279.2,1z M279.2,529.7c-138.1,0-250.1-112-250.1-250.1s112-250.1,250.1-250.1c138.1,0,250.1,112,250.1,250.1
	S417.3,529.7,279.2,529.7z"/>
</svg>
