<?xml version="1.0" encoding="utf-8"?>
<!-- Generator: Adobe Illustrator 18.1.1, SVG Export Plug-In . SVG Version: 6.00 Build 0)  -->
<svg version="1.1" id="Layer_1" xmlns="http://www.w3.org/2000/svg" xmlns:xlink="http://www.w3.org/1999/xlink" x="0px" y="0px"
	 viewBox="0 0 560 560" enable-background="new 0 0 560 560" xml:space="preserve">
<path fill="#FFFFFF" d="M376.2,403.1V302.4c0,0-3-27-29.1-27c-26.1,0-30.8,25.6-30.8,25.6v102.1h-53.7l0.9-166.5h52l-0.4,20.9
	c0,0,10.8-27.3,51.7-27.3c40.8,0,59.3,23.5,62.7,67.3v105.6H376.2z M196.7,213c-18.5,0-33.4-13.2-33.4-29.5
	c0-16.3,15-29.6,33.4-29.6c18.5,0,33.4,13.2,33.4,29.6C230.1,199.8,215.1,213,196.7,213 M229.8,403.3h-66V237.1l66-0.4V403.3z
	 M279.7,1C126.3,1,2,125.3,2,278.7s124.3,277.7,277.7,277.7c153.3,0,277.7-124.3,277.7-277.7S433,1,279.7,1z M279.7,527.8
	c-137.6,0-249.2-111.6-249.2-249.2S142.1,29.5,279.7,29.5c137.6,0,249.2,111.6,249.2,249.2S417.3,527.8,279.7,527.8z"/>
</svg>
