<?xml version="1.0" encoding="utf-8"?>
<!-- Generator: Adobe Illustrator 18.1.1, SVG Export Plug-In . SVG Version: 6.00 Build 0)  -->
<svg version="1.1" id="Layer_1" xmlns="http://www.w3.org/2000/svg" xmlns:xlink="http://www.w3.org/1999/xlink" x="0px" y="0px"
	 viewBox="0 0 800 800" enable-background="new 0 0 800 800" xml:space="preserve">
<path fill="#FFFFFF" d="M399.4,41.3c-197.7,0-358.1,160.3-358.1,358.1c0,197.7,160.4,358.1,358.1,358.1s358.1-160.3,358.1-358.1
	C757.6,201.7,597.3,41.3,399.4,41.3z M399.2,714.3c-20.9,0-41.2-2-61.2-5.9V540.7c13,14.1,28.2,24.7,46.4,31.7
	c18.1,7,36.8,10.6,55.6,12.6c1.9,0,3.7,0,5.3,0c1.7,0,3.4,0,5.3,0c53.6,0,97.3-18.2,130.9-54.6c33.6-36.4,50.4-79.8,50.4-130.2
	c0-50-16.9-93.6-50.7-131.1S503.3,213,449.3,213c-1.4,0-2.9,0-4.3,0c-1.4,0-2.9,0-4.3,0c-19.7,0-38.9,5.3-57.1,13.7
	c-18.4,8.4-33,21.3-43.7,36.3H338v-40H210v428.3C134.3,593.9,84.4,502.4,84.4,399.6c0-173.9,141-314.9,315-314.9
	c173.9,0,314.9,141,314.9,314.9C714.3,573.3,573.2,714.3,399.2,714.3z M334.3,399.4c0-21.4,7.3-39.9,21.9-55.6
	c14.6-15.7,34.9-23.7,60.7-24.1c26.4,0,46.7,7.9,61,23.6s21.6,34.4,21.6,55.9c0,22.4-7.1,41.1-21.6,56.1c-14.4,15-34.7,22.6-61,22.6
	c-25.9,0-46.1-7.4-60.7-22.4C341.6,440.4,334.3,421.7,334.3,399.4z"/>
</svg>
