<?xml version="1.0" encoding="utf-8"?>
<!-- Generator: Adobe Illustrator 18.1.1, SVG Export Plug-In . SVG Version: 6.00 Build 0)  -->
<svg version="1.1" id="Layer_1" xmlns="http://www.w3.org/2000/svg" xmlns:xlink="http://www.w3.org/1999/xlink" x="0px" y="0px"
	 viewBox="0 0 560 560" enable-background="new 0 0 560 560" xml:space="preserve">
<path fill="#FFFFFF" d="M434.8,181.6c-1.5,11.7-18.4,23.4-28.6,32.2c10.1,149.1-158.3,242-281.2,166.5c34.4,0.2,72.6-9.2,93.1-28.6
	c-29.8-4.8-50.9-18.4-59.1-44.8c8.7-0.9,21,1.8,26.9-1.8c-27.2-10.4-48.8-26.4-50.1-62.7c9.7,1,14.7,6.7,26.8,5.4
	c-17.6-11.3-37.7-54.2-19.7-86c31.9,35.5,71.9,63,134.3,68c-15.5-65.8,71.8-106.6,111-59.1c15.2-3.3,28.1-8.9,41.2-14.3
	c-5.4,14.9-16.2,24.4-26.9,34C414.1,188.3,426.4,186.8,434.8,181.6 M558.6,278.7c0,153.9-124.8,278.7-278.7,278.7
	C126,557.3,1.3,432.5,1.3,278.7S126,0,279.9,0C433.8,0,558.6,124.8,558.6,278.7z M530,278.7c0-138.1-112-250.1-250.1-250.1
	c-138.1,0-250.1,112-250.1,250.1s112,250.1,250.1,250.1C418,528.7,530,416.8,530,278.7z"/>
</svg>
