<?xml version="1.0" encoding="utf-8"?>
<!-- Generator: Adobe Illustrator 18.1.1, SVG Export Plug-In . SVG Version: 6.00 Build 0)  -->
<svg version="1.1" id="Layer_1" xmlns="http://www.w3.org/2000/svg" xmlns:xlink="http://www.w3.org/1999/xlink" x="0px" y="0px"
	 viewBox="0 0 124.5 36.3" enable-background="new 0 0 124.5 36.3" xml:space="preserve">
<g>
	<g>
		<g>
			<g>
				<path fill="#D42969" d="M68.1,33.3h4.8L62.7,2.8h-2.3L50.2,33.3h4.6l1.6-5h10.1L68.1,33.3z M39.3,15.6h-9.6V2.8h-4.8v30.5h4.8
					V20.1h9.6v13.2h4.8V2.8h-4.8L39.3,15.6z M65.1,23.9h-7.3l3.7-11.5L65.1,23.9z M83.8,20.2V7h0.6c3.9,0,7.4,1.4,7.4,6.4
					c0,5.1-3.5,6.8-7.4,6.8L83.8,20.2L83.8,20.2z M117.3,7.3V2.8h-14.9v30.5h14.9v-4.4h-10.1v-8.8h9.1v-4.4h-9.1V7.3H117.3z
					 M84.5,2.8H79v30.5h4.8v-8.8h0.8c7.6,0,12.2-5.3,12.2-11C96.7,6.4,91.8,2.8,84.5,2.8 M10.6,33.5c5.6,0,9.1-3.3,9.1-7.3
					c0-4.6-2.4-6.6-6.7-10.1c-5.3-4.2-5.8-5.4-5.8-6.7c0-1.8,1.1-2.7,3.7-2.7c2,0,4.2,1.2,5.9,2.4l1.7-4c-1.4-1.3-3.9-2.6-7.6-2.6
					c-4.9,0-8.2,2.8-8.2,6.9c0,4.2,2,5.9,7,10c4.3,3.5,5.5,4.6,5.5,7c0,1.8-1.4,3-4.5,3c-2.4,0-4.9-1.6-6.6-3.1l-1.8,4
					C4.4,32.4,7.3,33.5,10.6,33.5"/>
			</g>
		</g>
		<g>
			<path fill="#D42969" d="M122.5,32c0,0.6-0.5,1.2-1.2,1.2c-0.7,0-1.2-0.5-1.2-1.2c0-0.7,0.5-1.2,1.2-1.2
				C121.9,30.8,122.5,31.4,122.5,32z M120.4,32c0,0.5,0.4,0.9,0.9,0.9c0.5,0,0.9-0.4,0.9-0.9c0-0.5-0.4-0.9-0.9-0.9
				S120.4,31.5,120.4,32z M121.4,31.4c0.2,0,0.4,0.2,0.4,0.4c0,0.1-0.1,0.3-0.2,0.3l0.3,0.5h-0.3l-0.3-0.5H121v0.5h-0.2v-1.3H121.4z
				 M121,31.9h0.3c0.1,0,0.1-0.1,0.1-0.1c0-0.1-0.1-0.2-0.2-0.2H121V31.9z"/>
		</g>
	</g>
</g>
</svg>
