<?xml version="1.0" encoding="utf-8"?>
<!-- Generator: Adobe Illustrator 18.1.1, SVG Export Plug-In . SVG Version: 6.00 Build 0)  -->
<svg version="1.1" id="Layer_1" xmlns="http://www.w3.org/2000/svg" xmlns:xlink="http://www.w3.org/1999/xlink" x="0px" y="0px"
	 viewBox="0 401.5 1080 277.6" enable-background="new 0 401.5 1080 277.6" xml:space="preserve">
<g>
	<path fill="#FFFFFF" d="M481.6,603.6c-7.2-14.6-6.4-12.3-6.5-27c-0.4-24.4,0.2-56.8,0.2-68.6c0-6.5,0.1-9.7,3-13.1
		c0.7-0.9,0.2-3.7-5.7-8.5c-6.4-5.2-14-14.8-21.8-18.7c-3.9-1.9-6.5-0.9-13.1,4.3c-10.4,8.1-20,15.7-27.6,21.3
		c-11.1,8.1-11.8,15.3-11.8,15.3c0.1,3.8,0,9.9,0,13.6c0,7.7-0.1,13.7-0.1,22.4c0,13.4-0.5,22,1.7,24.7c4.6,6,19.2,21.1,25.8,21.9
		c0.6,0.1,2.4-0.4,3.3-0.8c4.7-2.4,12-9.6,17.6-12.7c0.2-0.1,1.4-0.9,1.4,0.4c0,1.9,0,5.6,0,7.6c0.1,4.5,1.1,13.1,4.5,17.9
		c3.8,5.3,11.4,23,5.2,26.4c-7.8,4.3-7.9,3.8-12,6.7c-8.8,6.4-15.3,13.3-24.5,18.4c-11.4,6.3-20.7,9.2-39.1,4.1
		c-17-4.7-24.9-16.3-29.8-29.8c-2.4-6.6-1.2-20.8,1.9-23.9c11.5-11.5-4.3-10.4-16,1.9c-7.3,7.8-11.1,23.9-9.6,33
		c4.9,28.5,33.5,47.1,77.1,35c23.3-6.5,32.2-20.7,43.6-28.2c12.9-8.5,18.1-9.7,28.1-13C487,630.6,486.4,613,481.6,603.6z
		 M447.8,500.3c0,3.4-0.1,11.6,0,15.5c0.1,7.9,0,35.2,0,35.2c0.1,4.5,0.5,12.9-0.1,15.5c-0.1,0.8-2.1,2-2.6,2.2
		c-1.9,1.4-6.2,5.1-8.6,4.3c-2.1-0.7-11.8-8.4-11.8-12.2c0-2.5-0.2-15.4-0.1-27c0.1-4.4,0-7.3,0-19.9c0-4.3,0.1-10.7,0.1-10.7
		c-0.1-2.8,0-4.6,0.5-6.9c0.2-0.8,2.4-2.4,4.3-4c2.1-1.9,5.1-3.7,7.9-5.3c2.6-1.7,4.9-1.1,6.4,0.4c0.7,0.6,7.9,7.1,8.3,7.7
		c0.4,0.7-2.6,2-3.7,3.1C448.2,498.6,447.8,499.6,447.8,500.3z"/>
	<path fill="#FFFFFF" d="M284.5,530.4c1.7-2,3-4.3,5.2-6c1.7-1.4,3.8-2.6,6.9-3.1c4-0.7,6.9-0.9,10.2-2.1
		c22.1-8.1,29-25.3,30.7-29.7c1.9-5.1,1.1-7.9-2.1-7.3c-4,0.7-4.9,5-14.3,13.5c-9.5,8.5-20.1,7.8-24.7,7.3c-0.5,0,0.6-4.1,0.6-4.7
		c0.4-3.4-0.1-7.9-1.5-13.1c-0.5-2-1.5-5.2-5.2-19.3c-6.5-24.6-1.8-35.9,0.6-42c3.8-9.9,17.5-12.2,21.4-16.1
		c3.3-3.3-3.1-6.3-11.6-6.2c-10.9,0.2-29.7,4.3-36.3,6.7c-15.3,5.8-34.1,10.2-56,31.3c-20.1,19.4-24,38.5-25.2,45.9c0,0-11,0-12.8,0
		c-5,0-14.3,0.7-24.2,2.8c-8.1,1.8-16.1,5.7-19.3,7.5c-8.3,4.7-14.6,9.6-14.9,9.4c-0.4-0.2-3-4.7-5.3-7.2
		c-17-17.8-40.6-18.9-65.8-8.8c-26.8,10.8-37.8,42-39.2,48.4c-0.9,4.4-12.8,53.2,45.9,84.1c53,27.8,115-5.2,134.9-27.7
		c9.7-11,17.3-21.7,21.9-33.6c5.7-14.7,7.3-24.2,8.2-32.6c0.2-2.5,0.1-4.3,0.4-9.1c0-0.6,2.1,0.6,4.3,1.2c1.1,0.2,16.1,6.9,35.9,6.7
		c1.2,0,6.6,0.2,7.1,0.6c0.6,0.5-0.6,5.7-3.9,11.5c-1.9,3.2-13.5,20-17,26.3c-3.8,6.6-4.1,12.7-4,17.5c0.1,5.8,4.7,15.3,8.6,16.5
		c3.9,1.2,5.2-0.6,13.5-5.4c8.3-4.9,24.5,1.5,23.6,1.3c-0.9-0.2,14.1,5,27.8-5.8c18-14,22.3-29.5,21.7-37.8c-0.2-3.4-3.4-3.4-6-1.2
		c-2.8,2.6-4.1,9.5-10.2,11.7c-5.9,2.2-12,1.9-22.1-1.4c-10.2-3.2-18.1-4.4-23.9-2.5c-2.4,0.7-3.4,1.4-3.7,0.9
		c0.4-2.7,1.5-4.5,1.2-4.1C265.6,554.7,281,534.7,284.5,530.4z M106.8,522.2c0,0,0.2-1.7,3.3,9.7c3.1,11.4-1.7,15.4-3,16.9
		c-0.2,0.4-7.2,7.9-11-3.6C92,532.7,106.8,522.2,106.8,522.2z M151.8,604.5c-5.1,4.1-54.5,32.2-98,6.7C39.2,602.7,31,591,26.2,580.5
		c-9.7-21.2-4.4-40.3-3-45.6c1.1-4,13.4-34,45-38.6c27.2-4,34.1,15.7,34.1,15.7s-7.7,6.9-10.9,12c-7.9,12.8-6.9,23.4-6.3,29.1
		c0.4,3.1,4.1,15,16.9,15.7c12.5,0.6,17.8-12.4,19.8-19.7c1.2-4.3,2.4-11.7,0.6-21.2c-1.2-6.6-3.6-12.5-3.6-12.5s-2-0.7,7.7-4.3
		c20.7-7.6,46.5-2.2,54.8,0.9c0,0,0.4,7.2,1.3,23.8C185.8,585.6,156.9,600.3,151.8,604.5z M266.5,434c-3.1,4.6-10.4,14.3-7.6,37.5
		c1.2,10.1,3.8,14.8,5.2,20.4c0.7,2.8,1.8,8.6,1.2,9.8c-0.7,1.2-7.1-0.6-8.5-0.9c-8.2-1.8-14.1-4.5-18.6-6
		c-9.9-4.3-19.2-6.3-19.2-6.3l-7.3-1.2c0,0-1.4-23,14.9-40.5c14-15.2,27.6-21.2,38.1-25.7c9.2-3.9,9.7-3.7,13.5-4.7
		c1.3-0.4,9.2-2.4,3.8,1.5C275.4,422.6,270.9,427.4,266.5,434z"/>
	<path fill="#FFFFFF" d="M328.7,438.8c-1.4,0.2-1.4-0.4-1.4-0.4s-2.5-3.4-1.7-4.5c0.2-0.4,0.8-0.8,1.3-0.9
		c8.9-3.4,24.2-11.8,28.3-14.8c2.5-1.9,4.5-5.1,12.8,5.2c5.7,7.1,5.8,6.7,6.4,12c0.2,1.8,0.6,9.5,0.6,14.3c-0.1,13.3-0.2,89,0,103.1
		c0,3.9,0.1,6.7,0.2,8.9c0.4,6.2,7.3,12.2,8.3,12.4c0.9,0.2,6.3-5,8.1-4.7c0.7,0.1,0.9,0.6,1.9,1.3c0,0,1.1,1.3,1.1,1.4
		c1.1,1.4-0.4,2-3.3,4.7c-4.6,4.1-9.2,6.7-12.1,9.2c-2.4,1.9-7.7,4.5-8.8,4.6c-5,0.7-4.6,0.1-5.9,0.1c-2.1,0-11.7-12.5-13.9-16.6
		c-2.4-4.4-2.8-4.1-2.6-12c0.2-7.6,0.7-111.1,0.4-115.9c-0.4-3.8-3-7.7-5.7-9.1c-1.5-0.8-2.6-0.7-5.1-0.5
		C333.6,437,330.3,438.4,328.7,438.8z"/>
	<path fill="#FFFFFF" d="M551.4,485.3c-3.3-4.3-21.3-17.4-27.9-18c-4.1-0.4-7.1,3.1-10.8,11.2c-3.7,8.3-8.4,11.8-21.9,29.8
		c-13.5,18-0.8,47.1-0.8,47.1s11.5,24.2,32,33c2.1,0.9,4,1.5,5.7,1.9c7.1,1.5,11.8,0.1,18.7-8.1c8.2-9.8,16.7-22.4,24.7-46.2
		C578.6,513.6,554.7,489.6,551.4,485.3z M549.6,553.5c-3.8,6.6-7.7,11.5-10.8,12.2c-1.4,0.2-3-0.6-5.1-1.5
		c-9.1-4-19.4-15.9-22.5-20.8c-5.8-9.4-6.7-20.4-6.7-20.4s-0.6-10.9,5.8-20c3.1-4.3,5.7-8.2,6.9-8.4c1.5-0.4,3.8,0.7,6.4,2.2
		c10.1,5.6,24.3,26.5,27.2,35.3C552.9,538.3,553.3,547,549.6,553.5z"/>
	<path fill="#FFFFFF" d="M800.8,612.5c-2.4,1.4-4.3,3.2-7.2,6c-1.9,1.8-4.1,4.3-5.4,4c-3.6-0.6-8.5-5.4-11.4-7.9
		c-5-4.3-8.6-10.5-9.1-13c-1.1-6.3-1.2-12.5-1.3-22.1c-0.2-23.8-0.1-59.8,0-63.6c0.1-3.7,0.1-9.7,0.7-14.3c0-0.1,0.2-4.1,1.8-5.6
		c1.2-1.1,2-3-0.5-5.7c-2.1-2.4-6.6-6.4-10.4-9.9c-5.3-4.9-7.9-7-13.1-11.2c-5.2-4.1-8.1-2.7-13.5,1.4c-7.2,5.3-17.6,13.5-22,16.5
		l-11.7,9.1c0,0-4,4.1-6,6.9c-2,2.7-2.1,6.3-1.9,11.4c0.2,5-0.4,33.5-0.4,41.8c0,7.9,0.1,10.1,3,14.1c3.7,5.3,14.7,15.4,20.2,18.6
		c2.1,1.3,5.1,1.7,6.6,1.8c0.4,0,7-5.6,9.2-7.1c2.7-1.9,2.8-1.7,7.2-4.6c1.9-1.2,3.6-1.9,3.6-1.9c0,8.8,0.1,12.7,0.2,16
		c0.2,7.5,1.5,15.6,2,19.4c1.2,7.7,7.1,15.4,13.4,21.7c4.5,4.5,13.4,11.7,13.9,13.9c0.5,1.9-7.9,13.5-9,16.9
		c-0.4,0.9-0.2,2.1,1.1,3.4c1.2,1.2,2,1.5,4.4,2.1c0.9,0.2,1.2-0.5,1.9-0.8c1.4-0.8,4-6,8.4-12.5c5.1-7.3,6.9-10.4,13.6-19.2
		c6-7.8,10.9-13.4,16.7-20.4C808,615.1,803.2,611.2,800.8,612.5z M739.5,558.5c0,0.9,0.2,7.6-0.2,8.1c-2.1,3-9.4,7.2-10.8,6.7
		c-4.4-1.4-6.5-4.4-9.2-7.2c-1.7-1.8-3.1-3.3-3.1-5.9c-0.1-16.1-0.1-42.1-0.1-42.1s0-3.8,0-8.3c0-5.8,0.1-12.8,1.1-13.9
		c0.8-0.9,3.2-3,6-4.9c2.5-1.7,4.7-3.6,7-4.5c1.7-0.7,4.6,0,5.8,1.4c1.2,1.4,7.3,6.5,7.7,7.5c0.4,1.3-2.1,1.5-3.4,3.1
		c-0.9,1.2-0.8,3.6-0.8,4.7c0.2,3.6,0.1,13.5,0.1,20C739.3,528.2,739.4,551,739.5,558.5z"/>
	<path fill="#FFFFFF" d="M781.2,487.3c4.5-2.7,6.6-4.5,10.4-7.6c3.4-2.7,5.3-4.9,9.4-8.4c2.1-1.9,4.9-5.2,7.8-4.1
		c1.2,0.5,10.1,6.6,10.3,8.1c0.2,1.3,0.1,6.6,0.1,10.1c0,12.2,0.1,44.6,0.4,54.7c0.2,7.3,0,12.5,0.4,14.9c0.5,3.2,2.2,5.2,4,7.1
		c0.8,0.8,3.1,3.6,4.7,3.4c1.3-0.1,4.9-3.7,8.5-6.9c5.3-4.6,8.8-8.9,10.1-9.9c0,0,0.2-12.2,0.2-27.3c0-13.9,0-17-0.1-23
		c0-1.8,0.1-3.7-0.6-4.6c-0.8-1.2-11.1,5.3-12.9,3.3c-1.9-2.1-6-5.7-3.2-7c3.1-1.4,15-9.9,19.5-14.2c2.6-2.5,9.1-8.8,11.5-8.5
		c1.3,0.1,12,7.5,12.2,8.8c0.4,2.1,0.2,11.2,0.1,18.2c-0.2,11.5,0,35,0,44.9c0,10.5,0.4,15.2,0.7,16.2c0.9,3.3,1.5,6,6.4,7.7
		c2.7,0.9,4.5,1.5,9.7,1.8c3.8,0.1,6,0.7,5.9,3.3c-0.1,2.8-1.1,2.7-3.2,4c-6,3.6-11,6.7-14.4,9.2c-5.2,3.9-11,9.2-12,9.4
		c-3.2,0.5-9.5-3.6-13.7-7.8c-1.3-1.3-3.6-4.9-4-5.4c-1.4-1.5-1.9-11.6-1.9-14.1c0-0.4-0.6,0.6-3.3,2.8
		c-3.2,2.5-12.4,12.1-16.2,16.3c-3.8,4.1-8.4,7.8-9.5,8.2c-1.1,0.4-2.4-0.1-3.6-0.7c-4.1-2.1-14.2-8.4-19.4-13.9
		c-4.3-4.4-2.5-8.6-2.5-16.8c0-7.9-0.2-42.7,0-55.6c0-3.2-0.5-9.2-1.1-10.2c-0.2-0.5-2.8,0.6-3.6,0.9c-2,0.9-2.2,1.1-3.2,1.4
		c-4,1.3-4.1,1.8-5.6-0.2c-0.5-0.6-4.3-4-3-5.7C777.6,488.9,781.2,487.3,781.2,487.3z"/>
	<path fill="#FFFFFF" d="M904.4,478.9c-7.9,7.2-11.6,8.5-11.6,8.5s-1.1,0.9-3.6,1.5c-0.5,0.1-0.6,1.3-0.5,1.9
		c0.7,2.1,1.9,3.2,3.6,4.6c1.8,1.4,6.6-2.8,7.9-3.1c0.6-0.1,0.9-0.7,1.5-0.5c0.7,0.2,2.1,3.6,2.6,6.4c0.8,5.2,0.6,21,0.6,24.4
		c0,18,0,30.9,0,40.4c0,3.4,0.2,8.8,0.2,9.4c0.2,3,3.3,7.1,5.6,9.5c2.1,2.4,7.8,7.8,11.7,9c1.5,0.5,5.4-2.7,12.1-7.8
		c3.9-3,7.3-6.2,13.4-10.8c4.4-3.4,5.6-4.9,5.6-5.8c0-0.4-0.5-1.4-1.1-2.1c-0.5-0.5-1.5-1.4-2.5-1.5c-2.5-0.2-8.2,6.3-9.5,5.1
		c-2.5-2.2-5.9-5.6-8.2-10.1c-0.6-1.2-0.6-12-0.4-23.9c0.1-5,0.1-39.2,0-44.4c-0.2-14.7,0.2-15.9-2.2-17.3c-3.6-1.9-5.1-2.8-9.2-4.4
		c-3.6-1.3-4.3-1.3-7.7,2.5C909.6,473.7,907.1,476.5,904.4,478.9z"/>
	<path fill="#FFFFFF" d="M903.2,436.8c-1.7,3.4-3.3,3.6-3.3,7.9c0,0.7-0.1,3.1,1.1,4.6c0.8,0.9,7.3,6.3,12.8,9.2
		c1.8,0.9,3.7,2.2,5,2c1.4-0.2,2.1-0.8,3.3-2.1c2.5-2.7,6.7-10.5,6.7-10.5c0.7-1.5,2.2-3.8,2-5.1c-0.2-1.3-4.4-4.6-6.5-6.3
		c-2.5-1.9-5.6-7.7-6.3-9.2c-2.6-5.4-5.9-1.2-7.2,0.4C908.7,430,903.2,436.8,903.2,436.8z"/>
	<path fill="#FFFFFF" d="M585.7,476.8c-4.7,4.5-9.9,8.3-9.9,8.3s-2.5,1.9-5.1,3.2c-2,1.1-4.4,1.7-4.1,2.7c0.2,1.5,4.1,5.2,4.1,5.2
		l8.3-3.7c1.3-0.6,3.9,4.3,4.6,6.3c1.3,3.6,0.7,6.5,0.7,12.4c0,5.8,0.1,51.1-0.5,59.4c-0.2,3,3.2,10.2,9.8,15.9
		c4,3.4,8.9,4.7,9.5,4.4c3.4-2.4,8.8-8.4,10.3-9.8c5.6-5.3,7.6-7.6,12-11c1.1-0.8,2.4-2.4,2-3c-0.5-0.9-3.1-3.7-3.7-3.4
		c-2,0.7-5.1,4.6-6,4.1c-4.6-2.4-6-6.6-6.9-9.2c0,0,0.1-1.3-0.1-9.7c-0.2-10.3-0.1-17.4-0.1-27.3c0-8.3,0-18.5,0-18.5
		c1.7-1.7,11.8-9.6,14.2-10.8c1.9-0.9,6.5,1.8,10.3,9.2c1.9,3.8,2,5.1,2.1,9.2c0.2,7.1,0.4,13.9,0.2,20.6c0,1.7,0,27.8,0,38.1
		c0,2.8,0.2,5.1,2.2,8.2c5.2,7.9,11.2,10.5,16.7,12.9c1.1,0.5,1.7,0.5,5-2.1c2.2-1.8,4.3-4.3,7.3-7.8c2.6-3.1,5.6-6.2,6.9-7.6
		c4-4.6,3.3-3.7,4.6-5.3c0.5-0.6,2.6-1.8,2.5-3.4c0-0.8-3-3.6-4.1-3.4c-1.8,0.1-5.8,4.9-6.6,4.9c-0.6,0-3.7-1.7-5.2-2.8
		c-2.6-2.1-3.8-5.3-4-6.3c0,0,0-7,0-14.3c0-8.6,0.5-35.6,0.5-52c0-2.4-15.2-20.4-24-22.6c-3.6-0.9-15.5,8.6-18.7,11.8
		c-4.1,4.3-9.4,8.9-11.8,10.2c0,0-1.4-6.6-2.8-10.7c-1.9-5.6-2.7-7.5-5.3-10.2c-2-2-4.9-2.7-7.5,0
		C591.4,470.4,588.8,473.9,585.7,476.8z"/>
	<path fill="#FFFFFF" d="M964,477.4c-4.7,4.5-9.9,8.3-9.9,8.3s-2.5,1.9-5.1,3.2c-2,1.1-4.4,1.7-4.1,2.7c0.2,1.5,4.1,5.2,4.1,5.2
		l8.3-3.7c1.3-0.6,3.9,4.3,4.6,6.3c1.3,3.6,0.7,6.4,0.7,12.4c0,5.8,0.1,51.1-0.5,59.4c-0.2,3,3.2,10.2,9.8,15.9
		c4,3.4,8.9,4.7,9.5,4.4c3.4-2.4,8.8-8.4,10.3-9.8c5.6-5.3,7.6-7.6,12-11c1.1-0.8,2.4-2.5,2.1-3c-0.5-0.9-3.1-3.7-3.7-3.4
		c-2,0.7-5.1,4.6-6,4.1c-4.6-2.4-6-6.6-6.9-9.2c0,0,0-1.3-0.1-9.7c-0.2-10.3-0.1-17.4-0.1-27.3c0-8.3,0-18.5,0-18.5
		c1.7-1.7,11.8-9.6,14.2-10.8c1.9-0.9,6.5,1.8,10.3,9.2c1.9,3.8,2,5.1,2.1,9.2c0.2,7.1,0.4,13.9,0.2,20.6c0,1.7,0,27.8,0,38.1
		c0,2.8,0.2,5.1,2.2,8.2c5.2,8.1,11.2,10.5,16.7,12.9c1.1,0.5,1.7,0.5,5-2.1c2.2-1.8,4.5-4.6,7.2-8.4c1.7-2.5,5.7-8.3,9.5-12.7
		c0,0,9.1-9.4,10.3-11c0.5-0.6,13.5-12.2,13.4-13.9c0-0.8-3.8-4.5-5-4.4c-1.8,0.1-23.6,21.9-24.3,22.4c-2.6,1.8-4.3,3.7-5.8,2.4
		c-2.6-2.1-3.8-5.3-4-6.3c0,0,0-7,0-14.3c0-8.6,0.5-35.6,0.5-52c0-2.4-15.2-20.4-24-22.6c-3.6-0.9-15.5,8.6-18.7,11.8
		c-4.1,4.3-9.4,8.9-11.8,10.2c0,0-1.4-6.6-2.8-10.7c-1.9-5.6-2.7-7.5-5.3-10.2c-2-2-4.9-2.7-7.5,0
		C969.5,471.1,966.9,474.5,964,477.4z"/>
</g>
<g>
	<path fill="#FFFFFF" d="M43.5,431.4H30.9V425h32v6.4H50.4v32.9h-7C43.5,464.3,43.5,431.4,43.5,431.4z"/>
	<path fill="#FFFFFF" d="M75.9,425h6.9v16.3h18.8V425h6.9v39.3h-6.9v-16.6H82.8v16.6h-6.9V425z"/>
	<path fill="#FFFFFF" d="M124.2,425h29.2v6.2h-22.3v10.3H151v6.2h-19.8v10.5h22.5v6.2h-29.5V425z"/>
</g>
<g>
	<path fill="#FFFFFF" d="M512.2,621.9h6.9v16.3h18.8v-16.3h6.9v39.3h-6.9v-16.6H519v16.6h-6.9V621.9z"/>
	<path fill="#FFFFFF" d="M558.8,641.7L558.8,641.7c0-11.2,8.5-20.5,20.6-20.5c12.1,0,20.5,9.2,20.5,20.2v0.1
		c0,11.1-8.5,20.4-20.6,20.4C567.2,661.9,558.8,652.8,558.8,641.7z M592.7,641.7L592.7,641.7c0-7.8-5.6-14.1-13.4-14.1
		c-7.8,0-13.3,6.3-13.3,13.9v0.1c0,7.7,5.6,14,13.4,14C587.2,655.7,592.7,649.4,592.7,641.7z"/>
	<path fill="#FFFFFF" d="M621.6,628.3h-12.4v-6.4h32v6.4h-12.4v32.9h-7.1V628.3z"/>
	<path fill="#FFFFFF" d="M654,621.9h29.1v6.2h-22.3v10.2h19.8v6.2h-19.8V655h22.5v6.2h-29.5v-39.2H654z"/>
	<path fill="#FFFFFF" d="M697.3,621.9h6.9v33h20.7v6.3h-27.6V621.9z"/>
</g>
</svg>
