<?xml version="1.0" encoding="utf-8"?>
<!-- Generator: Adobe Illustrator 18.1.1, SVG Export Plug-In . SVG Version: 6.00 Build 0)  -->
<svg version="1.1" id="Layer_1" xmlns="http://www.w3.org/2000/svg" xmlns:xlink="http://www.w3.org/1999/xlink" x="0px" y="0px"
	 viewBox="37.6 370.1 1004.9 335" enable-background="new 37.6 370.1 1004.9 335" xml:space="preserve">
<g>
	<path fill="#FFFFFF" d="M772.4,461.7c-5.2,0-8.7,4-8.7,9.1v225.1c0,5,3.7,8.7,8.7,8.7c5.2,0,8.7-3.7,8.7-8.7V470.8
		C781.1,465.6,777.6,461.7,772.4,461.7z"/>
	<path fill="#FFFFFF" d="M599.6,467.7c-1.5-3.7-4.8-5.8-8.5-5.6c-3.7-0.2-6.9,1.9-8.5,5.6L487,692.9c-1.9,4.6,0,9.5,4.6,11.4
		c4.8,1.9,9.4,0,11.6-4.8l28.5-67.3h119l28.5,67.3c1.9,4.8,6.8,6.8,11.6,4.6c4.6-1.9,6.6-6.8,4.6-11.4L599.6,467.7z M539.2,614.8
		l52.1-122.5l52.1,122.5H539.2z"/>
	<path fill="#FFFFFF" d="M150.8,467.7c-1.5-3.7-4.8-5.8-8.5-5.6c-3.7-0.2-6.9,1.9-8.5,5.6L38.4,692.9c-1.9,4.6,0,9.5,4.6,11.4
		c4.8,1.9,9.4,0,11.6-4.8l28.4-67.3h119l28.5,67.3c1.9,4.8,6.8,6.8,11.6,4.6c4.6-1.9,6.6-6.8,4.6-11.4L150.8,467.7z M90.5,614.8
		l52.1-122.5l52.1,122.5H90.5z"/>
	<path fill="#FFFFFF" d="M466.3,462.9c-4.8-1.9-9.4-0.2-11.6,4.6l-87.9,207.1l-87.9-207.3c-1.9-4.8-6.8-6.6-11.6-4.6
		c-4.6,1.9-6.6,6.8-4.6,11.4l95.7,225.3c1.5,3.7,4.8,5.8,8.5,5.6c3.7,0.2,6.9-1.9,8.5-5.6L471,474.2
		C472.9,469.6,471,464.8,466.3,462.9z"/>
	<path fill="#FFFFFF" d="M1033.5,682.3H894.9v-211c0-5.2-3.1-9.1-8.5-9.1c-5.2,0-8.7,3.9-8.7,9.1l0.4,228.3h155.4
		c5.2,0,9.1-3.5,9.1-8.7C1042.6,685.6,1038.7,682.3,1033.5,682.3z"/>
	<ellipse fill="#FFFFFF" cx="773.2" cy="385.3" rx="15.2" ry="15.2"/>
</g>
</svg>
