<?xml version="1.0" encoding="utf-8"?>
<!-- Generator: Adobe Illustrator 18.1.1, SVG Export Plug-In . SVG Version: 6.00 Build 0)  -->
<svg version="1.1" id="Layer_1" xmlns="http://www.w3.org/2000/svg" xmlns:xlink="http://www.w3.org/1999/xlink" x="0px" y="0px"
	 viewBox="92.8 460.2 894.3 163.2" enable-background="new 92.8 460.2 894.3 163.2" xml:space="preserve">
<g>
	<path fill="#FFFFFF" d="M103.1,474.1c0-9.2,0-11.9-10.3-11.9v-2h33.4c20.4,0,28.1,9.3,28.1,19.4c0,8-5.7,13.8-12.8,15.8v0.2
		c8.4,1.1,16.2,7.4,16.2,16.7c0,6.4-3.6,20.1-27.8,20.1h-37v-2c10.3,0,10.3-2.7,10.3-11.9L103.1,474.1L103.1,474.1z M113.4,492.7
		c3.3,0.7,6.7,0.8,12,0.8c15.7,0,17.8-10,17.8-14.3c0-11.2-10.7-15.4-20.4-15.4c-3.2,0-6.3,0.3-9.4,1.2
		C113.4,465,113.4,492.7,113.4,492.7z M113.4,527.1c3.9,1,8.1,1.4,12.3,1.4c9.3,0,19.8-4.1,19.8-15c0-12.8-12.1-16.5-22.9-16.5
		c-3.1,0-6.2,0-9.2,0.6V527.1z"/>
	<path fill="#FFFFFF" d="M214.8,508.2l-4.4,10.2c-0.9,1.9-2.4,5.2-2.4,7.3c0,4,4.4,4.5,8.4,4.8v2h-22.7v-2c5.7-0.5,8-3.4,11.3-11
		l26-60.9h2l24.6,59c2.7,6.5,4.8,12.7,12.9,13v2H242v-2c4.7-0.2,7.4-1.1,7.4-4.9c0-2.4-1.7-6.1-2.6-8.3l-3.9-9.1L214.8,508.2
		L214.8,508.2z M228.9,475.2l-12.6,29.2h24.9L228.9,475.2z"/>
	<path fill="#FFFFFF" d="M358.8,532.5l-24.6-33.7h-7.4v19.9c0,9.2,0,11.9,10.3,11.9v2h-30.8v-2c10.3,0,10.3-2.7,10.3-11.9v-44.6
		c0-9.2,0-11.9-10.3-11.9v-2h31.3c21.3,0,25.1,12.5,25.1,18.8c0,10.5-8.4,16.4-17.9,18.3l14.1,19.7c5.3,7.4,9.3,12.8,19.2,13.5v2
		H358.8z M326.8,495.3h2.4c10.4,0,21.3-3.7,21.3-15.8c0-8.7-5.9-15.3-14.7-15.3c-3.1,0-6,0.5-9,1L326.8,495.3L326.8,495.3z"/>
	<path fill="#FFFFFF" d="M422.2,474.1c0-9.2,0-11.9-10.3-11.9v-2h33.4c20.4,0,28.1,9.3,28.1,19.4c0,8-5.7,13.8-12.8,15.8v0.2
		c8.4,1.1,16.2,7.4,16.2,16.7c0,6.4-3.6,20.1-27.9,20.1h-37v-2c10.3,0,10.3-2.7,10.3-11.9L422.2,474.1L422.2,474.1z M432.4,492.7
		c3.3,0.7,6.7,0.8,12,0.8c15.7,0,17.8-10,17.8-14.3c0-11.2-10.7-15.4-20.4-15.4c-3.2,0-6.3,0.3-9.4,1.2V492.7z M432.4,527.1
		c3.9,1,8.1,1.4,12.3,1.4c9.3,0,19.8-4.1,19.8-15c0-12.8-12.1-16.5-22.9-16.5c-3.1,0-6.2,0-9.2,0.6L432.4,527.1L432.4,527.1z"/>
	<path fill="#FFFFFF" d="M533.8,508.2l-4.4,10.2c-0.9,1.9-2.4,5.2-2.4,7.3c0,4,4.4,4.5,8.4,4.8v2h-22.7v-2c5.7-0.5,8-3.4,11.3-11
		l26-60.9h2l24.6,59c2.7,6.5,4.8,12.7,12.9,13v2H561v-2c4.7-0.2,7.4-1.1,7.4-4.9c0-2.4-1.8-6.1-2.6-8.3l-3.9-9.1L533.8,508.2
		L533.8,508.2z M548,475.2l-12.6,29.2h24.9L548,475.2z"/>
	<path fill="#FFFFFF" d="M677.8,532.5l-24.6-33.7h-7.4v19.9c0,9.2,0,11.9,10.3,11.9v2h-30.8v-2c10.3,0,10.3-2.7,10.3-11.9v-44.6
		c0-9.2,0-11.9-10.3-11.9v-2h31.3c21.3,0,25.1,12.5,25.1,18.8c0,10.5-8.4,16.4-17.9,18.3L678,517c5.3,7.4,9.3,12.8,19.2,13.5v2
		H677.8z M645.8,495.3h2.4c10.4,0,21.3-3.7,21.3-15.8c0-8.7-5.9-15.3-14.8-15.3c-3.1,0-6,0.5-9,1L645.8,495.3L645.8,495.3z"/>
	<path fill="#FFFFFF" d="M753.4,518.6c0,9.2,0,11.9,10.3,11.9v2h-30.8v-2c10.3,0,10.3-2.7,10.3-11.9V474c0-9.2,0-11.9-10.3-11.9v-2
		h30.8v2c-10.3,0-10.3,2.7-10.3,11.9V518.6z"/>
	<path fill="#FFFFFF" d="M820.2,508.2l-4.4,10.2c-0.9,1.9-2.4,5.2-2.4,7.3c0,4,4.4,4.5,8.4,4.8v2h-22.7v-2c5.7-0.5,8-3.4,11.2-11
		l26-60.9h2l24.6,59c2.7,6.5,4.8,12.7,12.9,13v2h-28.5v-2c4.7-0.2,7.4-1.1,7.4-4.9c0-2.4-1.7-6.1-2.6-8.3l-3.9-9.1L820.2,508.2
		L820.2,508.2z M834.4,475.2l-12.6,29.2h24.9L834.4,475.2z"/>
	<path fill="#FFFFFF" d="M927.3,518.6c0,9.2,0,11.9,10.3,11.9v2h-25.2v-2c10.3,0,10.3-2.7,10.3-11.9v-48.9c-3.9-4.9-7-7.5-14.3-7.5
		v-2H928l44,54.1h0.2v-40.2c0-9.2,0-11.9-10.3-11.9v-2h25.2v2c-10.3,0-10.3,2.7-10.3,11.9v59.6h-2l-47.4-58.1h-0.2L927.3,518.6
		L927.3,518.6z"/>
	<line fill="#FFFFFF" stroke="#231F20" stroke-width="0.2743" x1="492.2" y1="623.4" x2="619" y2="623.4"/>
	<g>
		<path fill="#FFFFFF" d="M430.8,585.9l-1.6,3.7c-0.3,0.7-0.9,1.9-0.9,2.7c0,1.5,1.6,1.6,3.1,1.8v0.7h-8.3v-0.7
			c2.1-0.2,2.9-1.2,4.1-4l9.5-22.4h0.7l9,21.6c1,2.4,1.8,4.6,4.7,4.8v0.7h-10.5v-0.7c1.7-0.1,2.7-0.4,2.7-1.8c0-0.9-0.6-2.2-1-3
			l-1.4-3.3L430.8,585.9L430.8,585.9z M436,573.7l-4.6,10.7h9.1L436,573.7z"/>
		<path fill="#FFFFFF" d="M495.5,593.1c-2.8,1.5-5.9,2.3-9.1,2.3c-11.7,0-14.8-8.7-14.8-13.4c0-6.2,4.5-14.3,14-14.3
			c2,0,3.4,0.4,4.9,0.9c0.6,0.2,2,0.8,2.5,0.8c0.9,0,1-1,1-1.7h0.7l0.7,8.4h-0.7c-1.3-4.4-4.1-7-8.9-7c-6.7,0-9.8,6.1-9.8,12.1
			c0,7.6,4.2,12.9,10.3,12.9c1.7,0,3.8-0.4,5.4-1.4v-7.2c0-3.4,0-4.4-3.8-4.4v-0.7h10.5v0.7c-2.6,0-3,0.9-3,3.7L495.5,593.1
			L495.5,593.1z"/>
		<path fill="#FFFFFF" d="M527.3,580.2h5.3c3.2,0,4.4-0.3,4.6-3.9h0.7v9.3h-0.7c-0.3-3.5-1.4-3.9-4.6-3.9h-5.3v9.7
			c0,1.6,0.5,2,2.2,2h5.5c3.5,0,4.8-1.6,6.9-5.2h0.8l-2.2,6.7h-20.6v-0.7c3.8,0,3.8-1,3.8-4.4v-16.3c0-3.4,0-4.4-3.8-4.4v-0.7h20.4
			l0.4,5.8h-0.8c-0.8-4-1.8-4.4-5.6-4.4h-6.8v10.4H527.3z"/>
		<path fill="#FFFFFF" d="M570.1,589.7c0,3.4,0,4.4,3.8,4.4v0.7h-9.3v-0.7c3.8,0,3.8-1,3.8-4.4v-17.9c-1.4-1.8-2.6-2.8-5.3-2.8v-0.7
			h7.2l16.2,19.8h0.1v-14.7c0-3.4,0-4.4-3.8-4.4v-0.7h9.3v0.7c-3.8,0-3.8,1-3.8,4.4v21.9h-0.7L570.2,574h-0.1V589.7z"/>
		<path fill="#FFFFFF" d="M637.3,576.7h-0.6c-1.2-4.5-3.9-7.6-8.9-7.6c-5.3,0-9.3,4.1-9.3,12.9c0,8.9,5.3,11.7,9.9,11.7
			c4.2,0,6.5-2,8.9-5.5l0.6,0.4c-2.4,4.5-5.7,6.8-11,6.8c-7.6,0-12.9-5.8-12.9-13.3c0-7.9,5.5-14.3,13.6-14.3c2.1,0,3.8,0.5,5.7,1.4
			c0.3,0.2,0.8,0.4,1.2,0.4c0.9,0,1.4-1,1.6-1.8h0.7L637.3,576.7z"/>
		<path fill="#FFFFFF" d="M679.8,574c0.5-0.8,1.4-2.2,1.4-3.1c0-1.5-1.2-1.9-2.7-1.9v-0.7h9.3v0.7c-2.6,0-4,1.8-5.4,3.9l-6.7,10.6
			v6.2c0,3.4,0,4.4,3.8,4.4v0.7h-11.3v-0.7c3.8,0,3.8-1,3.8-4.4v-5.8l-8.2-12.5c-1-1.5-2.5-2.4-3.9-2.4v-0.7h11.3v0.7
			c-1.6,0-3.1,0.3-3.1,1.8c0,0.7,0.6,1.5,0.9,2l5.9,9.1L679.8,574z"/>
	</g>
</g>
</svg>
