<?xml version="1.0" encoding="utf-8"?>
<!-- Generator: Adobe Illustrator 18.1.1, SVG Export Plug-In . SVG Version: 6.00 Build 0)  -->
<svg version="1.1" id="Layer_1" xmlns="http://www.w3.org/2000/svg" xmlns:xlink="http://www.w3.org/1999/xlink" x="0px" y="0px"
	 viewBox="97.3 413.1 886.8 253.8" enable-background="new 97.3 413.1 886.8 253.8" xml:space="preserve">
<path fill="#FFFFFF" d="M208,587.1h-0.5c-9.5,16.5-29.9,23.9-47.6,23.9c-36.6,0-62.6-26.3-62.6-62.6s26-62.6,62.6-62.6
	c17.8,0,38.1,7.5,47.6,23.9h0.5v-96.6h15.4V608H208V587.1z M159.9,499.8c-29.1,0-47.1,21.9-47.1,48.7s18,48.7,47.1,48.7
	c28.1,0,49.7-21.9,49.7-48.7S187.9,499.8,159.9,499.8"/>
<path fill="#FFFFFF" d="M379.2,574.5c0,8.8,1.3,27.3,1.3,33.5H365c-0.3-8.8-0.5-18.5-1-20.9h-0.8c-6.2,13.1-21.4,23.9-40.7,23.9
	c-37.1,0-45.3-25.2-45.3-51.2V489h15.4v70c0,19.3,5.4,38.1,29.9,38.1c22.9,0,41.2-16,41.2-48.7V489h15.4v85.5H379.2z"/>
<path fill="#FFFFFF" d="M434.6,489H450v20.9h0.5c9.5-16.5,29.9-23.9,47.6-23.9c36.6,0,62.6,26.3,62.6,62.6s-26,62.6-62.6,62.6
	c-17.8,0-38.1-7.5-47.6-23.9H450v79.6h-15.4V489z M498.2,597.2c29.1,0,47.1-21.9,47.1-48.7s-18-48.7-47.1-48.7
	c-28.1,0-49.7,21.9-49.7,48.7C448.5,575.3,470.1,597.2,498.2,597.2"/>
<path fill="#FFFFFF" d="M715.6,574.5c0,8.8,1.3,27.3,1.3,33.5h-15.5c-0.3-8.8-0.5-18.5-1-20.9h-0.8c-6.2,13.1-21.4,23.9-40.7,23.9
	c-37.1,0-45.3-25.2-45.3-51.2V489h15.5v70c0,19.3,5.4,38.1,29.9,38.1c22.9,0,41.2-16,41.2-48.7V489h15.4L715.6,574.5L715.6,574.5z"
	/>
<path fill="#FFFFFF" d="M776.4,522.5c0-8.8-1.3-27.3-1.3-33.5h15.5c0.3,8.8,0.5,18.5,1,20.9c7.7-13.9,20.1-23.9,37.9-23.9
	c3.1,0,5.9,0.5,9,1.3l-1.8,15.2c-2.3-0.8-4.4-1-5.9-1c-26.8,0-38.9,18.5-38.9,41.7V608h-15.5V522.5z"/>
<path fill="#FFFFFF" d="M980.5,585.6c-12.1,18-30.4,25.5-51.5,25.5c-36.3,0-60.3-26-60.3-62.8c0-35.5,24.7-62.3,59.5-62.3
	c36.6,0,55.9,28.1,55.9,55.6v10.8h-99.9c0,12.9,9,44.8,45.1,44.8c15.7,0,32.2-8.2,39.9-21.1L980.5,585.6z M968.7,538.5
	c0-21.1-18.3-38.6-41.2-38.6c-33.7,0-43.3,32.4-43.3,38.6H968.7z"/>
</svg>
