<?xml version="1.0" encoding="utf-8"?>
<!-- Generator: Adobe Illustrator 18.1.1, SVG Export Plug-In . SVG Version: 6.00 Build 0)  -->
<svg version="1.1" id="Layer_1" xmlns="http://www.w3.org/2000/svg" xmlns:xlink="http://www.w3.org/1999/xlink" x="0px" y="0px"
	 viewBox="0 0 1080 246.1" enable-background="new 0 0 1080 246.1" xml:space="preserve">
<g>
	<path opacity="0.7" fill="#FFFFFF" enable-background="new    " d="M935.4,91.7c-3.3-1.2-6.7-1.1-10.2,0.4c-3.3,1.6-5.7,4-6.9,7.4
		c-1.2,2.8-10.8,31.1-28.9,85l-1.8-3.7c-4.9-11.9-9.4-21.8-13.3-29.3c-6.1-12.3-11.6-21.4-16.5-27.6c-3.7-4.6-7.3-7.9-10.6-10.2
		c-6.5-4-12.7-4.5-18.9-1.3c-2.8,1.2-5.2,3.2-7.4,6c-0.9,1.6-1.9,3.3-2.8,5.5c-1.6,3-3,7.3-4.6,12.4c-0.3,0.7-3.6,11.4-9.6,32.1
		l-4.6,14.3l-0.4-1.3c-1.2-5.8-3.3-14.2-6.5-25c-3-10.8-4.8-17.2-5-19.1c-4.2-16.8-7.4-31.2-9.1-43.2c-0.7-3.3-2.5-6.2-5.5-8.5
		c-3-2.3-6.4-3.1-9.9-2.6c-3.6,0.7-6.5,2.5-8.7,5.5c-2.3,3-3.1,6.5-2.6,10.2c2.1,12.6,5.5,27.7,10.2,45.5c0.3,1.6,1.8,7.8,4.6,18.9
		l6.7,24.8l4.4,18.9v1.3v5.5c0,4,0.8,7.3,2,9.6c3.3,6.7,8.9,9.6,16.6,8.7c5.5-0.9,10.5-4.2,14.7-10.2c2.5-3,4.9-7.4,7.4-12.8
		c2.8-6.5,6.4-17.4,10.9-33c6.1-20.5,9.6-30.9,9.6-31.2v-0.9c2.2,4.9,7.3,11.5,11.6,19.7c3.7,7.4,8,16.7,12.9,28
		c5.2,11.6,8.1,18.1,8.7,19.3l0.4,0.9c0.6,3,0.9,4.8,0.9,5c1.2,3.7,2.6,6.5,4.1,8.3c4.9,5.8,10.8,7.4,18,4.6
		c6.5-2.8,11-8.3,13.7-16.5c0.3-1.2,0.8-3.3,1.3-6.5c0.6-1.8,0.9-3.2,0.9-4.1c2.1-5.8,6.9-19.9,14.3-42.3
		c7.4-22.3,13.2-39.5,17.4-51.4c1.2-3.3,1.1-6.7-0.4-10.2C941.2,95.3,938.8,92.9,935.4,91.7z"/>
	<path opacity="0.7" fill="#FFFFFF" enable-background="new    " d="M1047.4,157.4c-5.5-5.2-13.9-10.2-25.7-14.7
		c-11.2-4.5-18.1-7.4-20.7-8.9c-3.7-2.5-5.7-5.4-6-8.6c-0.6-3.3-0.1-5.7,1.2-6.8c1.6-1.8,4.5-2.9,8.8-3.5c9.1-1.7,20-0.7,32.3,2.9
		c3.5,1.1,6.8,0.7,10-1.2c3.1-1.9,5.2-4.6,6.4-8.1c1.1-3.5,0.7-6.8-1.2-10c-1.9-3.1-4.6-5.2-8.1-6.4c-16-4.4-30.5-5.5-43.6-3.6
		c-10.2,1.7-18,5.2-23.6,10.9c-7.1,7.4-10.2,17.1-9,28.9c1.5,11.7,7.7,21,18.6,28c4,2.6,12.5,6.4,25.3,11.3
		c8.6,3.3,14.3,6.4,17.2,8.9c2.9,2.7,4.1,6.7,3.7,11.9c-0.8,7.8-3.6,13.4-8.1,16.7c-4.1,2.9-9.7,3.9-16.8,2.9
		c-7.6-0.4-14.9-2.9-22-7.4c-7.1-4.5-12.2-9.7-15.1-15.7c-1.9-3.1-4.6-5.2-8.1-6.4c-3.5-1.1-6.9-0.8-10.2,0.9
		c-3.2,1.7-5.5,4.4-6.6,7.8c-1.1,3.5-0.9,6.9,0.7,10.3c5.5,10,13.7,18.5,24.8,25.3c11,6.8,22.3,10.7,33.8,11.8
		c13.7,1.3,25.2-1.2,34.7-7.9c11-7.8,17.4-19.7,19-35.9C1060.8,177.4,1056.9,166.2,1047.4,157.4z"/>
	<path opacity="0.7" fill="#FFFFFF" enable-background="new    " d="M444.9,28.6c-2.5-2.2-5.2-3.3-8.5-3.3s-6,1.2-8.1,3.6
		c-2.2,2.5-3.3,5.2-3.3,8.5c0.6,21.1,0.9,39.3,0.9,54.5c-17.1-5.6-31.8-7.1-44.3-4.9c-10.7,1.9-20.5,7.3-29.3,16.1
		c-9,9-16.2,19.3-21.5,31c-3.5,7.7-5.9,15.4-7.5,23.3c-1.6,7.8-1.7,16-0.4,24.4c1.2,8.5,4.1,15.7,8.8,21.9
		c7.8,10.7,21.9,18.6,41.9,23.5c20.6,5,39.9,3.7,57.8-3.7c1.3,0.6,2.8,0.9,4.4,0.9c3.2,0.2,6-0.8,8.5-3c2.3-2.2,3.7-4.9,3.9-8.1
		c2.1-45,2.3-103.9,0.6-176.4C448.5,33.5,447.3,30.8,444.9,28.6z M425,200.8c-1,0.2-1.9,0.4-2.9,0.9c-7.1,3-13.9,4.8-20.6,5.1
		c-6.7,0.4-14.1-0.4-22.1-2.6c-14.7-3.7-24.3-8.5-28.8-14.4c-3.5-4.6-5.1-11.2-4.9-19.5c0.2-8.5,2.3-17.3,6.6-26.4s9.4-16.8,15.5-23
		c6.1-6.1,12-9.8,17.8-10.9c9.6-1.7,23.1,0.6,40.5,6.9C426.3,147.4,425.9,175.2,425,200.8z"/>
	<path opacity="0.7" fill="#FFFFFF" enable-background="new    " d="M563.1,85c-20.6-1.1-37.7,2.7-50,11.5v-5.1
		c0-4-1.1-7.5-3.9-10.2c-2.8-2.8-6-4.1-10-4.1s-7.4,1.3-10.2,4.1c-2.8,2.8-4.1,6.1-4.1,10.2c0,0.8-0.2,11.8-0.9,33
		c-0.3,14.2-0.3,26,0.3,35.4c1.9,24.5,3.1,39.4,3.8,44.5c0.2,1.7,0.3,3.1,0.3,4.4l2,11.8c0.3,2.5,0.8,4.4,1.1,5.5s0.8,2.2,1.1,3.1
		c1.1,1.9,2.7,3.6,4.6,4.9c2.7,1.9,5.7,2.8,8.9,2.6c3.7-0.2,6.8-1.6,9.5-4c1.9-1.9,3-4.1,3.6-6.6l0.4-2.3v-2.3c0-3-0.4-6.8-1.6-11.2
		c-0.8-3.5-1.1-5.5-1.1-6l-0.2-2.6c-1-12.5-1.5-24.1-1.5-35c0-20,3.3-33.9,10-41.9c6.5-7.8,18.6-11.4,36.3-10.6
		c4,0.2,7.5-1,10.5-3.8c3-2.7,4.6-6,4.7-9.9c0.2-3.9-1.2-7.4-3.9-10.4C570.3,86.8,567,85.2,563.1,85z"/>
	<path opacity="0.7" fill="#FFFFFF" enable-background="new    " d="M720.5,94.1c0.2-3-0.8-5.8-3-8.4c-2.2-2.5-4.9-3.8-8-4
		c-3.1-0.2-5.9,0.8-8.4,3c-2.5,2.2-3.9,4.9-3.9,8.1v2.3c-14.5-11.7-32.1-12.7-50.5-11.2c-14.7,1.3-27.8,7.1-38.8,17.4
		c-11.2,10.3-17.4,20-20.3,37.1c-3.7,20.5-1.8,38.5,5.7,53.9c7.5,15.4,18.7,25.9,33.9,31.5c11.5,4.2,23.5,4.6,36.1,1
		c12.6-3.6,22.8-10.7,35-21.4v11.5c0,3.2,1.2,6,3.5,8.4c2.3,2.3,5.1,3.5,8.4,3.5c3.2,0,6-1.1,8.4-3.5c2.3-2.3,3.5-5,3.5-8.4
		c0-4.2-0.6-24.7-1.7-61.2C719.5,129.6,719.5,109.7,720.5,94.1z M694.6,169.8c-8.8,14.7-18.6,24.7-29.6,29.6
		c-10.9,5-20.9,5.8-29.9,2.3c-9-3-16.1-9.8-21.1-20.1c-5.1-10.4-6.2-23.3-3.6-38.8c2.1-11.8,6.1-17.2,13.4-23.9
		c7.3-6.7,15.6-10.5,25-11.2c9.1-0.8,18.7-2.8,27.2,2c8.5,4.8,15.2,12.2,20,22.1c0.2,6.7,0.3,14.4,0.6,23c0.2,3,0.3,7,0.6,11.8
		C696,167.5,695.1,168.6,694.6,169.8z"/>
	<path fill="#FFFFFF" d="M221.4,122.8c0.2-44.6-1.3-80.9-4.6-107.6c-0.8-4.8-3.1-8.8-6.8-11.6c-3-2.3-6.5-3.6-10.3-3.6
		c-0.9,0-1.8,0.1-2.7,0.2c-4.8,0.7-8.7,2.9-11.5,6.7c-2.9,3.8-4.1,8-3.6,12.7c2.9,25.3,7,59.9,6.8,102.2c-0.1,24.2-0.6,45.2-0.9,62
		c-0.4,21.1-0.8,36.4-0.2,45.8c0.2,4.8,2.2,8.8,5.8,11.9c3.3,2.9,7.1,4.5,11.5,4.5c0.3,0,0.8,0,1.1,0c4.8-0.2,8.9-2.2,12-5.9
		c3.1-3.6,4.6-7.9,4.4-12.9C221.6,211.7,221.3,176.6,221.4,122.8z"/>
	<path fill="#FFFFFF" d="M255.2,46.6c0.6,0.4,1.1,1,1.6,1.5c0.6,0.6,1,1.1,1.6,1.6c2.2,2.3,4.2,4.5,8.4,4.5h0.2
		c4.7,0,8.7-1.9,11.9-5.4c3.2-3.3,3.1-7,3-10.8v-1.1c-0.1-4.6-1.9-8.6-5.4-11.9c-3.2-3.1-5-3.9-9-3.9h-0.9
		c-4.1,0.1-8.9,0.4-12.4,4.1c-3.3,3.5-4.9,7.5-4.8,12.2C249.5,41.5,252.5,44.2,255.2,46.6z"/>
	<path fill="#FFFFFF" d="M292.2,203.5c-1.8-11.5-4.4-27.2-6.1-47.4c-1.9-21.8-2-40.6-2.1-55.8c0-7.8-0.1-14.6-0.3-20.5
		c-0.1-4.6-2.1-8.5-6-11.6c-3.6-2.9-7.7-4.4-12.4-4.4h-0.4c-4.5,0.1-11.2,0.2-14.8,4c-3.3,3.5-5,7.5-4.9,12c0.4,9.8,1.9,22.4,3.6,37
		c1.5,12.3,3,26.3,4.4,41.4c2.9,33,4.7,54.3,5.2,63.7c0.3,4.5,2.5,8.3,6.2,11.4c3.3,2.7,7.3,4.1,11.6,4.1c0,0,1.1,0,1.5,0
		c4.8-0.3,8.9-2.2,12.3-5.7c3.5-3.5,4.9-7.6,4.6-12C294.1,216,293.3,210.7,292.2,203.5z"/>
	<path fill="#FFFFFF" d="M143.2,81.1c-15.4-9.1-22.9-12.2-36.9-12.2c-1.9,0-4,0.1-6.2,0.1c-17.7,0.9-40.3,14.8-51.6,27.9
		C37.9,109,36.1,113.7,36,114c-16.2,35.8-10.8,67.5,16,94.1l4.7,4.4c15.4,12.3,47.4,20.1,62.7,20.1h7.7c13.6,0,27.3-1.1,35.2-8.8
		l0.1-0.1l1.7-2.6c1.5-3.2,1.5-6.9-0.1-10c-1.3-2.6-3.3-4.4-5.6-4.8l-3.6-0.7c-10.6-1.7-20.2-2.7-28.8-3.7
		c-21.9-2.5-37.7-4.2-49.9-12.6c-9.1-5.5-15.3-18.9-15.3-28.1c0-0.3,0-1.5,0.3-2.2c1.1,0.1,3.2,0.9,4.6,1.6
		c13.8,5.7,27.1,8.3,41.8,8.3c20.1,0,42.9-1.2,58.7-16.5c5.1-4.6,7.3-12.2,6.4-21.9C170.6,111.7,157.5,89.6,143.2,81.1z
		 M141.7,133.2c-3.3,5-9.1,7.1-21.8,8l-1.1,0.1c-3.7,0.2-7.5,0.6-11.6,0.6c-10.2,0-19.9-1.6-31.5-5.2c-3.9-1.3-7.8-3.2-8.9-4.1
		c0.3-1.6,0.8-3.3,2.1-6.2c4.8-10.5,26.4-24,39.3-24.4c1,0,2.1-0.1,3.3-0.1c2.9,0,7.4,0.2,12.3,2.1c12.5,4.8,17,20.4,17.6,25.4
		C141.7,130.8,141.7,132.4,141.7,133.2z"/>
</g>
</svg>
