<?xml version="1.0" encoding="utf-8"?>
<!-- Generator: Adobe Illustrator 18.1.1, SVG Export Plug-In . SVG Version: 6.00 Build 0)  -->
<svg version="1.1" id="Layer_1" xmlns="http://www.w3.org/2000/svg" xmlns:xlink="http://www.w3.org/1999/xlink" x="0px" y="0px"
	 viewBox="0 0 956.4 781" enable-background="new 0 0 956.4 781" xml:space="preserve">
<g>
	<polygon fill="#232323" points="42.1,739.7 10.9,693 1,693 1,778.6 10.5,778.6 10.5,709.4 41.7,755.1 42.2,755.1 73.4,709.2 
		73.4,778.6 83,778.6 83,693 73.3,693 	"/>
	<path fill="#232323" d="M151.2,692.3l-39.1,86.3h9.9l10.2-22.7h46.7l10.1,22.7h10.4l-39.1-86.3H151.2z M136.1,747.3l19.5-43.7
		l19.4,43.7H136.1z"/>
	<polygon fill="#232323" points="291.5,761.6 237.5,693 228.5,693 228.5,778.6 237.9,778.6 237.9,708.3 293.2,778.6 300.9,778.6 
		300.9,693 291.5,693 	"/>
	<polygon fill="#232323" points="369.1,735.8 340.4,693 328.7,693 364.2,744.7 364.2,778.6 373.9,778.6 373.9,744.6 409.5,693 
		398.3,693 	"/>
	<polygon fill="#232323" points="545.4,731 495.9,731 495.9,693 486.2,693 486.2,778.6 495.9,778.6 495.9,740 545.4,740 
		545.4,778.6 555,778.6 555,693 545.4,693 	"/>
	<path fill="#232323" d="M663.1,704.6c-3.9-4.1-8.4-7.3-13.8-9.6s-11.2-3.5-17.8-3.5c-6.5,0-12.5,1.2-17.9,3.6
		c-5.4,2.5-9.9,5.6-13.8,9.7c-3.9,4.1-6.8,8.8-8.9,14.2c-2.1,5.4-3.2,11-3.2,16.8v0.2c0,5.8,1.1,11.5,3.2,16.8
		c2.1,5.4,5,10.1,8.9,14c3.9,4.1,8.4,7.3,13.8,9.6c5.4,2.3,11.2,3.5,17.8,3.5s12.5-1.2,17.9-3.6c5.4-2.5,9.9-5.6,13.8-9.7
		c3.9-4.1,6.8-8.8,8.9-14.2c2.1-5.4,3.2-11,3.2-16.8c0.1-0.1,0.1-0.1,0-0.2c0-5.8-1.1-11.5-3.2-16.8
		C670,713.3,666.9,708.7,663.1,704.6z M665.1,736c0,4.9-0.8,9.5-2.5,13.7c-1.6,4.2-4,8-6.9,11.1c-2.9,3.2-6.4,5.7-10.6,7.5
		c-4.1,1.9-8.7,2.8-13.6,2.8c-4.9,0-9.4-0.9-13.6-2.8c-4.1-1.9-7.7-4.4-10.8-7.6c-3-3.2-5.4-6.9-7-11.2c-1.6-4.3-2.5-8.9-2.5-13.8
		v-0.2c0-4.9,0.8-9.5,2.5-13.7c1.6-4.2,4-8,6.9-11.1c2.9-3.2,6.4-5.7,10.6-7.5c4.1-1.9,8.7-2.8,13.6-2.8c4.9,0,9.4,0.9,13.6,2.8
		c4.1,1.9,7.7,4.4,10.8,7.6s5.4,6.9,7,11.2c1.6,4.3,2.5,8.9,2.5,13.8V736z"/>
	<path fill="#232323" d="M763.2,700.2c-2.8-2.3-6.2-4.1-10.2-5.4c-4-1.3-8.3-1.9-13.1-1.9h-32v85.7h9.7v-30.2h20.7
		c4.6,0,8.9-0.6,13-1.8c4.1-1.2,7.6-2.9,10.8-5.3c3-2.3,5.5-5.3,7.3-8.8c1.8-3.5,2.7-7.5,2.7-12.2v-0.2c0-4.2-0.7-8.1-2.2-11.3
		C768.1,705.4,766,702.6,763.2,700.2z M762.2,720.8c0,2.8-0.6,5.5-1.6,7.7c-1.1,2.3-2.7,4.3-4.8,6c-2.1,1.6-4.6,2.9-7.5,3.9
		c-2.9,0.9-6.1,1.4-9.6,1.4h-21.3V702h21.8c6.9,0,12.5,1.5,16.7,4.7c4.2,3.2,6.3,7.8,6.3,13.9L762.2,720.8L762.2,720.8z"/>
	<polygon fill="#232323" points="811.5,739.8 858.2,739.8 858.2,731.1 811.5,731.1 811.5,701.6 863.8,701.6 863.8,693 801.8,693 
		801.8,778.6 864.4,778.6 864.4,769.9 811.5,769.9 	"/>
	<path fill="#232323" d="M947.9,739.9c-4.6-3.7-11.6-6.7-21.2-8.8c-4.7-0.9-8.7-2-11.6-3.2c-3-1.1-5.4-2.3-7.1-3.6
		c-1.8-1.4-2.9-2.8-3.5-4.4c-0.7-1.6-0.9-3.4-0.9-5.5v-0.2c0-3.9,1.6-7.3,4.9-9.8c3.3-2.7,7.7-4,13.3-4c4.4,0,8.7,0.7,12.6,2.2
		c4.1,1.5,8.1,3.9,12,7.1l5.6-7.5c-4.4-3.5-9-6.1-13.7-7.8c-4.7-1.8-10.2-2.7-16.5-2.7c-4.1,0-7.8,0.6-11.2,1.8
		c-3.4,1.2-6.4,2.8-8.9,4.9c-2.6,2.1-4.4,4.6-5.8,7.4c-1.4,2.8-2.1,6-2.1,9.4v0.2c0,3.5,0.6,6.5,1.8,9.1c1.2,2.6,2.9,4.9,5.3,6.9
		c2.3,2,5.4,3.6,9,5c3.6,1.4,8,2.6,12.9,3.6c4.4,0.9,8.2,2,11.1,3s5.1,2.2,6.8,3.5c1.6,1.3,2.8,2.8,3.4,4.3c0.7,1.6,0.9,3.4,0.9,5.4
		v0.2c0,4.2-1.8,7.7-5.1,10.4c-3.5,2.7-8.1,4.1-13.9,4.1c-6,0-11.2-1.1-15.8-3c-4.6-2-9.1-5-13.6-9.1l-6,7.1
		c5.1,4.7,10.5,8.1,16.3,10.3c5.7,2.2,11.9,3.4,18.8,3.4c4.2,0,8.2-0.6,11.7-1.8c3.6-1.2,6.7-2.8,9.2-4.9c2.6-2.1,4.6-4.7,6-7.6
		c1.4-2.9,2.2-6.3,2.2-9.9v-0.2C954.7,748.8,952.4,743.6,947.9,739.9z"/>
</g>
<g>
	<path fill="#EC1C24" d="M523.9,340.5c1.3-1.3,1.4-3.4,0.1-4.7c-1.3-1.3-3.4-1.4-4.7-0.1s-1.4,3.4-0.1,4.7c0.7,0.7,1.5,1.1,2.5,1.1
		C522.4,341.5,523.2,341.2,523.9,340.5z"/>
	<path fill="#EC1C24" d="M533.9,259.9c-1.6,0.8-2.3,2.8-1.5,4.4c0.6,1.2,1.8,1.9,3,1.9c0.5,0,0.9-0.1,1.4-0.4
		c1.6-0.8,2.3-2.8,1.5-4.4C537.6,259.9,535.6,259.1,533.9,259.9z"/>
	<path fill="#EC1C24" d="M467.8,229.9c0.1,0,0.4-0.1,0.5-0.1l0.1-0.2h0.1c1.9,0,3.2-1.4,2.9-3.2c-0.2-1.8-2-2.2-3.7-2.2h-0.1
		l-0.1-0.4c-1.9,0.2-3.2,1.5-2.8,3.4C464.8,228.7,466.2,229.9,467.8,229.9z"/>
	<path fill="#EC1C24" d="M413.2,276.1c-1.8-0.4-3.5,0.8-3.9,2.7c-0.4,1.8,0.9,3.5,2.7,3.9c0.2,0,0.4,0,0.6,0c1.5,0,2.9-1.2,3.3-2.8
		C416.3,278.2,415.1,276.4,413.2,276.1z"/>
	<path fill="#EC1C24" d="M445.7,351.6c1.2,0,2.3-0.7,2.9-1.8c0.8-1.6,0.2-3.6-1.3-4.6c-1.6-0.8-3.6-0.2-4.6,1.3
		c-0.8,1.6-0.2,3.6,1.4,4.6C444.7,351.5,445.2,351.6,445.7,351.6z"/>
	<path fill="#EC1C24" d="M587.5,367.5c-3.9-3-9.5-2.5-12.5,1.4c-3,3.9-2.5,9.5,1.4,12.5c1.6,1.3,3.6,2,5.5,2c2.6,0,5.3-1.2,6.9-3.4
		C591.9,376.2,591.4,370.6,587.5,367.5z"/>
	<path fill="#EC1C24" d="M609.5,313.3c0.4,0,0.6,0,0.9,0c4.6,0,8.4-3.4,8.9-8.1c0.5-4.9-3-9.2-8-9.7c-4.9-0.5-9.2,3-9.7,8
		C601.1,308.4,604.7,312.8,609.5,313.3z"/>
	<path fill="#EC1C24" d="M393.7,174.2c-4,2.8-4.9,8.4-2.1,12.4c1.8,2.5,4.4,3.7,7.3,3.7c1.8,0,3.6-0.6,5.1-1.6
		c4-2.8,4.9-8.4,2.1-12.4C403.3,172.2,397.8,171.3,393.7,174.2z"/>
	<path fill="#EC1C24" d="M360.2,244.1c1.9-4.6-0.4-9.7-4.9-11.6s-9.7,0.4-11.6,4.9c-1.9,4.6,0.4,9.7,4.9,11.6
		c1.1,0.5,2.2,0.6,3.3,0.6C355.4,249.6,358.8,247.5,360.2,244.1z"/>
	<path fill="#EC1C24" d="M528.6,414.9c-1.6-4.7-6.7-6.7-11.3-5.1c-4.7,1.6-7.1,6.7-5.5,11.2c1.3,3.6,4.7,5.6,8.4,5.6
		c0.9,0,2-0.9,2.9-0.9l0,0C527.7,425.8,530.2,419.6,528.6,414.9z"/>
	<path fill="#EC1C24" d="M552.2,179.5c2.5-4.2,1.1-9.7-3.2-12.2c-4.2-2.5-9.7-1.1-12.2,3.2c-2.5,4.2-1.1,9.7,3.2,12.2
		c1.4,0.8,2.9,1.2,4.4,1.2C547.5,183.9,550.4,182.3,552.2,179.5z"/>
	<path fill="#EC1C24" d="M342.9,307.4c-4.8,0.9-8,5.6-7.1,10.4c0.8,4.2,4.6,7.3,8.8,7.3c0.6,0,1.1,0,1.6-0.1c4.8-0.9,8-5.5,7-10.4
		C352.4,309.6,347.7,306.5,342.9,307.4z"/>
	<path fill="#EC1C24" d="M470.9,166.8h0.2h0.4c4.9,0,8.7-5,8.5-9.9c-0.2-4.9-4.3-9.1-9.2-9.1h-0.4c-0.1,0-0.2,0.4-0.4,0.4
		c-4.9,0.2-8.7,4.7-8.5,9.6c0.2,4.8,4.1,9,8.9,9L470.9,166.8L470.9,166.8z"/>
	<path fill="#EC1C24" d="M385.5,377.4c-3.4-3.5-9-3.7-12.5-0.4c-3.5,3.4-3.7,9-0.4,12.5c1.8,1.9,4.1,2.8,6.4,2.8
		c2.2,0,4.4-0.8,6.1-2.5C388.8,386.6,388.9,380.9,385.5,377.4z"/>
	<path fill="#EC1C24" d="M600.5,237.9c4.3-2.2,6.1-7.6,3.9-11.9s-7.6-6.1-11.9-3.9c-4.4,2.2-6.1,7.6-3.9,11.9c1.6,3,4.7,4.8,8,4.8
		C597.8,238.9,599.2,238.6,600.5,237.9z"/>
	<path fill="#EC1C24" d="M435.9,419.5c-1.2,4.8,1.8,9.6,6.4,10.8c0.7,0.2,1.4,0.2,2.1,0.2c4,0,7.6-2.7,8.7-6.8
		c1.2-4.8-1.8-9.6-6.5-10.8C441.9,411.7,437.1,414.7,435.9,419.5z"/>
	<path fill="#EC1C24" d="M671.7,353c-7.4-2.9-15.8,0.7-18.7,8.1c-2.9,7.4,0.7,15.8,8.1,18.7c1.8,0.7,3.5,1.1,5.3,1.1
		c5.7,0,11.2-3.5,13.5-9.1C682.7,364.4,679.1,356,671.7,353z"/>
	<path fill="#EC1C24" d="M570.8,472.7c-3.2-7.3-11.7-10.6-18.9-7.5c-7.4,3.2-10.6,11.7-7.5,18.9c2.3,5.5,7.7,8.8,13.2,8.8
		c1.9,0,3.9-0.4,5.7-1.2C570.7,488.5,573.9,480.1,570.8,472.7z"/>
	<path fill="#EC1C24" d="M633.1,422.9c-5.7-5.6-14.9-5.4-20.5,0.4c-5.6,5.7-5.4,14.9,0.4,20.5c2.8,2.7,6.4,4.1,10.1,4.1
		c3.7,0,7.5-1.4,10.4-4.3C639,437.5,638.9,428.4,633.1,422.9z"/>
	<path fill="#EC1C24" d="M695.2,288.2c-0.1-8-6.7-14.6-14.6-14.4c-8,0.1-14.4,6.8-14.2,14.7c0.1,8,6.5,14.5,14.4,14.5h0.2
		C688.9,303.1,695.3,296.2,695.2,288.2z"/>
	<path fill="#EC1C24" d="M608.9,155.1c2.8,2.7,6.4,4.1,10.1,4.1c3.7,0,7.5-1.5,10.4-4.3c5.6-5.7,5.4-14.9-0.4-20.5
		s-14.9-5.4-20.4,0.2C603.1,140.4,603.2,149.5,608.9,155.1z"/>
	<path fill="#EC1C24" d="M281.5,229.3c1.8,0.7,3.5,1.1,5.3,1.1c5.7,0,11.2-3.5,13.5-9.1c2.9-7.4-0.7-15.8-8.1-18.7
		c-7.4-2.9-15.8,0.7-18.7,8.1C270.5,217.9,274,226.4,281.5,229.3z"/>
	<path fill="#EC1C24" d="M382.3,109.5c2.3,5.4,7.7,8.7,13.2,8.7c1.9,0,3.9-0.4,5.7-1.2c7.4-3.2,10.6-11.7,7.5-18.9
		c-3.2-7.4-11.7-10.6-19.1-7.5C382.5,93.6,379.2,102.1,382.3,109.5z"/>
	<path fill="#EC1C24" d="M546.8,114.8c1.8,0.7,3.5,1.1,5.4,1.1c5.7,0,11.1-3.4,13.5-9.1c2.9-7.4-0.7-15.8-8.1-18.7
		c-7.4-2.9-15.8,0.7-18.7,8.1C535.8,103.4,539.4,111.9,546.8,114.8z"/>
	<path fill="#EC1C24" d="M344.6,427.2c-5.7-5.6-14.9-5.4-20.5,0.4c-5.5,5.7-5.4,14.9,0.4,20.5c2.8,2.7,6.4,4.1,10.1,4.1
		c3.7,0,7.5-1.5,10.4-4.4C350.4,441.8,350.3,432.7,344.6,427.2z"/>
	<path fill="#EC1C24" d="M340.5,159.1c5.6-5.7,5.4-14.9-0.4-20.5c-5.7-5.6-14.9-5.4-20.5,0.4c-5.6,5.7-5.4,14.9,0.4,20.4
		c2.8,2.7,6.4,4.1,10.1,4.1C333.8,163.4,337.7,162,340.5,159.1z"/>
	<path fill="#EC1C24" d="M289.2,386.5c1.9,0,3.9-0.4,5.7-1.2c7.3-3.2,10.6-11.7,7.5-18.9c-3.2-7.4-11.7-10.6-18.9-7.5
		c-7.4,3.2-10.6,11.7-7.5,18.9C278.4,383.2,283.6,386.5,289.2,386.5z"/>
	<path fill="#EC1C24" d="M473.3,101.3h0.2h0.2c0.1,0,0.1-0.2,0.2-0.2c8-0.1,14.4-6.9,14.3-14.9c-0.1-8-6.7-14.9-14.6-14.9h-0.2h-0.2
		c-8,0-14.4,7.3-14.2,15.2C459.1,94.5,465.5,101.3,473.3,101.3z"/>
	<path fill="#EC1C24" d="M406.7,467.3c-7.4-2.9-15.8,0.7-18.7,8.1c-2.9,7.4,0.7,15.8,8.1,18.7c1.8,0.7,3.5,1.1,5.3,1.1
		c5.7,0,11.2-3.4,13.5-9.1C417.7,478.7,414,470.3,406.7,467.3z"/>
	<path fill="#EC1C24" d="M479.5,480.9c-8,0.1-14.4,6.9-14.3,14.9c0.1,8,6.5,14.6,14.4,14.6h0.2c8,0,14.3-7,14.2-15
		C494,487.4,487.5,480.8,479.5,480.9z"/>
	<path fill="#EC1C24" d="M658.4,197c-7.4,3.2-10.6,11.6-7.5,18.9c2.3,5.5,7.7,8.8,13.2,8.8c1.9,0,3.9-0.4,5.7-1.2
		c7.4-3.2,10.6-11.7,7.5-18.9C674.3,197.2,665.8,193.8,658.4,197z"/>
	<path fill="#EC1C24" d="M287,294c-0.1-8-6.7-14.3-14.6-14.2c-8,0.1-14.3,6.7-14.3,14.6c0.1,7.8,6.6,14.2,14.5,14.2h0.2
		C280.8,308.6,287.1,301.9,287,294z"/>
	<path fill="#EC1C24" d="M437.6,40c0.9,0,1.9-0.1,2.8-0.2c11-1.5,18.5-11.7,17-22.6c-1.5-10.9-11.7-18.5-22.6-17
		c-11,1.5-18.6,11.7-17,22.6C419.2,32.8,427.7,40,437.6,40z"/>
	<path fill="#EC1C24" d="M512.6,39.8c0.9,0.1,1.9,0.2,2.8,0.2c9.8,0,18.4-7.1,19.8-17.1c1.5-10.9-6.1-22.5-17-22.5l0,0
		c-11-2.7-21.1,5.8-22.7,16.8C494.2,28.2,501.8,38.2,512.6,39.8z"/>
	<path fill="#EC1C24" d="M513.2,542.3c-11,1.6-18.5,11.7-17,22.6c1.4,9.9,10.1,17.2,19.8,17.2c0.9,0,1.9-0.1,2.9-0.2
		c10.9-1.5,18.5-11.7,17-22.6C534.3,548.2,524.1,540.6,513.2,542.3z"/>
	<path fill="#EC1C24" d="M282.6,485.2c-7.3,8.3-6.3,20.9,2.1,28.2c3.7,3.3,8.4,4.9,13.1,4.9c5.6,0,11.2-2.3,15.1-6.9
		c7.3-8.3,6.3-20.9-2-28.2C302.3,476,289.8,476.9,282.6,485.2z"/>
	<path fill="#EC1C24" d="M582.5,521.8c-10.1,4.6-14.4,16.5-9.8,26.6c3.4,7.4,10.6,11.7,18.1,11.7c2.8,0,5.6-0.6,8.3-1.9
		c10.1-4.6,14.4-16.5,9.8-26.6C604.3,521.6,592.5,517.3,582.5,521.8z"/>
	<path fill="#EC1C24" d="M440.9,543L440.9,543c-11-2.7-21.1,5.7-22.6,16.7c-1.5,10.9,6.1,20.7,17.1,22.2c0.9,0.1,1.9,0.4,2.8,0.4
		c9.8,0,18.4-7,19.8-17.1C459.4,554.3,451.8,543,440.9,543z"/>
	<path fill="#EC1C24" d="M371.6,522.2c-10.1-4.6-21.9-0.1-26.4,9.9c-4.6,10.1-0.1,21.9,9.9,26.4c2.7,1.2,5.5,1.8,8.3,1.8
		c7.6,0,14.9-4.3,18.1-11.7C386.1,538.5,381.6,526.7,371.6,522.2z"/>
	<path fill="#EC1C24" d="M745.2,349.2c-10.6-3.2-21.8,3-24.8,14l0,0c-3,10.9,3,21.3,13.6,24.3c1.9,0.6,3.7,0.7,5.6,0.7
		c8.7,0,16.6-5.7,19.2-14.5C761.9,363.1,755.8,352.2,745.2,349.2z"/>
	<path fill="#EC1C24" d="M750.6,270.8c-11,0-20,9-20,20s9,20,20,20c11,0,20-9,20-20C770.6,279.7,761.5,270.8,750.6,270.8z"/>
	<path fill="#EC1C24" d="M718,421.9c-9.2-6-21.6-3.3-27.6,6c-6,9.2-3.3,21.6,6.1,27.6c3.3,2.1,7.1,3.2,10.8,3.2
		c6.6,0,13-3.3,16.8-9.2C730.1,440.3,727.4,427.9,718,421.9z"/>
	<path fill="#EC1C24" d="M720.3,219.2c2.6,8.8,10.3,14.4,18.9,14.4c1.9,0,3.5-0.2,5.4-0.8c10.6-3.2,13-14.3,13-24.8l0,0
		c-2.7-10.5-13.7-16.6-24.3-13.6C722.7,197.6,717.1,208.7,720.3,219.2z"/>
	<path fill="#EC1C24" d="M643.2,482.6c-8.3,7.3-9.2,19.9-2,28.2c4,4.6,9.5,6.9,15.1,6.9c4.7,0,9.4-1.6,13.1-4.9
		c8.3-7.3,9.2-19.9,2-28.2C664.1,476.3,651.5,475.4,643.2,482.6z"/>
	<path fill="#EC1C24" d="M582,60c2.7,1.2,5.5,1.8,8.3,1.8c7.6,0,14.9-4.3,18.2-11.7c4.6-10.1,0.1-21.9-9.9-26.6
		c-10.1-4.6-21.9-0.1-26.4,9.9C567.5,43.5,571.9,55.5,582,60z"/>
	<path fill="#EC1C24" d="M362.8,61.9c2.8,0,5.6-0.6,8.3-1.9c10.1-4.6,14.5-16.5,9.8-26.6c-4.6-10.1-16.5-14.5-26.4-9.8
		c-10.1,4.6-14.5,16.5-9.8,26.6C348,57.6,355.2,61.9,362.8,61.9z"/>
	<path fill="#EC1C24" d="M297.2,104.1c4.7,0,9.4-1.6,13.1-4.9c8.3-7.3,9.2-19.9,2-28.2c-7.3-8.3-19.9-9.2-28.2-2
		c-8.3,7.3-9.2,19.9-2,28.2C286.1,101.8,291.7,104.1,297.2,104.1z"/>
	<path fill="#EC1C24" d="M235.7,422.7c-9.2,6-11.9,18.4-6,27.6c3.9,6,10.3,9.1,16.8,9.1c3.7,0,7.5-1.1,10.9-3.2
		c9.2-6,11.9-18.4,6-27.6C257.3,419.4,244.9,416.8,235.7,422.7z"/>
	<path fill="#EC1C24" d="M707,162.8c3.7,0,7.5-1.1,10.9-3.3c9.2-6,11.9-18.4,6-27.6c-6-9.2-18.4-11.9-27.6-6
		c-9.2,6-11.9,18.4-6,27.6C693.9,159.6,700.4,162.8,707,162.8z"/>
	<path fill="#EC1C24" d="M655.8,104c5.6,0,11.1-2.3,15.1-6.9c7.3-8.3,6.3-20.9-2-28.2c-8.3-7.3-20.9-6.3-28.2,2
		c-7.3,8.4-6.3,20.9,2,28.2C646.6,102.4,651.2,104,655.8,104z"/>
	<path fill="#EC1C24" d="M233.1,363.1c-3.2-10.6-14.3-16.6-24.8-13.6c-10.5,3.2-16.6,14.3-13.5,24.8c2.6,8.7,10.5,14.4,19.2,14.4
		c1.9,0,3.7-0.2,5.6-0.8C230.2,384.7,236.3,373.6,233.1,363.1z"/>
	<path fill="#EC1C24" d="M202.8,311.3c11,0,20.2-8.7,20.2-19.8v-0.2V291c0-11-9.4-20-20.5-20c-11,0-20.5,9-20.5,20v0.4v0.4
		C182.1,302.7,191.8,311.3,202.8,311.3L202.8,311.3z"/>
	<path fill="#EC1C24" d="M208.2,233c1.9,0.6,3.7,0.8,5.6,0.8c8.7,0,16.6-5.6,19.2-14.4c3.2-10.6-2.9-21.8-13.6-24.8
		c-10.5-3.2-21.8,2.9-24.8,13.6C191.5,218.9,197.5,230,208.2,233z"/>
	<path fill="#EC1C24" d="M240.9,162.1c1.9,0.6,3.7,0.8,5.6,0.8c8.7,0,16.6-5.6,19.2-14.4c3.2-10.6-2.9-21.8-13.6-24.8
		c-10.5-3.2-21.8,2.9-24.8,13.6C224.2,148,230.3,159.1,240.9,162.1z"/>
</g>
</svg>
