<?xml version="1.0" encoding="utf-8"?>
<!-- Generator: Adobe Illustrator 18.1.1, SVG Export Plug-In . SVG Version: 6.00 Build 0)  -->
<svg version="1.1" id="Layer_1" xmlns="http://www.w3.org/2000/svg" xmlns:xlink="http://www.w3.org/1999/xlink" x="0px" y="0px"
	 viewBox="16.8 607.1 1107.1 486.6" enable-background="new 16.8 607.1 1107.1 486.6" xml:space="preserve">
<g>
	<path fill="#FFFFFF" d="M1071.8,761.6L1071.8,761.6L1071.8,761.6L1071.8,761.6L1071.8,761.6z"/>
	<path fill="#FFFFFF" d="M980.5,725.8c0,0.9,0,2.6,0,3.4c-1.7,10.2-8.5,17.9-17.9,22.2c-2.6,0.9-3.4,3.4-2.6,6
		c0.9,2.6,3.4,4.3,6,3.4c0,0-0.9,0-1.7,0c16.2,0.9,31.6-5.1,42.7-17.1c1.7-1.7,1.7-5.1,0-6.8c-1.7-1.7-5.1-1.7-6.8,0
		c-4.3,5.1-11.1,8.5-17.1,11.1c4.3-5.1,6.8-11.1,7.7-17.9c0-3.4,0.9-6.8,0-9.4c0-2.6-2.6-4.3-5.1-4.3l0,0h-0.9
		c-34.2-1.7-60.6-23.9-60.6-49.5c0-27.3,29.9-49.5,65.7-49.5c26.5,0,51.2,12,60.6,30.7c0.9,2.6,4.3,3.4,6.8,1.7s3.4-4.3,1.7-6.8l0,0
		c-12-21.3-39.3-35.9-70-35.9c-41.8,0-76,26.5-76,59.8C912.2,697.6,942,723.2,980.5,725.8z"/>
	<path fill="#FFFFFF" d="M997.5,701c0,18.8,17.1,34.2,40.1,38.4c6,13.7,19.6,24.8,35,21.3l0,0l0,0l0,0c0.9,0,2.6,0,2.6-0.9
		c0.9-1.7,0-3.4-1.7-4.3c0,0-0.9,0-1.7,0c0,0,0.9,0,1.7,0c-6.8-2.6-11.1-8.5-12-15.4l0,0c22.2-4.3,39.3-20.5,39.3-38.4l0,0
		c0-22.2-23.1-40.1-52.1-40.1C1020.6,660.9,997.5,678.8,997.5,701z M1071.8,761.6L1071.8,761.6L1071.8,761.6L1071.8,761.6
		L1071.8,761.6z"/>
	<path fill="#FFFFFF" d="M107.1,835c-21.3-8.5-31.6-14.5-31.6-17.1c0-6,4.3-8.5,12-8.5s12,5.1,12.8,12.8h38.4
		c-0.9-27.3-17.9-42.7-51.2-42.7c-34.2,0-51.2,14.5-51.2,44.4c0,17.1,10.2,29.9,30.7,38.4c21.3,8.5,31.6,14.5,31.6,18.8
		c0,6-4.3,8.5-12.8,8.5c-7.7,0-11.1-4.3-11.1-13.7v-2.6H32.8c1.7,30.7,19.6,47,53.8,47c35.9,0,53.8-14.5,53.8-44.4
		C140.4,856.4,128.4,843.6,107.1,835z"/>
	<polygon fill="#FFFFFF" points="227.5,870 204.4,783.8 153.2,783.8 201.8,919.6 134.4,1093.7 183.9,1093.7 300,783.8 250.5,783.8 	
		"/>
	<path fill="#FFFFFF" d="M385.4,835c-21.3-8.5-31.6-14.5-31.6-17.1c0-6,4.3-8.5,12-8.5s12,5.1,12.8,12.8h37.6
		c-0.9-27.3-17.9-42.7-51.2-42.7c-34.2,0-51.2,14.5-51.2,43.5c0,17.1,10.2,29.9,30.7,38.4C365.8,870,376,876,376,880.3
		c0,6-3.4,8.5-12,8.5c-7.7,0-11.1-4.3-11.1-13.7v-2.6h-42.7c2.6,30.7,20.5,47.8,54.6,47.8c35.9,0,53.8-14.5,53.8-44.4
		C418.7,856.4,407.6,843.6,385.4,835z"/>
	<path fill="#FFFFFF" d="M513.5,779.5c-23.9,0-41.8,6.8-54.6,21.3C446,813.7,440,830.8,440,849.5s6,35.9,18.8,50.4
		c12.8,14.5,30.7,21.3,54.6,21.3c23.1,0,41-6.8,53.8-21.3c12.8-14.5,18.8-30.7,18.8-50.4s-6-35.9-18.8-48.7
		C553.6,786.4,535.7,779.5,513.5,779.5z M513.5,882c-17.1,0-25.6-11.1-25.6-32.4s8.5-31.6,25.6-31.6c17.1,0,25.6,10.2,25.6,31.6
		S530.5,882,513.5,882z"/>
	<path fill="#FFFFFF" d="M773,780.4c-17.9,0-31.6,6-41.8,18.8c-9.4-12.8-21.3-18.8-36.7-18.8s-27.3,6.8-38.4,20.5v-17.1h-47v131.5
		h47v-73.4c0-16.2,6.8-23.9,17.1-23.9c11.1,0,17.1,6.8,17.1,20.5v77.7h47v-73.4c0-16.2,4.3-23.9,15.4-23.9
		c11.1,0,15.4,6.8,15.4,20.5V917h47v-91.4C814.8,795.8,802,780.4,773,780.4z"/>
	<path fill="#FFFFFF" d="M913,779.5c-23.9,0-41.8,6.8-54.6,21.3c-12.8,12.8-18.8,29.9-18.8,48.7s6,35.9,18.8,50.4
		c12.8,14.5,30.7,21.3,54.6,21.3c23.1,0,41-6.8,53.8-21.3c12.8-14.5,18.8-30.7,18.8-50.4s-6-35.9-18.8-48.7
		C954,786.4,936.1,779.5,913,779.5z M913,882c-17.1,0-25.6-11.1-25.6-32.4S895.9,818,913,818c17.1,0,25.6,10.2,25.6,31.6
		S930.1,882,913,882z"/>
	<path fill="#FFFFFF" d="M1078.6,835c-21.3-8.5-31.6-14.5-31.6-17.1c0-6,4.3-8.5,12-8.5s12,5.1,12.8,12.8h38.4
		c-0.9-27.3-17.9-42.7-51.2-42.7c-34.2,0-51.2,14.5-51.2,43.5c0,17.1,10.2,29.9,30.7,38.4c21.3,8.5,31.6,14.5,31.6,18.8
		c0,6-5.1,8.5-13.7,8.5c-7.7,0-12-4.3-12-13.7v-2.6h-39.3c1.7,30.7,19.6,47,53.8,47c35.9,0,53.8-14.5,53.8-44.4
		C1111.9,856.4,1100.8,843.6,1078.6,835z"/>
</g>
</svg>
