<?xml version="1.0" encoding="utf-8"?>
<!-- Generator: Adobe Illustrator 18.1.1, SVG Export Plug-In . SVG Version: 6.00 Build 0)  -->
<svg version="1.1" id="Layer_1" xmlns="http://www.w3.org/2000/svg" xmlns:xlink="http://www.w3.org/1999/xlink" x="0px" y="0px"
	 viewBox="0 0 854.9 820.2" enable-background="new 0 0 854.9 820.2" xml:space="preserve">
<g>
	<path fill="#404040" d="M755.8,368.4l-5.9-9.1l-1.2,1.8C751.1,363.4,753.5,365.9,755.8,368.4z"/>
	<path fill="#404040" d="M276.6,514c0,0.4,0.1,0.8,0.1,1.2c0.1,0,0.1-0.1,0.2-0.1L276.6,514z"/>
	<path fill="#404040" d="M654.9,517.1c0,0.1,0.1,0.1,0.2,0.2l-0.1-0.8l-0.2,0L654.9,517.1z"/>
	<path fill="#404040" d="M604.4,523.6l-0.1-0.2l-2.3,0.2l0.9,3.3C603.4,525.7,603.9,524.7,604.4,523.6z"/>
	<polygon fill="#404040" points="591.7,486.7 601.5,521.6 603.8,521.4 596.1,489.4 	"/>
	<polygon fill="#404040" points="580.3,538.1 580.9,538.6 580.7,537.9 	"/>
	<path fill="#404040" d="M562.2,286.6l-1.4-0.3c0.2,0.2,0.4,0.5,0.5,0.7C561.6,286.9,561.9,286.8,562.2,286.6z"/>
	<path fill="#404040" d="M658.8,564l0.1-1.8l-0.3,0.3c-0.4,0.8-0.8,1.6-1.2,2.3L658.8,564z"/>
	<path fill="#404040" d="M86.1,688.1l0.4-1.1l-0.5,1C86,688.1,86.1,688.1,86.1,688.1z"/>
	<path fill="#404040" d="M555.1,758.9l0.5-1.5l-0.8,1.4C554.9,758.8,555,758.8,555.1,758.9z"/>
	<path fill="#404040" d="M155.4,520.5l-0.1-0.6l-0.3,0C155.2,520.1,155.3,520.3,155.4,520.5z"/>
	<path fill="#404040" d="M255.4,560.2c0-0.4,0.1-0.8,0.1-1.2c-0.3,0.3-0.6,0.6-0.8,0.9L255.4,560.2z"/>
	<path fill="#404040" d="M303.6,571.4c0.4,0.1,0.8,0.1,1.3,0c-1.9-0.8-3.5-1.6-4.8-2.5c0,0,0,0,0,0
		C301,570.3,302.2,571.1,303.6,571.4z"/>
	<path fill="#404040" d="M313.1,523.7l0.2,1.4l0.6-1.1C313.7,523.8,313.4,523.8,313.1,523.7z"/>
	<path fill="#404040" d="M0,545.5c0,1.7,1,3.1,2.4,3.7c0,0.9,0.1,1.7,0.1,2.6c-1.3,0.8-2.2,2.4-2.1,4.1c0.1,1.7,1.1,3,2.5,3.5
		c0.1,0.9,0.1,1.8,0.2,2.6c-1.3,0.9-2.1,2.5-2,4.2c0.1,1.7,1.2,2.9,2.6,3.3c0.1,0.9,0.2,1.8,0.3,2.6c-1.3,1-2,2.7-1.8,4.3
		c0.2,1.6,1.3,2.8,2.7,3.1c0.1,0.9,0.3,1.7,0.4,2.6c-1.2,1.1-1.9,2.8-1.6,4.5c0.3,1.7,1.4,2.7,2.9,2.9c0.2,0.8,0.3,1.7,0.5,2.6
		c-1.2,1.2-1.8,3-1.4,4.6c0.3,1.6,1.5,2.6,3,2.6c0.2,0.9,0.4,1.7,0.6,2.5c-1.1,1.3-1.7,3.1-1.3,4.6c0.4,1.6,1.6,2.5,3.1,2.4
		c0.2,0.8,0.4,1.6,0.7,2.5c-1.1,1.4-1.6,3.2-1.1,4.8c0.4,1.5,1.7,2.3,3.1,2.2c0.2,0.8,0.5,1.6,0.8,2.4c-1,1.4-1.5,3.3-0.9,4.9
		c0.5,1.5,1.8,2.2,3.2,1.9c0.3,0.8,0.6,1.6,0.9,2.3c-1,1.5-1.3,3.4-0.8,4.9c0.6,1.5,1.9,2.1,3.3,1.7c0.3,0.7,0.6,1.5,0.9,2.2
		c-0.9,1.6-1.2,3.5-0.6,5c0.6,1.4,2,1.9,3.4,1.4c0.3,0.7,0.7,1.5,1,2.2c-0.9,1.6-1.1,3.6-0.4,5c0.7,1.4,2.1,1.8,3.4,1.2
		c0.4,0.7,0.7,1.4,1.1,2.1c-0.8,1.7-1,3.7-0.2,5c0.7,1.3,2.1,1.7,3.5,1c0.4,0.7,0.8,1.3,1.2,2c-0.7,1.8-0.8,3.8,0,5
		c0.8,1.3,2.2,1.5,3.5,0.7c0.4,0.6,0.8,1.3,1.2,1.9c-0.7,1.8-0.7,3.8,0.1,5c0.8,1.2,2.2,1.3,3.5,0.4c0.4,0.6,0.9,1.2,1.3,1.8
		c-0.6,1.9-0.5,3.9,0.3,5c0.9,1.1,2.3,1.1,3.5,0.1c0.5,0.6,0.9,1.2,1.4,1.7c-0.5,1.9-0.4,3.9,0.5,5c0.9,1.1,2.3,1,3.5-0.1
		c0.5,0.6,1,1.1,1.4,1.6c-0.5,1.9-0.2,3.9,0.7,4.9c1,1,2.3,0.8,3.5-0.4c0.5,0.5,1,1,1.5,1.5c-0.4,2-0.1,3.9,0.9,4.8
		c1,0.9,2.4,0.6,3.5-0.6c0.5,0.5,1,1,1.6,1.4c-0.3,2,0.1,3.9,1,4.8c1,0.9,2.4,0.4,3.5-0.9c0.5,0.4,1.1,0.9,1.6,1.3
		c-0.2,2,0.2,3.9,1.2,4.6c1,0.8,2.4,0.3,3.4-1.1c0.6,0.4,1.1,0.8,1.7,1.2c-0.2,2,0.3,3.8,1.4,4.5c1.1,0.7,2.4,0.1,3.4-1.4
		c0.6,0.4,1.1,0.7,1.7,1.1c-0.1,2,0.5,3.8,1.6,4.4c1.1,0.6,2.4-0.1,3.3-1.6c0.6,0.3,1.2,0.6,1.7,0.9c0,2,0.6,3.8,1.7,4.3
		c1.1,0.5,2.4-0.3,3.3-1.9c0.6,0.3,1.2,0.5,1.8,0.8c0.1,2,0.8,3.7,1.9,4.2c1.2,0.5,2.4-0.5,3.2-2.1c0.6,0.2,1.2,0.4,1.8,0.7
		c0.1,2,0.9,3.6,2,4c1.2,0.4,2.4-0.6,3.2-2.4c0.6,0.2,1.2,0.4,1.8,0.5c0.2,2,1,3.6,2.2,3.9c1.2,0.3,2.4-0.8,3.1-2.6
		c0.6,0.1,1.2,0.3,1.8,0.4c0.3,2,1.2,3.5,2.3,3.7c1.2,0.2,2.3-1,3-2.8c0.6,0.1,1.2,0.2,1.8,0.2c0.3,2,1.3,3.4,2.5,3.6
		c1.2,0.1,2.3-1.2,2.9-3.1c0.6,0,1.2,0.1,1.8,0.1c0.4,2,1.4,3.3,2.6,3.4c1.2,0,2.3-1.3,2.7-3.2c0.6,0,1.2,0,1.9,0
		c0.5,1.9,1.5,3.2,2.7,3.2c1.2-0.1,2.2-1.5,2.6-3.4c0.6,0,1.2-0.1,1.9-0.2c0.6,1.9,1.7,3.1,2.9,2.9c1.2-0.1,2.1-1.6,2.5-3.6
		c0.6-0.1,1.2-0.2,1.9-0.3c0.6,1.8,1.8,3,2.9,2.7c1.2-0.3,2.1-1.8,2.4-3.8c0.6-0.2,1.2-0.3,1.8-0.5c0.7,1.8,1.9,2.8,3,2.5
		c1.2-0.3,2-1.9,2.2-3.9c0.6-0.2,1.2-0.4,1.8-0.6c0.8,1.7,2,2.7,3.1,2.3c1.2-0.4,1.9-2.1,2.1-4.1c0.6-0.2,1.2-0.5,1.8-0.7
		c0.8,1.6,2.1,2.5,3.2,2c1.2-0.5,1.9-2.2,1.9-4.2c0.6-0.3,1.2-0.6,1.8-0.9c0.9,1.6,2.2,2.3,3.3,1.8c1.1-0.6,1.8-2.3,1.8-4.4
		c0.6-0.3,1.2-0.6,1.8-1c0.9,1.5,2.2,2.2,3.3,1.5c1.1-0.7,1.7-2.5,1.6-4.5c0.6-0.4,1.1-0.7,1.7-1.1c1,1.5,2.3,2,3.4,1.3
		c1.1-0.7,1.6-2.6,1.4-4.6c0.6-0.4,1.1-0.8,1.7-1.3c1.1,1.4,2.4,1.9,3.4,1c1.1-0.8,1.5-2.7,1.2-4.7c0.5-0.5,1.1-0.9,1.6-1.3
		c1.1,1.3,2.5,1.7,3.5,0.8c1-0.9,1.4-2.8,1.1-4.8c0.5-0.5,1-1,1.6-1.5c1.2,1.2,2.5,1.5,3.5,0.5c1-1,1.3-2.9,0.9-4.9
		c0.5-0.5,1-1.1,1.5-1.6c1.2,1.1,2.6,1.3,3.5,0.2c0.9-1.1,1.2-3,0.7-5c0.5-0.5,1-1.1,1.4-1.7c1.2,1,2.6,1.1,3.6,0
		c0.9-1.1,1.1-3.1,0.5-5c0.5-0.6,0.9-1.2,1.4-1.8c1.3,0.9,2.7,0.9,3.6-0.3c0.9-1.2,1-3.2,0.3-5c0.4-0.6,0.9-1.3,1.3-1.9
		c1.3,0.9,2.7,0.7,3.5-0.5c0.8-1.2,0.9-3.2,0.2-5c0.4-0.7,0.8-1.3,1.2-2c1.3,0.7,2.7,0.5,3.5-0.8c0.8-1.3,0.7-3.3,0-5
		c0.4-0.7,0.8-1.4,1.2-2.1c1.4,0.6,2.7,0.3,3.5-1.1c0.7-1.3,0.6-3.3-0.2-5c0.4-0.7,0.7-1.4,1.1-2.2c1.4,0.6,2.7,0.1,3.4-1.3
		c0.7-1.4,0.5-3.4-0.4-5c0.3-0.7,0.7-1.5,1-2.2c1.4,0.4,2.7-0.1,3.4-1.6c0.6-1.4,0.4-3.4-0.6-4.9c0.3-0.8,0.6-1.6,0.9-2.3
		c0.6,0.1,1.2,0.1,1.7-0.1c-0.1,0.4,0,0.8,0.2,1l1.5,1.4c0.3,0.3,0.8,0.2,1-0.3l0.7-1.4c0.3,0.2,0.6,0.5,0.8,0.7l-0.7,1.5
		c-0.2,0.5-0.1,1.1,0.2,1.3l1.6,1.2c0.3,0.3,0.8,0.1,1-0.4l0.7-1.5c0.3,0.2,0.6,0.4,0.9,0.6l-0.6,1.5c-0.2,0.5-0.1,1,0.3,1.3l1.7,1
		c0.3,0.2,0.8,0,1-0.5l0.6-1.5c0.3,0.2,0.6,0.3,0.9,0.5l-0.5,1.6c-0.2,0.5,0,1,0.4,1.2l1.7,0.8c0.4,0.2,0.8-0.1,0.9-0.6l0.5-1.6
		c0.3,0.1,0.7,0.2,1,0.4l-0.4,1.6c-0.1,0.5,0.1,1.1,0.5,1.2l1.8,0.6c0.4,0.1,0.8-0.2,0.9-0.7l0.4-1.6c0.3,0.1,0.7,0.2,1,0.2
		l-0.3,1.7c-0.1,0.5,0.2,1,0.5,1.1l1.8,0.4c0.4,0.1,0.8-0.3,0.9-0.8l0.3-1.7c0.3,0,0.7,0.1,1,0.1l-0.2,1.7c-0.1,0.5,0.2,1,0.6,1
		l1.9,0.1c0.4,0,0.8-0.4,0.8-0.9l0.2-1.7c0.3,0,0.7,0,1,0l-0.1,1.7c0,0.5,0.3,0.9,0.7,0.9l1.9-0.1c0.4,0,0.7-0.4,0.8-1l0.1-1.7
		c0.3,0,0.7-0.1,1-0.1l0.1,1.7c0,0.5,0.4,0.9,0.7,0.8l1.9-0.3c0.1,0,0.2-0.1,0.3-0.1c1.2,9.6,2.3,18.4,3.1,25.2l-9.4-1.8
		c-1.4-0.3-2.7,1-3,2.8l-0.1,0.4c-0.3,1.8,0.5,3.4,1.8,3.8l-1.3,7.9c-1.3-0.2-2.6,1.1-2.9,2.9l-0.1,0.4c-0.3,1.8,0.6,3.5,1.9,3.8
		l28.5,5.5c1.4,0.3,2.7-1,3-2.9l0.1-0.4c0.3-1.8-0.6-3.6-1.9-3.8l1.3-7.8c1.4,0.3,2.7-1,3-2.9l0.1-0.4c0.3-1.8-0.6-3.5-1.9-3.8
		l-11-2.1c-0.8-7-2-17.4-3.4-29l0.8-0.3c0.4-0.2,0.6-0.7,0.5-1.2l-0.3-1.6c0.3-0.2,0.7-0.3,1-0.4l0.4,1.5c0.1,0.5,0.5,0.7,0.9,0.5
		l1.8-0.9c0.4-0.2,0.6-0.8,0.5-1.3l-0.4-1.6c0.3-0.2,0.7-0.4,1-0.6l0.5,1.5c0.2,0.5,0.6,0.7,0.9,0.4l1.7-1.1
		c0.4-0.2,0.5-0.8,0.4-1.3l-0.5-1.5c0.3-0.2,0.6-0.5,0.9-0.7l0.6,1.4c0.2,0.5,0.6,0.6,1,0.3l1.7-1.3c0.4-0.3,0.5-0.9,0.3-1.3
		l-0.6-1.4c0.3-0.3,0.6-0.5,0.9-0.8l0.7,1.3c0.2,0.4,0.7,0.5,1,0.2l1.6-1.5c0.3-0.3,0.4-0.9,0.2-1.3l-0.7-1.3
		c0.3-0.3,0.6-0.6,0.8-0.9l0.8,1.2c0.2,0.4,0.7,0.4,1,0.1l1.5-1.7c0.3-0.4,0.4-1,0.1-1.4l-0.8-1.2c0.3-0.3,0.5-0.6,0.8-0.9l0.8,1.1
		c0.3,0.4,0.7,0.3,1-0.1l1.4-1.8c0.3-0.4,0.3-1,0-1.4l-0.8-1.1c0.2-0.3,0.5-0.7,0.7-1l0.9,1c0.3,0.3,0.8,0.3,1-0.2l1.3-2
		c0.3-0.4,0.2-1,0-1.3l-0.9-1c0.2-0.4,0.4-0.7,0.6-1.1l1,0.9c0.3,0.3,0.8,0.2,1-0.3l1.1-2.1c0.3-0.4,0.2-1-0.1-1.3l-1-0.9
		c0.2-0.4,0.4-0.8,0.6-1.2l1.1,0.8c0.3,0.3,0.8,0.1,1-0.4l1-2.2c0.2-0.5,0.1-1.1-0.2-1.3l-1-0.8c0.2-0.4,0.4-0.8,0.5-1.2l1.1,0.6
		c0.3,0.2,0.8,0,1-0.5l0.9-2.3c0.2-0.5,0-1-0.3-1.3l-1.1-0.7c0.1-0.4,0.3-0.9,0.4-1.3l1.1,0.5c0.4,0.2,0.8-0.1,0.9-0.6l0.7-2.4
		c0.1-0.5,0-1-0.4-1.2l-1.2-0.5c0.1-0.4,0.2-0.9,0.3-1.3l1.2,0.4c0.4,0.1,0.8-0.2,0.9-0.7l0.6-2.4c0.1-0.5-0.1-1-0.5-1.2l-1.2-0.4
		c0.1-0.4,0.2-0.9,0.2-1.3l1.2,0.3c0.4,0.1,0.8-0.3,0.9-0.8l0.4-2.5c0.1-0.5-0.2-1-0.5-1.1l-1.2-0.2c0.1-0.5,0.1-0.9,0.2-1.4
		l1.2,0.1c0.4,0,0.7-0.4,0.8-0.9l0.2-2.5c0.1-0.5-0.2-1-0.6-1l-1.2-0.1c0-0.5,0.1-0.9,0.1-1.4l1.2,0c0.4,0,0.7-0.5,0.8-1l0.1-2.5
		c0-0.5-0.3-0.9-0.7-0.9l-1.2,0.1c0-0.5,0-0.9,0-1.4l1.2-0.2c0.4-0.1,0.7-0.6,0.7-1.1l-0.1-2.5c0-0.5-0.4-0.9-0.7-0.8l-1.2,0.2
		c0-0.4-0.1-0.9-0.1-1.3l1.2-0.3c0.4-0.1,0.7-0.6,0.6-1.2l-0.2-2.5c-0.1-0.5-0.4-0.8-0.8-0.7l-1.2,0.3c-0.1-0.4-0.1-0.9-0.2-1.3
		l1.2-0.5c0.4-0.2,0.6-0.7,0.5-1.2l-0.4-2.4c-0.1-0.5-0.5-0.8-0.9-0.6l-1.2,0.5c-0.1-0.4-0.2-0.9-0.3-1.3l1.2-0.6
		c0.4-0.2,0.6-0.8,0.5-1.3l-0.6-2.3c-0.1-0.5-0.5-0.7-0.9-0.5l-1.2,0.6c-0.1-0.4-0.2-0.8-0.4-1.3l1.1-0.7c0.4-0.2,0.5-0.8,0.4-1.3
		l-0.7-2.3c-0.1-0.5-0.6-0.6-0.9-0.4l-1.1,0.8c-0.1-0.4-0.3-0.8-0.4-1.2l1.1-0.9c0.4-0.3,0.5-0.9,0.3-1.3l-0.9-2.1
		c-0.2-0.4-0.6-0.6-1-0.3l-1.1,0.9c0-0.1-0.1-0.2-0.1-0.3l164.4-270.9c1.2,5.2,2.1,8.3,2.1,8.3s1.1,0,2.9-0.1l9.7,34.2
		c-0.6,0-1.3,0.3-1.8,0.7c-1.6,1.3-2.2,4-1.7,6.7c-0.8,0.7-1.7,1.4-2.5,2.1c-1.9-1.7-4.1-2-5.6-0.7c-1.6,1.4-2.1,4.1-1.4,6.8
		c-0.8,0.7-1.6,1.5-2.4,2.2c-1.9-1.6-4.1-1.8-5.7-0.3c-1.5,1.5-1.9,4.2-1.1,6.9c-0.8,0.8-1.5,1.5-2.3,2.4c-2-1.4-4.2-1.5-5.7,0.1
		c-1.5,1.6-1.7,4.3-0.8,7c-0.7,0.8-1.5,1.6-2.2,2.5c-2-1.3-4.3-1.2-5.7,0.4c-1.4,1.7-1.5,4.4-0.5,7c-0.7,0.9-1.4,1.8-2.1,2.6
		c-2.1-1.2-4.3-0.9-5.6,0.8c-1.3,1.7-1.4,4.5-0.2,7c-0.7,0.9-1.3,1.8-2,2.8c-2.2-1-4.4-0.7-5.6,1.2c-1.2,1.8-1.1,4.6,0.1,7
		c-0.6,0.9-1.2,1.9-1.9,2.9c-2.2-0.9-4.4-0.4-5.6,1.5c-1.1,1.9-0.9,4.7,0.4,7c-0.6,1-1.2,2-1.7,3c-2.2-0.7-4.4-0.1-5.5,1.9
		c-1.1,2-0.7,4.7,0.7,6.9c-0.5,1-1.1,2.1-1.6,3.1c-2.2-0.6-4.4,0.2-5.4,2.3c-1,2-0.5,4.7,0.9,6.9c-0.5,1.1-1,2.1-1.5,3.2
		c-2.3-0.4-4.4,0.5-5.3,2.6c-0.9,2.1-0.4,4.7,1.2,6.8c-0.4,1.1-0.9,2.2-1.3,3.4c-2.3-0.3-4.4,0.8-5.2,2.9c-0.8,2.1-0.1,4.7,1.5,6.7
		c-0.4,1.1-0.8,2.3-1.2,3.4c-2.3-0.1-4.3,1.1-5,3.3c-0.7,2.2,0.1,4.7,1.8,6.5c-0.4,1.2-0.7,2.3-1.1,3.5c-2.3,0-4.2,1.3-4.9,3.6
		c-0.6,2.2,0.2,4.7,2.1,6.4c-0.3,1.2-0.6,2.3-0.9,3.6c-2.3,0.2-4.2,1.6-4.7,3.9c-0.5,2.3,0.5,4.7,2.3,6.3c-0.3,1.2-0.5,2.4-0.8,3.6
		c-2.3,0.3-4.1,1.9-4.6,4.2c-0.4,2.3,0.7,4.7,2.6,6.2c-0.2,1.2-0.4,2.4-0.6,3.6c-2.3,0.4-4,2.1-4.4,4.5c-0.4,2.3,0.9,4.6,2.9,6
		c-0.1,1.2-0.3,2.4-0.5,3.6c-2.2,0.6-4,2.4-4.2,4.7c-0.2,2.4,1.1,4.6,3.2,5.8c-0.1,1.2-0.2,2.4-0.3,3.7c-2.2,0.7-3.9,2.7-4.1,5
		c-0.1,2.3,1.3,4.5,3.4,5.6c-0.1,1.2-0.1,2.4-0.2,3.6c-2.2,0.9-3.8,2.9-3.8,5.3c0,2.4,1.5,4.4,3.6,5.3c0,1.2,0,2.4,0,3.6
		c-2.2,1-3.7,3.1-3.6,5.5c0.1,2.4,1.6,4.3,3.8,5.1c0.1,1.2,0.1,2.4,0.2,3.6c-2.1,1.2-3.5,3.4-3.4,5.7c0.2,2.3,1.8,4.2,4,4.8
		c0.1,1.2,0.2,2.4,0.3,3.6c-2.1,1.3-3.4,3.6-3.1,5.9c0.2,2.3,2,4.1,4.2,4.5c0.2,1.2,0.3,2.4,0.5,3.6c-2,1.5-3.2,3.8-2.9,6.1
		c0.4,2.3,2.1,3.9,4.4,4.2c0.2,1.2,0.4,2.4,0.6,3.6c-1.9,1.5-3,4-2.6,6.3c0.5,2.3,2.3,3.7,4.6,3.9c0.3,1.2,0.5,2.4,0.8,3.6
		c-1.9,1.7-2.8,4.1-2.3,6.4c0.6,2.3,2.5,3.6,4.7,3.6c0.3,1.2,0.6,2.3,0.9,3.5c-1.8,1.8-2.7,4.3-2,6.5c0.6,2.2,2.6,3.4,4.9,3.3
		c0.3,1.2,0.7,2.3,1.1,3.5c-1.7,1.9-2.5,4.5-1.8,6.6c0.7,2.2,2.8,3.2,5,3c0.4,1.1,0.8,2.2,1.2,3.4c-1.6,2-2.3,4.6-1.5,6.7
		c0.8,2.1,2.9,3.1,5.2,2.7c0.4,1.1,0.9,2.2,1.4,3.3c-1.6,2.1-2.1,4.8-1.2,6.9c0.9,2.1,3,2.9,5.3,2.3c0.5,1,1,2.1,1.5,3.1
		c-1.5,2.2-1.9,4.9-0.9,6.9c1,2,3.2,2.7,5.4,2c0.6,1,1.1,2,1.6,3c-1.4,2.3-1.7,5-0.6,7c1.1,1.9,3.3,2.5,5.5,1.6c0.6,1,1.1,2,1.7,2.9
		c-1.3,2.4-1.5,5.2-0.4,7c1.2,1.9,3.4,2.3,5.6,1.3c0.6,0.9,1.2,1.9,1.8,2.8c-1.2,2.5-1.3,5.2,0,7c1.3,1.8,3.5,2,5.6,0.9
		c0.7,0.9,1.3,1.8,2,2.7c-1.1,2.5-1.1,5.3,0.2,7c1.3,1.7,3.6,1.8,5.7,0.5c0.7,0.9,1.4,1.7,2.1,2.5c-1,2.6-0.9,5.4,0.5,7
		c1.4,1.6,3.6,1.5,5.7,0.2c0.7,0.8,1.5,1.6,2.2,2.4c-0.9,2.7-0.6,5.4,0.8,6.9c1.5,1.5,3.7,1.3,5.7-0.2c0.8,0.8,1.5,1.5,2.3,2.2
		c-0.7,2.7-0.4,5.5,1.1,6.8c1.5,1.4,3.8,1.1,5.7-0.6c0.8,0.7,1.6,1.4,2.4,2.1c-0.6,2.7-0.1,5.4,1.4,6.7c1.6,1.3,3.8,0.8,5.6-0.9
		c0.8,0.6,1.6,1.3,2.5,2c-0.5,2.8,0.1,5.4,1.7,6.6c1.6,1.2,3.8,0.6,5.6-1.3c0.9,0.6,1.7,1.2,2.6,1.8c-0.4,2.8,0.3,5.4,2,6.5
		c1.7,1.1,3.8,0.3,5.5-1.6c0.9,0.5,1.8,1.1,2.7,1.6c-0.3,2.8,0.5,5.4,2.3,6.3c1.7,1,3.8,0.1,5.4-2c0.9,0.5,1.8,0.9,2.8,1.4
		c-0.1,2.8,0.8,5.3,2.5,6.1c1.8,0.9,3.8-0.2,5.3-2.3c0.9,0.4,1.9,0.9,2.8,1.3c0,2.8,1,5.2,2.8,6c1.8,0.8,3.8-0.4,5.2-2.7
		c0.9,0.4,1.9,0.7,2.9,1.1c0.1,2.8,1.2,5.1,3.1,5.8c1.8,0.6,3.8-0.7,5.1-3c1,0.3,1.9,0.6,2.9,0.9c0.2,2.8,1.5,5.1,3.3,5.6
		c1.9,0.5,3.8-0.9,5-3.4c1,0.2,2,0.5,2.9,0.7c0.3,2.8,1.7,5,3.5,5.4c1.9,0.4,3.8-1.2,4.9-3.7c1,0.2,2,0.4,2.9,0.5
		c0.4,2.8,1.9,4.9,3.8,5.2c1.9,0.3,3.7-1.4,4.7-4c1,0.1,2,0.2,2.9,0.3c0.6,2.8,2.1,4.8,4,4.9c1.9,0.2,3.7-1.6,4.6-4.3
		c1,0.1,2,0.1,3,0.1c0.7,2.7,2.3,4.6,4.2,4.7c1.9,0,3.6-1.9,4.4-4.6c1,0,2,0,3-0.1c0.8,2.7,2.5,4.5,4.4,4.4c1.9-0.1,3.5-2.1,4.2-4.8
		c1-0.1,2-0.2,3-0.3c0.9,2.6,2.7,4.3,4.6,4.1c1.9-0.2,3.4-2.3,4-5.1c1-0.1,2-0.3,3-0.4c1,2.5,2.8,4.1,4.7,3.7
		c1.9-0.4,3.3-2.5,3.7-5.3c1-0.2,2-0.4,3-0.7c1.1,2.4,3,3.9,4.9,3.4c1.9-0.5,3.2-2.7,3.5-5.5c1-0.3,2-0.6,2.9-0.9
		c1.2,2.4,3.2,3.7,5,3.1c1.8-0.6,3.1-2.9,3.3-5.7c1-0.3,1.9-0.7,2.9-1.1c1.3,2.3,3.3,3.5,5.2,2.8c1.8-0.7,2.9-3.1,3-6
		c1-0.4,1.9-0.8,2.9-1.2c1.4,2.2,3.5,3.2,5.3,2.4c1.8-0.8,2.8-3.3,2.8-6.1c0.9-0.5,1.9-0.9,2.8-1.4c1.5,2.1,3.6,3,5.3,2.1
		c1.8-1,2.7-3.5,2.5-6.3c0.9-0.5,1.8-1,2.7-1.6c1.6,2,3.7,2.7,5.4,1.7c1.7-1.1,2.5-3.6,2.2-6.5c0.9-0.6,1.8-1.1,2.7-1.7
		c1.7,1.9,3.9,2.6,5.5,1.4c1.7-1.2,2.4-3.8,2-6.6c0.9-0.6,1.7-1.3,2.6-1.9c1.8,1.8,4,2.3,5.6,1c1.6-1.3,2.2-4,1.7-6.7
		c0.9-0.7,1.7-1.4,2.5-2.1c1.8,1.7,4.1,2,5.6,0.6c1.6-1.4,2.1-4.1,1.4-6.8c0.8-0.7,1.6-1.5,2.4-2.2c1.9,1.6,4.2,1.8,5.7,0.3
		c1.5-1.5,1.9-4.2,1.1-6.9c0.8-0.8,1.5-1.6,2.3-2.3c2,1.4,4.2,1.5,5.7-0.1c1.5-1.6,1.7-4.3,0.8-7c0.7-0.8,1.5-1.6,2.2-2.5
		c2,1.3,4.3,1.2,5.7-0.4c1.4-1.7,1.5-4.5,0.5-7c0.7-0.9,1.4-1.7,2.1-2.6c2.1,1.2,4.4,0.9,5.7-0.8c1.3-1.7,1.3-4.5,0.2-7
		c0.7-0.9,1.3-1.9,2-2.8c2.1,1,4.4,0.7,5.6-1.2c1.3-1.8,1.1-4.6-0.1-7c0.6-1,1.2-1.9,1.8-2.9c2.2,0.9,4.4,0.4,5.6-1.5
		c1.2-1.9,0.9-4.7-0.4-7c0.6-1,1.2-2,1.8-3c2.2,0.7,4.4,0.1,5.5-1.9c1.1-2,0.7-4.7-0.6-7c0.5-1,1.1-2.1,1.6-3.1
		c2.3,0.6,4.4-0.2,5.4-2.2c1-2,0.5-4.7-1-6.9c0.5-1.1,1-2.1,1.5-3.2c2.2,0.4,4.4-0.5,5.3-2.6c0.9-2.1,0.3-4.7-1.2-6.8
		c0.4-1.1,0.9-2.2,1.3-3.3c2.3,0.3,4.3-0.8,5.2-2.9c0.8-2.1,0.1-4.7-1.5-6.7c0.4-1.1,0.8-2.3,1.2-3.4c2.3,0.1,4.3-1.1,5-3.3
		c0.7-2.2-0.1-4.7-1.8-6.5c0.4-1.2,0.7-2.3,1.1-3.5c2.3,0,4.3-1.3,4.9-3.6c0.6-2.2-0.3-4.7-2-6.4c0.3-1.2,0.6-2.4,0.9-3.6
		c2.3-0.1,4.2-1.6,4.7-3.9c0.5-2.3-0.5-4.7-2.4-6.3c0.3-1.2,0.5-2.4,0.8-3.6c2.3-0.3,4.1-1.9,4.6-4.2c0.5-2.3-0.6-4.7-2.6-6.1
		c0.2-1.2,0.4-2.4,0.6-3.6c2.3-0.5,4.1-2.2,4.4-4.5c0.4-2.3-0.9-4.6-2.9-6c0.1-1.2,0.3-2.4,0.5-3.6c2.3-0.6,4-2.4,4.2-4.7
		c0.2-2.4-1.1-4.6-3.2-5.8c0.1-1.2,0.2-2.4,0.3-3.6c2.3-0.7,3.9-2.7,4.1-5c0.2-2.4-1.3-4.5-3.4-5.6c0.1-1.2,0.1-2.4,0.1-3.6
		c2.2-0.9,3.8-2.9,3.8-5.3c0-2.4-1.5-4.4-3.6-5.3c0-1.2,0-2.4,0-3.6c2.2-1,3.7-3.1,3.6-5.5c-0.1-2.4-1.6-4.3-3.9-5.1
		c0-1.2-0.1-2.4-0.1-3.6c2.1-1.2,3.5-3.4,3.4-5.7c-0.2-2.3-1.8-4.2-4-4.8c-0.1-1.2-0.2-2.4-0.3-3.6c2.1-1.3,3.4-3.6,3.1-5.9
		c-0.3-2.3-2-4-4.2-4.5c-0.2-1.2-0.3-2.4-0.5-3.6c2-1.5,3.2-3.8,2.8-6.1c-0.3-2.3-2.1-3.9-4.4-4.2c-0.2-1.2-0.4-2.4-0.6-3.6
		c2-1.5,3-4,2.6-6.3c-0.5-2.3-2.3-3.7-4.6-4c-0.3-1.2-0.5-2.4-0.8-3.6c1.9-1.7,2.9-4.2,2.3-6.4c-0.6-2.3-2.5-3.6-4.7-3.6
		c-0.3-1.2-0.6-2.3-0.9-3.5c1.8-1.8,2.7-4.3,2-6.5c-0.6-2.2-2.6-3.4-4.9-3.3c-0.3-1.1-0.7-2.3-1.1-3.4c1.7-1.9,2.5-4.5,1.8-6.6
		c-0.7-2.2-2.8-3.3-5-3c-0.4-1.1-0.8-2.2-1.2-3.3c1.6-2,2.3-4.7,1.5-6.8c-0.8-2.1-2.9-3.1-5.2-2.7c-0.4-1.1-0.9-2.2-1.4-3.3
		c1.6-2.1,2.1-4.8,1.2-6.8c-0.9-2.1-3-2.9-5.3-2.3c-0.5-1-1-2.1-1.5-3.1c1.5-2.2,1.9-5,0.9-6.9c-1-2-3.1-2.7-5.4-2
		c-0.5-1-1.1-2-1.6-3c1.4-2.3,1.7-5.1,0.6-7c-1.1-1.9-3.3-2.5-5.5-1.6c-0.6-1-1.1-2-1.7-2.9c1.3-2.4,1.5-5.2,0.3-7
		c-1.2-1.9-3.4-2.3-5.6-1.3c-0.6-0.9-1.2-1.9-1.8-2.8c1.2-2.5,1.3-5.3,0-7c-1.2-1.8-3.5-2-5.6-0.9c-0.6-0.9-1.3-1.8-2-2.6
		c1.1-2.6,1.1-5.3-0.3-7c-1.3-1.7-3.6-1.8-5.6-0.5c-0.7-0.9-1.4-1.7-2.1-2.5c1-2.6,0.8-5.4-0.6-7c-1.4-1.6-3.6-1.6-5.7-0.1
		c-0.7-0.8-1.5-1.6-2.2-2.4c0.9-2.7,0.6-5.4-0.8-6.9c-1.5-1.5-3.7-1.3-5.7,0.2c-0.7-0.8-1.5-1.5-2.3-2.3c0.8-2.7,0.4-5.4-1.2-6.8
		c-1.5-1.4-3.8-1.1-5.7,0.6c-0.8-0.7-1.6-1.4-2.4-2.1c0.6-2.7,0.2-5.4-1.4-6.7c-1.6-1.3-3.8-0.9-5.6,0.9c-0.8-0.6-1.6-1.3-2.5-1.9
		c0.5-2.8-0.1-5.4-1.7-6.6c-1.6-1.2-3.8-0.6-5.6,1.3c-0.9-0.6-1.7-1.2-2.6-1.8c0.4-2.8-0.3-5.4-2-6.5c-1.7-1.1-3.8-0.3-5.5,1.6
		c-0.9-0.5-1.8-1.1-2.7-1.6c0.3-2.8-0.6-5.4-2.3-6.3c-1.7-1-3.8-0.1-5.4,2c-0.9-0.5-1.8-1-2.8-1.4c0.2-2.8-0.8-5.3-2.6-6.2
		c-1.8-0.9-3.8,0.2-5.3,2.3c-0.9-0.4-1.9-0.8-2.8-1.3c0-2.8-1-5.2-2.8-6c-1.8-0.7-3.8,0.4-5.2,2.7c-1-0.4-1.9-0.7-2.9-1.1
		c-0.1-2.8-1.2-5.2-3-5.8c-1.8-0.6-3.8,0.7-5.1,3c-1-0.3-1.9-0.6-2.9-0.9c-0.2-2.8-1.4-5.1-3.3-5.6c-1.8-0.5-3.8,0.9-5,3.3
		c-1-0.2-2-0.5-2.9-0.7c-0.3-2.8-1.7-5-3.5-5.4c-1.9-0.4-3.7,1.1-4.9,3.7c-1-0.2-1.9-0.4-2.9-0.5c-0.4-2.8-1.9-4.9-3.8-5.1
		c-1.9-0.3-3.7,1.4-4.7,4c-1-0.1-2-0.2-2.9-0.3c-0.6-2.8-2.1-4.8-4-4.9c-1.9-0.1-3.7,1.6-4.6,4.3c-1,0-1.9-0.1-2.9-0.1
		c-0.7-2.7-2.3-4.7-4.2-4.7c-1.9,0-3.6,1.9-4.4,4.6c-1,0-2,0-3,0.1c-0.8-2.7-2.5-4.5-4.4-4.4c-1.9,0.1-3.5,2.1-4.2,4.9
		c-1,0.1-2,0.2-2.9,0.3c-0.9-2.6-2.7-4.3-4.6-4.1c-1.9,0.2-3.4,2.3-4,5.1c-1,0.1-2,0.3-2.9,0.5c-1-2.5-2.8-4.1-4.7-3.8
		c-1.9,0.4-3.3,2.5-3.7,5.3c-1,0.2-2,0.4-2.9,0.7c-0.7-1.6-1.8-2.7-2.9-3.2c-4.6-12-11.3-14.8-11.3-14.8l-33.3-6.7
		c-0.3-0.8-0.6-1.6-1.1-2.5c-13.2-25.6-19.8-90-19.8-90c-0.7-8-8.4-5.7-8.4-5.7l-7.1-26.9l36.2-26.9l7.7,3.3c0,0,3.3-1.3,6.6-4.2
		c7.6-4.2,17.2-7.6,26.2-10.2c2.8,2.6,7.5,3.4,10.6,6.1c2.8,2.5,5.2,5.9,7.6,8.5c5.2,5.6,12.4,12.6,20.9,9.6
		c1.6-0.5,7.7-5.1,12.2-9.1c4.6,2.6,7.6-1.1,12-1.7c0.9,6,7.3,4.5,11.1,2.8c5-2.2,6.1-3.4,12-1.8c4,1.1,8.8,2.8,12.2,5.4
		c2.9,2.2,5.2,7.2,8.1,3.4c5.5-7.1-12.9-14.3-17.6-15.8c-5-1.6-7.3-0.8-11.7,0.8c-3.7,1.4-7.6,3.8-11.3,1.1c-1-0.7-1.7-1.9-2.4-3.1
		l9.4,3.3c19.2-4.9,12.6-20.3,12.6-20.3l-65.9-17.6l-1.6,4.9c-14.8-2.2-39.5,12.1-39.5,12.1l-34.3-5.4c-0.6-2.6-2.4-3.3-5.9-5.5
		c-3.7-2.3-7.3-4.9-10.8-7.4c-7.4-5.2-13.9-11.3-20.3-17.5c-6.7-6.6-13.1-13-21.4-17.8c-10.6-6.2-22.3-1.9-33.4-4.9
		c-8.1-2.2-16.2-4.5-24.2-6.7C402,7.7,388.1,3.9,374.2,0c0,0-16.5,3.3-12.1,24.2l73.2,22.9c-2.6,4.5-14.3-2.1-13.3,9.5
		c0.5,6.3,7.4,12.7,13.2,14.7c10,3.4,16.5-5.4,26.4,0.7c6.4,3.9,14.4,11.9,22.9,8.7c9.8-3.7,7.7-15,19.9-7.4
		c5.7,3.5,10.2,8.6,15.1,13l1.9,3.3l-18.1,15.9c0,0-15.9-9.9-27.4,13.7l17,57.6c-0.2,0.5-0.4,1-0.6,1.5L279.8,342.2L267,297.9
		l-0.4-2c0,0.1,0,0.2-0.1,0.3l-28.8-100c0.1-0.1,0.2-0.1,0.3-0.2c0,0,0.9-19.6,13.8-27.2c0.3-0.1,0.7-0.2,1-0.2
		c5.9-1.3,14.1-1.2,20.3-0.5c6.7,0.7,12.8,3.9,19.7,1c0.2-8-15.5-14.8-21.9-16.4c-8.7-2.2-19.3-2.5-28.5-1.5
		c-20.9,2.1-41.7,7.4-63.2,6.5c-7.6-0.3-19.8-3.8-25.1,3.3l0.5-0.5c-5.1,8.3,3.8,18.3,10.4,23.1c8.8,6.3,17.5,8.4,28,4.5
		c6.6-2.4,12.7-5.3,19.2-7.8l-0.5,15.9c0,0,0.3,0.3,0.7,0.7L243.3,306c-2.6-1-5.4-2.1-7-1.4c-3.7,1.6-2.4,8.1-2.1,11
		c0.2,2.5,0.1,8.7,2.3,10.3c2.1,1.5,9,0.3,12.4-0.3l9.4,33.2L226,383.7c0.4-1.8,0.1-3.6-0.8-4.6c-0.9-1-2.3-0.8-3.5,0.4
		c-0.5-0.5-1-1-1.5-1.5c0.4-2,0.1-3.9-0.9-4.8c-1-0.9-2.4-0.6-3.5,0.6c-0.5-0.5-1-0.9-1.6-1.4c0.3-2,0-3.9-1.1-4.8
		c-1-0.9-2.4-0.4-3.5,0.9c-0.5-0.4-1.1-0.9-1.6-1.3c0.2-2-0.2-3.9-1.2-4.7c-1-0.8-2.4-0.3-3.4,1.1c-0.5-0.4-1.1-0.8-1.7-1.2
		c0.2-2-0.3-3.8-1.4-4.5c-1.1-0.7-2.4-0.1-3.4,1.4c-0.6-0.4-1.1-0.7-1.7-1c0.1-2-0.5-3.8-1.6-4.4c-1.1-0.6-2.4,0.1-3.3,1.6
		c-0.6-0.3-1.2-0.6-1.8-0.9c0-2-0.6-3.8-1.7-4.3c-1.1-0.5-2.4,0.3-3.3,1.9c-0.6-0.3-1.2-0.5-1.8-0.8c0-2-0.8-3.7-1.9-4.2
		c-1.1-0.5-2.4,0.4-3.2,2.1c-0.6-0.2-1.2-0.5-1.8-0.7c-0.1-2-0.9-3.6-2-4c-1.2-0.4-2.4,0.6-3.1,2.4c-0.6-0.2-1.2-0.4-1.8-0.5
		c-0.2-2-1-3.6-2.2-3.9c-1.2-0.3-2.4,0.8-3.1,2.6c-0.6-0.1-1.2-0.3-1.8-0.4c-0.3-2-1.2-3.5-2.3-3.7c-1.2-0.2-2.3,1-3,2.8
		c-0.6-0.1-1.2-0.2-1.8-0.2c-0.3-2-1.3-3.5-2.5-3.6c-1.2-0.1-2.3,1.2-2.9,3.1c-0.6-0.1-1.2-0.1-1.8-0.1c-0.4-2-1.4-3.3-2.6-3.4
		c-1.2,0-2.2,1.3-2.7,3.3c-0.6,0-1.2,0-1.9,0c-0.5-1.9-1.5-3.2-2.7-3.2c-1.2,0.1-2.2,1.5-2.6,3.4c-0.6,0-1.2,0.1-1.9,0.2
		c-0.6-1.9-1.7-3.1-2.8-2.9c-1.2,0.1-2.1,1.6-2.5,3.6c-0.6,0.1-1.2,0.2-1.9,0.3c-0.6-1.8-1.8-2.9-2.9-2.7c-1.2,0.2-2.1,1.8-2.3,3.8
		c-0.6,0.1-1.2,0.3-1.9,0.5c-0.7-1.8-1.9-2.8-3-2.5c-1.2,0.3-2,1.9-2.2,3.9c-0.6,0.2-1.2,0.4-1.8,0.6c-0.8-1.7-2-2.6-3.1-2.2
		c-1.2,0.4-1.9,2.1-2.1,4.1c-0.6,0.2-1.2,0.5-1.8,0.7c-0.8-1.6-2.1-2.5-3.2-2c-1.2,0.5-1.9,2.2-1.9,4.2c-0.6,0.3-1.2,0.6-1.8,0.8
		c-0.9-1.6-2.2-2.3-3.3-1.7c-1.1,0.6-1.8,2.3-1.7,4.4c-0.6,0.3-1.2,0.6-1.8,1c-0.9-1.5-2.2-2.2-3.3-1.5c-1.1,0.7-1.7,2.5-1.6,4.5
		c-0.6,0.4-1.1,0.7-1.7,1.1c-1-1.4-2.3-2-3.4-1.3c-1.1,0.7-1.6,2.6-1.4,4.6c-0.6,0.4-1.1,0.8-1.7,1.2c-1.1-1.4-2.4-1.9-3.5-1
		c-1.1,0.8-1.5,2.7-1.2,4.7c-0.5,0.4-1.1,0.9-1.6,1.4c-1.1-1.3-2.5-1.7-3.5-0.8c-1,0.9-1.4,2.8-1.1,4.8c-0.5,0.5-1,1-1.6,1.5
		c-1.2-1.2-2.5-1.5-3.5-0.5c-1,1-1.3,2.9-0.9,4.9c-0.5,0.5-1,1-1.5,1.6c-1.2-1.1-2.6-1.3-3.5-0.3c-0.9,1.1-1.2,3-0.7,5
		c-0.5,0.6-1,1.1-1.4,1.7c-1.2-1.1-2.6-1.1-3.5,0c-0.9,1.1-1.1,3.1-0.5,5c-0.5,0.6-0.9,1.2-1.4,1.8c-1.3-0.9-2.7-0.9-3.5,0.3
		c-0.9,1.2-1,3.2-0.3,5c-0.4,0.6-0.9,1.3-1.3,1.9c-1.3-0.9-2.7-0.7-3.5,0.5c-0.8,1.2-0.8,3.2-0.2,5c-0.4,0.7-0.8,1.3-1.2,2
		c-1.3-0.8-2.7-0.5-3.5,0.8c-0.8,1.3-0.7,3.3,0,5c-0.4,0.7-0.8,1.4-1.2,2.1c-1.4-0.6-2.8-0.3-3.5,1.1c-0.7,1.4-0.6,3.3,0.2,5
		c-0.4,0.7-0.7,1.4-1.1,2.2c-1.4-0.5-2.7-0.1-3.4,1.3c-0.7,1.4-0.5,3.3,0.4,5c-0.3,0.7-0.7,1.5-1,2.2c-1.4-0.4-2.7,0.1-3.4,1.6
		c-0.6,1.5-0.4,3.4,0.6,4.9c-0.3,0.8-0.6,1.6-0.9,2.3c-1.4-0.3-2.7,0.3-3.3,1.8c-0.6,1.5-0.2,3.4,0.7,4.9c-0.3,0.8-0.6,1.6-0.8,2.4
		c-1.4-0.2-2.7,0.5-3.2,2.1c-0.5,1.5-0.1,3.4,0.9,4.8c-0.3,0.8-0.5,1.6-0.8,2.5c-1.4-0.1-2.7,0.7-3.1,2.3c-0.5,1.6,0,3.4,1.1,4.7
		c-0.2,0.8-0.5,1.6-0.7,2.5c-1.4,0-2.7,0.9-3.1,2.5c-0.4,1.6,0.1,3.4,1.3,4.6c-0.2,0.8-0.4,1.7-0.6,2.5c-1.4,0.1-2.6,1.1-3,2.7
		c-0.3,1.6,0.3,3.4,1.5,4.6c-0.2,0.8-0.3,1.7-0.5,2.6c-1.4,0.2-2.6,1.3-2.9,2.9c-0.3,1.7,0.4,3.4,1.6,4.4c-0.1,0.9-0.3,1.7-0.4,2.6
		c-1.4,0.3-2.6,1.5-2.8,3.2c-0.2,1.7,0.5,3.3,1.8,4.3c-0.1,0.9-0.2,1.7-0.3,2.6c-1.4,0.4-2.5,1.7-2.7,3.4c-0.2,1.7,0.7,3.3,2,4.2
		c-0.1,0.9-0.1,1.7-0.2,2.6c-1.4,0.5-2.5,1.9-2.5,3.6c-0.1,1.7,0.8,3.2,2.1,4c-0.1,0.9-0.1,1.8-0.1,2.6C1,532,0,533.5,0,535.2
		c0,1.7,0.9,3.2,2.3,3.8c0,0.9,0,1.7,0,2.6C0.9,542.3,0,543.8,0,545.5z M478.4,409.9l1.4,1.3c1.8-3.2,3.7-6.3,5.7-9.3l-1.4-1.4
		c0.1-0.2,0.2-0.3,0.3-0.5l1.4,1.4c2-3.1,4-6.1,6.1-9l-1.4-1.4c0.1-0.2,0.2-0.3,0.3-0.5l1.3,1.5c2.1-2.9,4.2-5.8,6.4-8.5l-1.4-1.6
		c0.1-0.1,0.2-0.2,0.3-0.3l0.7,0.7l0.7,0.9c0,0,0.1-0.1,0.1-0.1l51,46.9l9.8,34.5l-81.3-50.8c0.4-0.7,0.7-1.3,1.1-2l-1.5-1.2
		C478.2,410.3,478.3,410.1,478.4,409.9z M462.9,441.5l1.6,1c1.4-3.5,2.9-6.9,4.4-10.3l-1.6-1c0.1-0.2,0.2-0.4,0.2-0.6l1.6,1.1
		c1.6-3.4,3.2-6.7,4.9-10l-1.6-1.1c0.1-0.2,0.2-0.4,0.3-0.5l1.5,1.2c1-2,2.2-4,3.3-6l83,51.9l16,56.2l-13.4,1l-99.5-79.8
		c0.2-0.5,0.4-1.1,0.6-1.6l-1.7-0.9C462.7,441.9,462.8,441.7,462.9,441.5z M581.8,541.7l3.8,13.4l-22.9-12l15.4-4.4L581.8,541.7z
		 M580.3,538.1l0.4-0.1l0.2,0.6L580.3,538.1z M622.8,497.1l0.7,2.6l-1.3,3.8l-3.2-2l1.2-6.7L622.8,497.1z M620.7,492.6l0.4-2
		l0.8,3.1L620.7,492.6z M625.2,581.9c0.3,0.1,0.5,0.1,0.8,0.2l8.3,15.1l-18,23.3l-0.7-33l10-4L625.2,581.9z M636.3,597.4l3.2-4.2
		l2.3,2.9l-3.1,5.6L636.3,597.4z M637.7,603.5l-21,38.5l-0.4-18.8l18.9-24.4L637.7,603.5z M640.6,591.8l3.9-5.1l2,0.6l-3.9,7.2
		L640.6,591.8z M642.9,597.6l14.3,18.3l-0.6,18.5l-16.9-30.9L642.9,597.6z M643.8,595.9l4.5-8.1l9.7,2.8l-0.7,22.6L643.8,595.9z
		 M645.8,585.1l0.3-0.4l-1.1-1.3l-0.9,1.2l-7.8-2.3l-0.4,1.9l6.9,2l-3.3,4.2l-6.3-8c1.1-0.1,2.1-0.3,3.2-0.5l21.7,1.6l-0.1,5.1
		L645.8,585.1z M662.9,548l1-2.8l5.7,5.9l-3,2.4L662.9,548z M665.3,554.6L660,559c1-2.8,1.7-5.8,2.2-8.8L665.3,554.6z M663.3,542
		l-0.5-0.5c0-1.7-0.2-3.3-0.4-4.9l2.8-13.3l4.4,1.1L663.3,542z M664,521l-7-1.8l-0.5-2.6l8.3,0.4L664,521z M657.6,521.4l6,1.5
		l-2,9.2C660.7,528.3,659.3,524.6,657.6,521.4z M658.9,562.2l-0.1,1.8l-1.4,0.8c0.4-0.8,0.8-1.6,1.2-2.3L658.9,562.2z M666.3,556.1
		l1.9,2.7l-5.5,3L662,562l0,0.2l-1.6,0.9l0-0.9l-1.6,0L666.3,556.1z M664.2,582l-4.4-0.3l0.5-16.4l1.9-1.1L664.2,582z M659.8,583.6
		l4.6,0.3l0.7,6.7l-5.5-1.6L659.8,583.6z M663.8,563.4l5.5-3l15.8,23.2l-19.3-1.4L663.8,563.4z M667.7,555l3.2-2.7l3.1,3.3l-4.3,2.4
		L667.7,555z M664.6,543.3l6.7-18.4l22.9,5.9L671,549.9L664.6,543.3z M670.3,522.7l-4.7-1.2l0.9-4.4l5.7,0.2L670.3,522.7z
		 M665.3,515.1l-9.1-0.4l-2.5-12.7l17-12.2L665.3,515.1z M655,517.3c-0.1-0.1-0.1-0.1-0.2-0.2l-0.1-0.6l0.2,0L655,517.3z
		 M654.5,514.7l0,0.9l-3.1-11.9l0.9-0.7L654.5,514.7z M655.5,568l3.3-1.8l-0.5,15.4l-17-1.3C646.8,577.9,651.7,573.6,655.5,568z
		 M658.7,617.8l10.9,14l3.6,32.9L658,637.2L658.7,617.8z M658.7,615.1l0.8-24.1l5.8,1.7l3.9,35.7L658.7,615.1z M666,584.1l20.5,1.5
		l9.6,14l-29.4-8.5L666,584.1z M688.7,585.8l15.8,1.2L725,608l-26.3-7.6L688.7,585.8z M687.3,583.7l-16.6-24.2l4.6-2.5l27.1,27.8
		L687.3,583.7z M672.2,551.2l24.1-19.9l14.6,3.8l-35.3,19.6L672.2,551.2z M698.2,529.8l13.3-11l26.9,1.1l-24.9,13.8L698.2,529.8z
		 M696,529.3l-24-6.2l2.1-5.7l34.7,1.4L696,529.3z M673,515.4l-6-0.3l5.7-26.8l13.8-10L673,515.4z M673.3,485.5l4.3-20.2l22.1-22.8
		l-11.9,32.6L673.3,485.5z M671.2,487l-17.9,12.9l-1.5-7.9l23.6-24.4L671.2,487z M651.8,501l-1,0.7l-1.8-6.8l1.4-1.4L651.8,501z
		 M648.5,492.8l-9.2-35.2l2.6-7.9l8,41.5L648.5,492.8z M638.5,454.8l-6.5-24.7L635,414l6.3,32.5L638.5,454.8z M638.4,591.9l-3,3.9
		l-7.3-13.4c0.8,0.1,1.6,0.2,2.4,0.2c0.2,0,0.4,0,0.6,0L638.4,591.9z M624.6,581.8l-9.1,3.7l-0.1-4.1l5.1-0.9
		C621.8,581,623.2,581.5,624.6,581.8z M623.6,504.4l0.6-1.8l0.7,2.6L623.6,504.4z M601.5,521.6l-9.8-34.9l4.4,2.7l7.7,32
		L601.5,521.6z M604.3,523.4l0.1,0.2c-0.5,1.1-1,2.1-1.4,3.2l-0.9-3.3L604.3,523.4z M592.6,579.6l11.4,1.8l-20.5,3.6l7.2-11.9
		L592.6,579.6z M581.4,585.4l-14.9,2.6l21.3-25.3l2.3,8.1L581.4,585.4z M580,587.6l-9.6,15.8l-25.7,10.3l19.8-23.4L580,587.6z
		 M582.2,587.3l26.6-4.7l-0.7,5.9l-35.1,14.1L582.2,587.3z M609.6,589.9l4.4-1.8l0.7,34.4L604.2,636L609.6,589.9z M609.8,587.7
		l0.6-5.3l3,0.5l0.4-0.5l0.1,3.7L609.8,587.7z M614.8,625.2l0.4,19.6L600,672.6l3.8-33.3L614.8,625.2z M605.6,521.3L605.6,521.3
		l-7.5-30.6l19.1,11.9l-1.3,7.1C611.8,512.6,608.3,516.6,605.6,521.3z M617.6,579l-1.4,0.2l0.6-0.8C617,578.6,617.3,578.8,617.6,579
		z M621.6,505.4l-0.5,1.4c-1.2,0.5-2.3,1.1-3.4,1.8l0.9-5L621.6,505.4z M617.6,500.6L597.5,488l-4.4-18.4l25.9,23.8L617.6,500.6z
		 M595.4,486.8L591,484l-6.1-21.8l5.9,5.5L595.4,486.8z M560.2,541.8l-25.4-13.3l28-2l13.4,10.8L560.2,541.8z M578.4,536.6
		l-12.9-10.4l11.7-0.8l3.1,10.7L578.4,536.6z M451.4,476.2c0-0.2,0.1-0.4,0.1-0.6l1.7,0.7c1-3.7,2-7.4,3.1-11l-1.8-0.7
		c0.1-0.2,0.1-0.4,0.2-0.6l1.7,0.8c1.1-3.6,2.3-7.2,3.6-10.8l-1.7-0.8c0.1-0.2,0.1-0.4,0.2-0.6l1.6,0.9c0.9-2.4,1.8-4.7,2.7-7.1
		l97.4,78.2l-29,2.1l-80.1-42c0.6-2.6,1.2-5.3,1.9-7.9L451.4,476.2z M443.4,523.5l1.8,0.3c0.3-3.9,0.7-7.7,1.2-11.5l-1.8-0.2
		c0-0.2,0.1-0.4,0.1-0.6l1.8,0.4c0.5-3.9,1-7.6,1.7-11.4l-1.8-0.4c0-0.2,0.1-0.4,0.1-0.6l1.8,0.5c0.6-3.8,1.4-7.6,2.1-11.3l-1.8-0.5
		c0.1-0.2,0.1-0.4,0.1-0.6l1.8,0.6c0.1-0.5,0.2-0.9,0.3-1.3l76.8,40.3l-83,6c0.2-2.9,0.3-5.8,0.5-8.7l-1.8-0.1
		C443.4,524,443.4,523.7,443.4,523.5z M443.5,573c0-0.2,0-0.4-0.1-0.6l1.8-0.2c-0.3-3.8-0.6-7.7-0.7-11.5l-1.8,0.2
		c0-0.2,0-0.4,0-0.6l1.8-0.1c-0.2-3.8-0.3-7.7-0.3-11.6l-1.8,0.1c0-0.2,0-0.4,0-0.6l1.8,0c0-1.9,0-3.9,0-5.8c0-1.9,0.1-3.9,0.2-5.8
		l-1.8,0c0-0.2,0-0.4,0-0.6l1.8,0.1c0-0.3,0-0.6,0.1-0.9l86.5-6.3l26.4,13.8l-111.9,32c-0.1-0.6-0.1-1.3-0.2-1.9L443.5,573z
		 M450.9,608.6c0-0.1-0.1-0.3-0.1-0.5l-1.8,0.7c0-0.2-0.1-0.4-0.1-0.6l1.8-0.6c-0.8-3.7-1.5-7.4-2.2-11.2l-1.8,0.5
		c0-0.2-0.1-0.4-0.1-0.6l1.8-0.4c-0.7-3.8-1.2-7.5-1.7-11.4l-1.8,0.5c0-0.2,0-0.4-0.1-0.6l1.9-0.4c-0.3-2.5-0.6-5-0.8-7.5L560,543.9
		l26.4,13.9l0.9,3.1l-23.4,27.7L450.9,608.6z M460.7,642.1l-1.6,1c-0.1-0.2-0.1-0.4-0.2-0.6l1.7-0.9c-1.3-3.5-2.5-7-3.6-10.6
		l-1.7,0.9c-0.1-0.2-0.1-0.4-0.2-0.6l1.7-0.8c-1.1-3.6-2.2-7.2-3.1-10.8l-1.8,0.8c-0.1-0.2-0.1-0.4-0.1-0.6l1.8-0.7
		c-0.7-2.9-1.4-5.8-2.1-8.7l110.5-19.6l-20.5,24.3l-78.8,31.6C461.9,645.2,461.3,643.7,460.7,642.1z M480.4,683.4l-1.4,1.4
		c-0.1-0.2-0.2-0.4-0.3-0.5l1.5-1.3c-1.8-3.1-3.6-6.2-5.3-9.4l-1.5,1.3c-0.1-0.2-0.2-0.4-0.3-0.5l1.5-1.2c-1.7-3.2-3.4-6.5-4.9-9.7
		l-1.5,1.2c-0.1-0.2-0.2-0.4-0.3-0.6l1.6-1.1c-1.6-3.3-3.1-6.6-4.5-10l-1.6,1.1c-0.1-0.2-0.1-0.4-0.2-0.6l1.6-1
		c-0.5-1.3-1-2.6-1.5-3.9l75.5-30.3l-56.9,67.4C481.3,684.9,480.8,684.2,480.4,683.4z M503.3,714.8c-1.3-1.5-2.6-2.9-3.8-4.4
		l-1.2,1.7c-0.1-0.1-0.2-0.3-0.4-0.4l1.3-1.6c-2.2-2.7-4.4-5.4-6.5-8.3l-1.3,1.6c-0.1-0.2-0.2-0.3-0.3-0.5l1.4-1.5
		c-2.1-2.8-4.1-5.7-6.1-8.6l-1.4,1.5c-0.1-0.2-0.2-0.3-0.3-0.5l1.4-1.4c-1.1-1.7-2.2-3.5-3.3-5.3l59.4-70.3l26.7-10.7L503.3,714.8z
		 M526.2,737c-1.4-1.2-2.9-2.3-4.3-3.5l-1,1.9c-0.1-0.1-0.3-0.2-0.4-0.4l1.1-1.8c-2.5-2.2-5-4.5-7.4-6.9l-1.1,1.9
		c-0.1-0.1-0.2-0.3-0.4-0.4l1.2-1.8c-2.4-2.4-4.8-4.8-7.1-7.3l-1.2,1.7c-0.1-0.1-0.3-0.3-0.4-0.4l1.2-1.7c-0.6-0.7-1.2-1.4-1.8-2.1
		l66.9-111l36.5-14.6l-5.6,47.9L526.2,737z M555.1,758.9c-0.1,0-0.2-0.1-0.2-0.1l0.8-1.4L555.1,758.9z M554.4,756
		c-2.5-1.4-5-2.8-7.5-4.2l-0.8,2.1c-0.2-0.1-0.3-0.2-0.5-0.3l0.9-2c-2.8-1.7-5.5-3.5-8.2-5.3l-0.8,2c-0.2-0.1-0.3-0.2-0.5-0.3
		l0.9-1.9c-2.7-1.9-5.4-3.8-8-5.9l-0.9,2c-0.1-0.1-0.3-0.3-0.4-0.4l1-1.9c-0.7-0.6-1.4-1.2-2.1-1.8l74.5-96.3l-4,34.6L554.4,756z
		 M587.2,769.1c-1.2-0.3-2.5-0.6-3.7-1l-0.4,2.2c-0.2,0-0.3-0.1-0.5-0.1l0.5-2.2c-3-0.9-6-2-9-3.1l-0.5,2.1c-0.2,0-0.3-0.1-0.5-0.2
		l0.6-2.2c-3-1.1-5.9-2.3-8.8-3.6l-0.6,2.1c-0.2-0.1-0.3-0.1-0.5-0.2l0.7-2.1c-2.9-1.3-5.8-2.7-8.6-4.2l41.6-76.1L587.2,769.1z
		 M612.4,773.9l-0.1,2.2c-0.2,0-0.3,0-0.5-0.1l0.2-2.2c-3.1-0.3-6.2-0.8-9.3-1.2l-0.2,2.3c-0.2,0-0.3-0.1-0.5-0.1l0.3-2.3
		c-3.1-0.5-6.2-1.2-9.2-1.9l-0.3,2.2c-0.2,0-0.3-0.1-0.5-0.1l0.4-2.2c-1.3-0.3-2.6-0.7-3.8-1l10.7-92.6l15.8-28.8l2.7,126.2
		C616.1,774.2,614.2,774.1,612.4,773.9z M652.1,772.8c-0.2,0-0.4,0.1-0.6,0.1l0.2,2.3c-0.2,0-0.3,0-0.5,0.1l-0.2-2.3
		c-3.1,0.5-6.2,0.8-9.3,1.1l0.1,2.2c-0.2,0-0.3,0.1-0.5,0.1l-0.1-2.3c-3.1,0.3-6.2,0.5-9.3,0.5l0,2.3c-0.1,0-0.3,0-0.5,0l0-2.3
		c-1.6,0-3.1,0-4.7,0.1c-1.6,0-3.1-0.1-4.7-0.1l0,2.3c-0.2,0-0.4,0-0.5,0l0.1-2.3c-0.7,0-1.4-0.1-2.1-0.1l-2.8-129.1l21.9-40.1
		l17.8,32.5L652.1,772.8z M680.3,765.5l0.5,2.1c-0.2,0.1-0.3,0.1-0.5,0.2l-0.4-2.2c-3,1.1-6,2-9.1,2.9l0.4,2.2
		c-0.2,0-0.3,0.1-0.5,0.2l-0.3-2.2c-3,0.8-6.1,1.6-9.2,2.3l0.4,2.2c-0.2,0-0.4,0.1-0.5,0.1l-0.3-2.2c-2.3,0.5-4.7,0.9-7.1,1.3
		l4.2-132l15.6,28.6l10.3,95.1C682.7,764.6,681.5,765.1,680.3,765.5z M717.2,749.5l-0.8-2.1c-2.8,1.8-5.6,3.6-8.5,5.2l0.8,2
		c-0.2,0.1-0.3,0.2-0.5,0.3l-0.7-2.1c-2.9,1.7-5.7,3.2-8.6,4.7l0.7,2.1c-0.2,0.1-0.3,0.2-0.5,0.3l-0.6-2.1c-2.9,1.4-5.8,2.8-8.8,4.1
		l0.6,2.1c-0.2,0-0.3,0.1-0.5,0.2l-0.5-2.1c-1.3,0.5-2.6,1-3.9,1.5l-9.8-90.8l41.9,76.6C717.4,749.4,717.3,749.5,717.2,749.5z
		 M741.7,727.6l1.1,1.8c-0.1,0.1-0.3,0.3-0.4,0.4l-1.1-1.8c-2.5,2.3-5.1,4.6-7.7,6.8l1,1.8c-0.2,0.1-0.3,0.3-0.4,0.4l-1-1.9
		c-2.6,2.2-5.3,4.2-8,6.3l1,1.9c-0.1,0.1-0.3,0.2-0.4,0.4l-0.9-2c-2.3,1.7-4.7,3.4-7.1,4.9l-42.8-78.1l-3.7-34.2l71.7,92
		C742.7,726.6,742.2,727.1,741.7,727.6z M765.3,704.9c-0.1,0.2-0.2,0.3-0.4,0.5l-1.3-1.6c-2.2,2.8-4.5,5.5-6.8,8.1l1.3,1.6
		c-0.1,0.1-0.3,0.3-0.4,0.4l-1.2-1.7c-2.3,2.6-4.7,5.2-7.1,7.7l1.2,1.7c-0.1,0.2-0.3,0.3-0.4,0.4l-1.1-1.8c-1.5,1.6-3.1,3.1-4.7,4.6
		l-73.3-94l-4.1-37.7l30.9,8.9l67.8,99c-0.6,0.7-1.1,1.5-1.7,2.2L765.3,704.9z M782.9,675.3l1.5,1.2c-0.1,0.2-0.2,0.3-0.3,0.5
		l-1.4-1.3c-1.8,3.2-3.7,6.3-5.7,9.3l1.5,1.3c-0.1,0.2-0.2,0.4-0.3,0.5l-1.4-1.5c-2,3.1-4,6-6.1,9l1.4,1.4c-0.1,0.2-0.2,0.3-0.4,0.5
		l-1.3-1.5c-1.2,1.7-2.4,3.3-3.7,4.9l-66.3-96.8l27.3,7.9l57.9,59.5C784.8,672,783.9,673.7,782.9,675.3z M803.9,634.4l-1.7-0.9
		c-1.3,3.6-2.6,7.1-4,10.6l1.7,0.9c-0.1,0.2-0.2,0.4-0.2,0.6l-1.6-1c-1.4,3.5-2.9,6.9-4.5,10.3l1.6,1c-0.1,0.2-0.2,0.4-0.3,0.6
		l-1.5-1.1c-1.6,3.4-3.2,6.7-4.9,10l1.5,1.1c-0.1,0.2-0.2,0.4-0.3,0.5l-1.5-1.2c-0.5,1-1.1,2-1.7,3l-55.3-56.9l71.3,20.6
		c-0.1,0.2-0.1,0.4-0.2,0.5l1.7,0.8C804,634,803.9,634.2,803.9,634.4z M813.7,599.6l-1.8-0.6c-0.8,3.8-1.7,7.5-2.6,11.2l1.8,0.6
		c-0.1,0.2-0.1,0.4-0.2,0.6l-1.7-0.7c-1,3.7-2,7.4-3.1,11l1.8,0.7c-0.1,0.2-0.1,0.4-0.2,0.6l-1.7-0.8c-0.9,2.8-1.8,5.6-2.8,8.4
		L728.5,609l-21.3-21.9l105.5,7.8c-0.2,1.2-0.4,2.4-0.7,3.6l1.8,0.5C813.8,599.2,813.7,599.4,813.7,599.6z M819.1,563.5l-1.9-0.3
		c-0.3,3.9-0.7,7.7-1.2,11.5l1.8,0.2c0,0.2,0,0.4-0.1,0.6l-1.8-0.4c-0.5,3.8-1,7.7-1.7,11.4l1.8,0.4c0,0.2-0.1,0.4-0.1,0.6l-1.8-0.5
		c-0.3,1.9-0.7,3.9-1.1,5.8l-108-8L677,556.1l36.6-20.3l103.7,26.7c0,0.1,0,0.1,0,0.2l1.2,0.1l0.7,0.2
		C819.1,563.2,819.1,563.3,819.1,563.5z M819.8,526.9L818,527c0.2,3.8,0.3,7.7,0.3,11.6l1.8-0.1c0,0.2,0,0.4,0,0.6l-1.8,0
		c0,1.9,0,3.9-0.1,5.8c0,1.9-0.1,3.9-0.2,5.8l1.8,0c0,0.2,0,0.4,0,0.6l-1.8-0.1c-0.1,3.2-0.3,6.3-0.6,9.4L716,534.4l25.9-14.3
		l75.8,3c0.1,1.1,0.2,2.2,0.2,3.3l1.8-0.2C819.8,526.4,819.7,526.6,819.8,526.9z M815.8,490c0.1,0.2,0.1,0.4,0.1,0.6l-1.8,0.5
		c0.7,3.7,1.2,7.5,1.7,11.3l1.8-0.4c0,0.2,0.1,0.4,0.1,0.6l-1.8,0.3c0.5,3.8,0.9,7.6,1.2,11.4l1.8-0.3c0,0.2,0.1,0.4,0.1,0.6
		l-1.8,0.2c0.2,2.1,0.3,4.2,0.4,6.3l-72.4-2.9l67-37.2c0.7,3.1,1.3,6.3,1.9,9.4L815.8,490z M801.6,444.5c0.1,0.2,0.1,0.3,0.2,0.5
		l1.7-1c0.1,0.2,0.1,0.4,0.2,0.6l-1.7,0.9c1.3,3.5,2.5,7,3.6,10.6l1.7-0.9c0.1,0.2,0.1,0.4,0.2,0.6l-1.7,0.8
		c1.1,3.6,2.2,7.2,3.1,10.8l1.7-0.8c0.1,0.2,0.1,0.4,0.1,0.6l-1.7,0.7c1,3.6,1.8,7.3,2.7,11l1.8-0.7c0,0,0,0.1,0,0.1l-71.9,39.9
		l-27.9-1.1L801.6,444.5z M787.7,413.4l1.5-1.3c0.1,0.2,0.2,0.4,0.3,0.5l-1.5,1.2c1.7,3.2,3.3,6.4,4.9,9.7l1.6-1.2
		c0.1,0.2,0.2,0.4,0.3,0.5l-1.6,1.1c1.6,3.3,3.1,6.6,4.5,10l1.6-1.1c0.1,0.2,0.2,0.4,0.2,0.6l-1.6,1c1.1,2.7,2.2,5.4,3.2,8.1
		L711,516.9l-36.2-1.4l14.2-38.9l95.5-68.8C785.6,409.7,786.7,411.5,787.7,413.4z M769.7,385.1l1.3-1.6c0.1,0.1,0.2,0.3,0.3,0.5
		l-1.4,1.5c2.1,2.8,4.1,5.7,6.1,8.6l1.4-1.5c0.1,0.1,0.2,0.3,0.3,0.5l-1.5,1.4c2,2.9,3.9,6,5.7,9l1.5-1.4c0.1,0.2,0.2,0.3,0.3,0.5
		l-1.5,1.3c0.4,0.7,0.8,1.4,1.2,2.1l-93.4,67.2l12.4-33.8l61.9-64.1l-1.2,1.5C765.5,379.6,767.7,382.3,769.7,385.1z M735.5,349.4
		c1.7,1.4,3.4,2.8,5.1,4.2l1-1.9c0.1,0.1,0.3,0.2,0.4,0.4l-1.1,1.8c2.5,2.2,5,4.5,7.4,6.9l1.1-1.8c0.1,0.1,0.3,0.3,0.4,0.4l5.9,9.1
		l1.2-1.8c0.1,0.1,0.3,0.3,0.4,0.4l-1.3,1.7c2,2.2,3.9,4.4,5.8,6.6l-57.9,59.8L735.5,349.4z M706.3,330.1c0.1,0.1,0.2,0.1,0.4,0.2
		l0.7-2.1c0.2,0.1,0.3,0.2,0.5,0.3l-0.8,2.1c2.9,1.5,5.7,3.1,8.5,4.8l0.8-2.1c0.2,0.1,0.3,0.2,0.5,0.3l-0.9,2
		c2.8,1.7,5.5,3.4,8.2,5.3l0.8-2c0.2,0.1,0.3,0.2,0.5,0.3l-0.9,1.9c2.7,1.9,5.4,3.8,8,5.9l1-1.9c0.1,0.1,0.3,0.2,0.4,0.3l-1,1.9
		c0.4,0.3,0.8,0.7,1.2,1l-32.9,90l-22.9,23.7L706.3,330.1z M685,320.9c1.1,0.4,2.3,0.7,3.4,1.1l0.5-2.2c0.2,0.1,0.3,0.1,0.5,0.2
		l-0.6,2.2c3,1.1,5.9,2.3,8.8,3.6l0.6-2.2c0.2,0.1,0.3,0.2,0.5,0.2l-0.7,2.1c2.3,1,4.5,2.2,6.8,3.3l-28.7,134.9l-24.8,25.6
		l-8.4-43.2L685,320.9z M653.3,313.5c2.2,0.3,4.3,0.5,6.5,0.9l0.2-2.3c0.2,0,0.3,0,0.5,0.1l-0.3,2.2c3.1,0.5,6.2,1.2,9.2,1.9
		l0.3-2.3c0.2,0,0.3,0.1,0.5,0.1l-0.4,2.2c3.1,0.7,6.1,1.5,9.1,2.5l0.4-2.2c0.2,0,0.4,0.1,0.5,0.1l-0.5,2.2c1.4,0.4,2.7,0.9,4.1,1.4
		l-41.1,123l-6.5-33.7L653.3,313.5z M620.8,312.9l-0.2-2.3c0.2,0,0.3,0,0.5-0.1l0.1,2.3c3.1-0.3,6.2-0.5,9.4-0.5l-0.1-2.3
		c0.2,0,0.3,0,0.5,0l0,2.3c1.6,0,3.1,0,4.7,0c1.6,0,3.1,0,4.7,0.1l0-2.2c0.2,0,0.3,0,0.5,0l-0.1,2.2c3.1,0.1,6.3,0.3,9.3,0.7
		l0.1-2.2c0.2,0,0.4,0,0.5,0l-0.2,2.2c0.4,0,0.8,0.1,1.2,0.2L635,405.4l-17.8-92C618.3,313.2,619.5,313,620.8,312.9z M611,314.1
		l-0.3-2.2c0.2,0,0.3-0.1,0.5-0.1l0.2,2.2c1.3-0.2,2.7-0.3,4.1-0.5l18.6,96.2l-3,16.7l-29-110.7C605.1,315.1,608,314.6,611,314.1z
		 M562.2,286.6c-0.3,0.1-0.6,0.2-0.9,0.4c-0.2-0.3-0.3-0.5-0.5-0.7L562.2,286.6z M563.6,329.5l-0.7-2.1c0.2-0.1,0.3-0.2,0.5-0.2
		l0.6,2.1c2.9-1.4,5.8-2.8,8.8-4.1l-0.6-2.1c0.2-0.1,0.3-0.1,0.5-0.2l0.5,2.2c0.9-0.4,1.9-0.8,2.8-1.2l44,163.2l-0.8,4.3l-27.1-24.9
		l-32.7-134.7C560.9,330.9,562.2,330.1,563.6,329.5z M590,464.4l-6.1-5.6l-34-121.6c1.5-1,3.1-1.9,4.7-2.8l-0.8-2
		c0.2-0.1,0.3-0.2,0.5-0.3l0.7,2.1c1-0.6,2-1.1,3-1.6L590,464.4z M555.4,285c-1.4,1.1-2.2,3.3-2.1,5.7c-0.9,0.5-1.9,0.9-2.8,1.4
		c-1.5-2.1-3.6-3-5.3-2c-1.7,1-2.7,3.5-2.5,6.3c-0.9,0.5-1.8,1-2.7,1.6c-0.4-0.5-0.8-0.9-1.3-1.3l-4.7-16.8L555.4,285z M520.8,359.4
		l-1.1-1.8c0.1-0.1,0.3-0.3,0.4-0.4l1,1.9c2.2-2.1,4.5-4.1,6.8-6l21,73.4l-48.8-44.9c1.8-2.2,3.6-4.4,5.5-6.6l-1.3-1.6
		c0.1-0.1,0.2-0.3,0.4-0.4l1.2,1.7c2.3-2.6,4.7-5.2,7.1-7.7l-1.2-1.7c0.1-0.1,0.2-0.3,0.4-0.4l1.1,1.8
		C515.8,364.2,518.3,361.8,520.8,359.4z M623.5,84.7l13.8,4.8l-1.9-0.1c-0.6,1.2-0.9,2.5-1.1,3.9c-0.2,0-0.4,0-0.6,0
		c-4.6,0.5-5.9,5.2-9.3-0.6C623.2,90.6,623,87.5,623.5,84.7z M25.5,574.6l-1.1,0.4c0-0.2,0-0.3-0.1-0.5l1.1-0.3
		c-0.4-2.7-0.8-5.4-1.1-8.1l-1.1,0.3c0-0.1,0-0.3-0.1-0.5l1.1-0.2c-0.3-2.7-0.5-5.5-0.8-8.2l-1.2,0.2c0-0.1,0-0.3,0-0.5l1.2-0.2
		c-0.1-1.8-0.2-3.6-0.3-5.4l72.2-17.2l17.5,12.4l-16.4,19.8l-71,8.3C25.5,574.8,25.5,574.7,25.5,574.6z M251.1,484.6l1.1-0.6
		c0,0.1,0.1,0.3,0.1,0.4l-1.1,0.5c0.6,2.6,1.2,5.3,1.7,7.9l1.1-0.5c0,0.2,0.1,0.3,0.1,0.4l-1.1,0.4c0.5,2.7,1,5.3,1.3,8l1.1-0.4
		c0,0,0,0.1,0,0.1l-46,24.7l-17.4-2.3l56.9-47.2c0,0.1,0.1,0.2,0.1,0.3l1.1-0.6c0,0.1,0.1,0.3,0.1,0.4l-1.1,0.6
		C249.8,479.4,250.5,482,251.1,484.6z M207.3,526.8l-15.9,8.6l-9.4-3.6l8.6-7.1L207.3,526.8z M244.4,562.7l1.2,0.4
		c-0.1,0.4-0.2,0.9-0.3,1.4l-1.2-0.2c-0.4-0.1-0.8,0.3-0.9,0.8l-0.4,2.5c-0.1,0.5,0.2,1,0.5,1.1l1.2,0.2c-0.1,0.5-0.1,0.9-0.2,1.4
		l-1.2-0.1c-0.4,0-0.7,0.4-0.8,0.9l-0.2,2.5c-0.1,0.5,0.2,1,0.6,1l1.2,0.1c0,0.5-0.1,0.9-0.1,1.4l-1.2,0.1c-0.4,0-0.7,0.5-0.8,1
		l-0.1,2.5c0,0.5,0.3,0.9,0.7,0.9l1.2-0.1c0,0.5,0,0.9,0,1.4l-0.1,0l-59-10.1L168,549.4l23.4-12.6l55.3,21.4c0,0.2-0.1,0.3-0.1,0.5
		l-1.2-0.4c-0.4-0.1-0.8,0.2-0.9,0.7l-0.6,2.5C243.8,562.1,244,562.6,244.4,562.7z M120.3,602.8L125,570l2.8-1l-0.5,24.7
		L120.3,602.8z M127.2,595.6l-0.3,14.1l-10.3,19.1l3.4-23.6L127.2,595.6z M134.9,565.2c0.2,0,0.3,0.1,0.5,0.2l4.7,11.3l-11.9,15.7
		l0.5-23.7l6.4-2.3L134.9,565.2z M158.9,552.8l-0.4,0l0,0.2l-1,0.6l0-0.6l-1-0.1l4.8-4l1.1,2.1L158.9,552.8z M159.3,567.3l-2.7-0.5
		l0.8-11.7l1.2-0.7L159.3,567.3z M156.9,523.5l3.7,1.4l-1.5,6.5C158.7,528.6,157.9,526,156.9,523.5z M160.8,547.7l-3.4,2.8
		c0.7-2,1.2-4,1.6-6.2L160.8,547.7z M162.2,548.1l2.1-1.7l1.9,2.5l-2.8,1.5L162.2,548.1z M161.6,547l-2.2-4.1l0.7-2l3.4,4.5
		L161.6,547z M159.8,538.6l-0.3-0.4c0-1.2,0-2.4-0.1-3.5l2.1-9.3l2.7,1.1L159.8,538.6z M160.9,523.6l-4.3-1.6l-0.2-1.9l5.2,0.7
		L160.9,523.6z M156.5,552.9l-0.1,1.3l-0.9,0.5c0.3-0.5,0.6-1.1,0.8-1.6L156.5,552.9z M156.5,568.2l2.9,0.5l0.3,4.8l-3.4-1.5
		L156.5,568.2z M159.6,554l3.5-1.9l9.2,17.4l-12-2.1L159.6,554z M164,551.6l3-1.6l16.1,21.4l-9.4-1.6L164,551.6z M165.2,545.7
		l15.6-12.9l9,3.5l-22.6,12.1L165.2,545.7z M164.4,544.7l-3.8-5.1l4.7-12.8l14.1,5.4L164.4,544.7z M164.8,525.1l-2.9-1.1l0.7-3.1
		l3.6,0.5L164.8,525.1z M161.9,519.4l-5.7-0.8l-1.2-9.2l10.9-7.8L161.9,519.4z M155.4,520.5c-0.1-0.2-0.2-0.4-0.3-0.6l0.3,0
		L155.4,520.5z M156.3,555.7l-0.7,11l-10.6-1.8c3.6-1.4,6.7-4.2,9.2-8L156.3,555.7z M149.1,570.6l6,2.6l-1.1,16.1l-7.9-13.1
		L149.1,570.6z M145.5,575.1l-1.2-2l2.6-3.4l1.3,0.5 M147.7,568.5l0.2-0.2l-0.7-1l-0.6,0.8l-4.8-2l-0.3,1.3l4.3,1.8l-2.2,2.9
		l-3.7-6.1c0.7,0,1.3-0.1,2-0.2l13.5,2.3l-0.2,3.7L147.7,568.5z M142.9,573l-2,2.6l-4.2-10c0.5,0.1,1,0.2,1.5,0.2c0.1,0,0.3,0,0.4,0
		L142.9,573z M149.5,513.4l1.9-1.3l1.1,4.1C151.5,515.1,150.5,514.2,149.5,513.4z M148.4,512.5c-0.9-0.6-1.8-1.1-2.7-1.5l4.3-4.5
		l1,4.1L148.4,512.5z M144.3,510.6c-0.6-0.2-1.2-0.3-1.9-0.4l-4.6-5.5l6.6-19.5l5.1,19.9L144.3,510.6z M140.7,510
		c-1.2,0-2.4,0-3.6,0.3l-0.9-0.7l1.2-3.5L140.7,510z M134.6,511.1c-0.7,0.3-1.5,0.6-2.2,1.1l0.7-3.5l1.8,1.5L134.6,511.1z
		 M134.6,565l-5.8,2.1l0.1-2.9l3.2-0.4C132.9,564.3,133.7,564.7,134.6,565z M128.9,562.8l0-1.3c0.4,0.4,0.9,0.8,1.4,1.1L128.9,562.8
		z M131.3,512.9c-2.6,1.8-4.9,4.5-6.8,7.7l0,0l-3.7-22.3l11.6,9.6L131.3,512.9z M120.2,543.9l-1.8-1.9l1.7-2.1
		c0.1,1.2,0.2,2.4,0.3,3.6L120.2,543.9z M121,546.5c0.4,1.9,1,3.8,1.6,5.5l-4.1-2.9l1.9-3.2L121,546.5z M119.6,545l-2,3.4l-2.8-2
		l2.9-3.5L119.6,545z M117.8,550.2l5.9,4.2c0.6,1.2,1.3,2.4,2.1,3.4l-0.8,5.5l-16,1.9L117.8,550.2z M123.7,522.3
		c-0.6,1.3-1.2,2.7-1.7,4.1l-1.3-4.3l2.9,0L123.7,522.3z M121.4,528.2c-0.7,2.5-1.1,5.1-1.3,7.9c0,0.7,0,1.3,0,2l-2.5,3l-9.4-9.8
		L121.4,528.2L121.4,528.2z M116.8,542.1l-3,3.6L97.1,534l9.7-2.3L116.8,542.1z M113.9,547.4l3,2.1l-9.3,15.8l-9.4,1.1L113.9,547.4z
		 M106.6,566.8l-6.4,10.8l-16.3,6l13-15.7L106.6,566.8z M108,566.7l16.7-2l-0.6,4.2l-22.3,8.2L108,566.7z M125.8,564.6l2.1-0.2
		l-0.1,3.2l-2.6,1 M126,563.2l0.6-4.2c0.4,0.6,0.9,1.1,1.4,1.6l0,2.4L126,563.2z M128.2,594.3l12.5-16.5l1.5,3.5l-14.2,26.4
		L128.2,594.3z M141.4,576.8l2.1-2.8l1.3,2.2l-2.1,3.9L141.4,576.8z M145.5,577.3l8.4,13.9l-0.9,13.3l-9.7-23.1L145.5,577.3z
		 M154.8,592.7l6.4,10.6l1.3,23.7l-8.6-20.5L154.8,592.7z M154.9,590.7l1.2-17.2l3.6,1.5l1.4,25.8L154.9,590.7z M160.3,568.9
		l12.8,2.2l5.6,10.6l-18.1-7.7L160.3,568.9z M174.5,571.3l9.8,1.7l12.2,16.2l-16.2-6.9L174.5,571.3z M180.6,531.2l-14.8-5.7l1.5-4
		l21.6,2.9L180.6,531.2z M166.7,520l-3.7-0.5l4.3-18.9l8.9-6.4L166.7,520z M167.7,498.7l3.2-14.2l14.4-15.2L177,492L167.7,498.7z
		 M166.4,499.6l-11.6,8.3l-0.7-5.7l15.4-16.2L166.4,499.6z M155.2,518.5l-0.1,1.3c-0.3-0.6-0.7-1.1-1.1-1.6l-1.7-6.8l1.8-1.3
		L155.2,518.5z M151.9,510l-1.1-4.3l2.4-2.5l0.7,5.5L151.9,510z M150.4,504.2l-5.3-20.8l4.1-12l3.8,30.2L150.4,504.2z M144.6,481.6
		l-3.4-13.1l4.6-23l3,23.6L144.6,481.6z M144,483.3l-6.9,20.4l-2.4-2.8l6.1-30.2L144,483.3z M136.6,505.1l-1.2,3.7l-1.9-1.6l1-4.7
		L136.6,505.1z M132.6,506.5l-12.2-10.1l-2.2-13.4l15.4,18.5L132.6,506.5z M119.1,495.4l-8.8-7.3l-6.9-22.6l13.3,15.9L119.1,495.4z
		 M119.5,497.3l3.9,23.3l-3.1,0l-9.2-30.3L119.5,497.3z M121,526.8l-13.9,3.3l-7.7-8.1l20.2,0.1L121,526.8z M105.7,530.5l-10.1,2.4
		L80.1,522l17.5,0.1L105.7,530.5z M30.6,599.4l-1,0.6c0-0.1-0.1-0.3-0.1-0.4l1.1-0.6c-0.7-2.6-1.3-5.2-1.9-7.8l-1.1,0.6
		c0-0.1-0.1-0.3-0.1-0.4l1.1-0.5c-0.6-2.6-1.1-5.3-1.7-7.9l-1.1,0.5c0-0.2,0-0.3-0.1-0.5l1.1-0.4c-0.4-2.1-0.7-4.2-1.1-6.3l69.5-8.1
		l-13.5,16.3l-50.1,18.4C31.3,601.7,31,600.6,30.6,599.4z M42.6,631.7c-0.3-0.6-0.6-1.1-0.8-1.7l-0.9,0.9c-0.1-0.1-0.1-0.3-0.2-0.4
		l1-0.9c-1.1-2.3-2.1-4.6-3.1-7l-1,0.9c-0.1-0.1-0.1-0.3-0.2-0.4l1-0.8c-1-2.4-1.9-4.8-2.8-7.2l-1,0.8c0-0.1-0.1-0.3-0.1-0.4l1-0.7
		c-0.9-2.4-1.7-4.9-2.5-7.4l-1,0.7c-0.1-0.2-0.1-0.3-0.1-0.4l1-0.6c-0.3-0.9-0.6-1.9-0.8-2.9l48-17.6L42.6,631.7z M55.1,653.8
		c-0.8-1.1-1.5-2.2-2.3-3.3l-0.8,1.1c-0.1-0.1-0.1-0.2-0.2-0.3l0.9-1.1c-1.3-2-2.6-4.1-3.8-6.3L48,645c-0.1-0.1-0.1-0.2-0.2-0.3
		l0.9-1c-1.2-2.1-2.4-4.3-3.6-6.5l-0.9,1c-0.1-0.1-0.1-0.2-0.2-0.4l0.9-0.9c-0.7-1.3-1.3-2.6-1.9-3.9l39-47.2l17-6.2L55.1,653.8z
		 M66.2,668.1l-0.7,1.3c-0.1-0.1-0.2-0.2-0.3-0.3l0.7-1.2c-1.5-1.7-3-3.5-4.4-5.3l-0.8,1.3c-0.1-0.1-0.1-0.2-0.2-0.3l0.8-1.2
		c-1.4-1.8-2.9-3.7-4.2-5.6l-0.8,1.2c-0.1-0.1-0.2-0.2-0.2-0.3l0.8-1.1c-0.4-0.5-0.7-1.1-1.1-1.6l44.9-75.9l23.2-8.5l-4.8,34
		l-50.4,66.5C67.9,670,67,669.1,66.2,668.1z M81.3,682.6l-0.6,1.5c-0.1-0.1-0.2-0.2-0.3-0.2l0.6-1.4c-1.7-1.4-3.3-2.8-5-4.2
		l-0.6,1.4c-0.1-0.1-0.2-0.2-0.3-0.3l0.6-1.3c-1.6-1.5-3.2-3-4.8-4.6l-0.6,1.4c-0.1-0.1-0.2-0.2-0.3-0.3l0.7-1.3
		c-0.4-0.4-0.8-0.9-1.3-1.4l49.2-65l-3.5,24.5l-29.4,54.8C84.3,685,82.8,683.8,81.3,682.6z M86.1,688.1c-0.1,0-0.1-0.1-0.2-0.1
		l0.5-1L86.1,688.1z M105.9,697.2c-0.8-0.3-1.5-0.6-2.3-0.9l-0.3,1.5c-0.1,0-0.2-0.1-0.3-0.1l0.4-1.5c-1.9-0.8-3.7-1.7-5.5-2.7
		l-0.4,1.5c-0.1,0-0.2-0.1-0.3-0.1l0.4-1.5c-1.8-1-3.6-2-5.4-3.1l-0.4,1.5c-0.1-0.1-0.2-0.1-0.3-0.2l0.5-1.5
		c-1.8-1.1-3.5-2.2-5.2-3.4l28.1-52.3L105.9,697.2z M121.4,702l-0.2,1.6c-0.1,0-0.2,0-0.3-0.1l0.2-1.6c-1.9-0.4-3.8-0.9-5.7-1.4
		l-0.2,1.6c-0.1,0-0.2-0.1-0.3-0.1l0.3-1.6c-1.9-0.6-3.8-1.2-5.7-1.8l-0.3,1.6c-0.1,0-0.2-0.1-0.3-0.1l0.3-1.5
		c-0.8-0.3-1.6-0.6-2.4-0.9l9.4-65.8l10.6-19.8l-1.9,90.6C123.8,702.4,122.6,702.2,121.4,702z M145.9,705c-0.1,0-0.2,0-0.3,0l0-1.6
		c-1.9,0.2-3.9,0.3-5.8,0.3l0,1.6c-0.1,0-0.2,0-0.3,0l0-1.6c-1.9,0-3.9,0-5.9-0.1l0,1.6c-0.1,0-0.2,0-0.3,0l0.1-1.6
		c-1-0.1-1.9-0.1-2.9-0.2c-1-0.1-1.9-0.2-2.9-0.4l-0.1,1.6c-0.1,0-0.2,0-0.3,0l0.1-1.6c-0.5-0.1-0.9-0.2-1.3-0.2l2-92.6l14.8-27.5
		l10.1,24.2l-6.6,96.5c-0.1,0-0.3,0-0.4,0L145.9,705z M164,699.7l0.3,1.6c-0.1,0-0.2,0.1-0.3,0.1l-0.2-1.6c-1.9,0.6-3.8,1.1-5.8,1.6
		l0.2,1.6c-0.1,0-0.2,0.1-0.3,0.1l-0.2-1.6c-1.9,0.4-3.9,0.8-5.8,1.2l0.1,1.6c-0.1,0-0.2,0-0.3,0.1l-0.1-1.6c-1.5,0.2-3,0.4-4.4,0.5
		l6.5-94.3l8.9,21.3l3.7,68.7C165.5,699.1,164.8,699.4,164,699.7z M187.5,690.2l-0.4-1.5c-1.8,1.1-3.6,2.2-5.4,3.3l0.4,1.5
		c-0.1,0.1-0.2,0.1-0.3,0.2l-0.4-1.5c-1.8,1-3.7,2-5.5,2.9l0.4,1.5c-0.1,0-0.2,0.1-0.3,0.1l-0.3-1.5c-1.9,0.9-3.7,1.7-5.6,2.5
		l0.3,1.5c-0.1,0-0.2,0.1-0.3,0.1l-0.3-1.6c-0.8,0.3-1.7,0.6-2.5,0.9l-3.5-65.6l23.9,57.1C187.6,690.1,187.5,690.1,187.5,690.2z
		 M204,677.1c-0.1,0.1-0.2,0.2-0.3,0.2l-0.6-1.4c-1.6,1.5-3.3,3-5,4.4l0.6,1.4c-0.1,0.1-0.2,0.2-0.3,0.2l-0.5-1.4
		c-1.7,1.4-3.4,2.8-5.1,4.1l0.5,1.4c-0.1,0.1-0.2,0.2-0.3,0.2l-0.5-1.5c-1.5,1.1-3,2.1-4.6,3.2l-24.4-58.3l-1.3-24.7l42.1,69.7
		c-0.3,0.3-0.6,0.6-1,0.9L204,677.1z M217.9,659.7l0.8,1.2c-0.1,0.1-0.2,0.2-0.2,0.3l-0.7-1.2c-1.5,1.9-2.9,3.7-4.5,5.5l0.7,1.2
		c-0.1,0.1-0.2,0.2-0.3,0.3l-0.7-1.3c-1.5,1.8-3.1,3.5-4.7,5.1l0.7,1.3c-0.1,0.1-0.2,0.2-0.3,0.3l-0.6-1.3c-1,1-2,2-3.1,3l-43-71.3
		l-1.5-27.2l19,8.1l39.4,74.6C218.7,658.6,218.3,659.2,217.9,659.7z M230.6,640.6l0.9,1c-0.1,0.1-0.1,0.2-0.2,0.4l-0.9-1.1
		c-1.2,2.2-2.5,4.3-3.8,6.4l0.9,1.1c-0.1,0.1-0.1,0.2-0.2,0.4l-0.8-1.1c-1.3,2.1-2.7,4.1-4,6.1l0.8,1.1c-0.1,0.1-0.2,0.2-0.2,0.3
		l-0.8-1.2c-0.8,1.1-1.6,2.2-2.4,3.3l-38.5-72.9l16.8,7.1l34.4,45.7C231.8,638.3,231.2,639.5,230.6,640.6z M244.8,612.4l-1-0.7
		c-0.9,2.5-1.8,4.9-2.8,7.3l1,0.8c-0.1,0.1-0.1,0.3-0.2,0.4l-1-0.8c-1,2.4-2,4.8-3.1,7.1l1,0.8c-0.1,0.1-0.1,0.3-0.2,0.4l-0.9-0.9
		c-1.1,2.3-2.2,4.6-3.3,6.9l0.9,0.9c-0.1,0.1-0.1,0.2-0.2,0.4l-0.9-1c-0.4,0.7-0.8,1.4-1.1,2.1l-32.9-43.7l43.9,18.6
		c-0.1,0.1-0.1,0.2-0.1,0.4l1,0.7C244.9,612.1,244.9,612.2,244.8,612.4z M246.5,603.7c-0.1,0.3-0.2,0.6-0.3,0.8l-0.5,0.3
		c-0.4,0.2-0.5,0.8-0.4,1.3l0.2,0.5c-0.3,1-0.7,2-1,3l-45.9-19.5l-12.6-16.8l55.9,9.6c0,0,0,0.1,0,0.1l0.1,2.5
		c0,0.5,0.4,0.9,0.7,0.8l1.2-0.2c0,0.4,0.1,0.9,0.1,1.3l-1.2,0.4c-0.4,0.1-0.7,0.6-0.6,1.1l0.2,2.5c0.1,0.5,0.4,0.8,0.8,0.7l1.2-0.3
		c0.1,0.4,0.1,0.9,0.2,1.3l-1.2,0.5c-0.4,0.2-0.6,0.7-0.5,1.2l0.4,2.4c0.1,0.5,0.5,0.8,0.8,0.6l1.2-0.5c0.1,0.4,0.2,0.9,0.3,1.3
		l-1.2,0.6c-0.4,0.2-0.6,0.8-0.5,1.3l0.6,2.3c0.1,0.5,0.5,0.7,0.9,0.5l1.2-0.6c0,0.1,0.1,0.2,0.1,0.3c0,0.1,0,0.1-0.1,0.2l0.1,0.1
		c0.1,0.2,0.1,0.4,0.2,0.5L246.5,603.7z M247.5,551.3l1.1,0.7c-0.1,0.4-0.3,0.9-0.4,1.3l-1.2-0.5c-0.4-0.2-0.8,0.1-0.9,0.6l-0.7,2.4
		c-0.1,0.2-0.1,0.4,0,0.5L193,536l16.5-8.9l45.9,6.1l-0.7,1.1c-0.3,0.4-0.2,1,0,1.3l0.9,1c-0.2,0.4-0.4,0.8-0.6,1.1l-1-0.9
		c-0.3-0.3-0.8-0.2-1,0.3l-1.1,2.1c-0.2,0.4-0.2,1,0.1,1.3l1,0.9c-0.2,0.4-0.4,0.8-0.6,1.2l-1.1-0.8c-0.3-0.3-0.8-0.1-1,0.4l-1,2.2
		c-0.2,0.5-0.1,1.1,0.2,1.3l1.1,0.8c-0.2,0.4-0.4,0.8-0.5,1.2l-1.1-0.6c-0.4-0.2-0.8,0-1,0.5l-0.9,2.3
		C247,550.5,247.1,551.1,247.5,551.3z M255.5,558.9c0,0.4-0.1,0.8-0.1,1.2l-0.7-0.3C255,559.6,255.2,559.2,255.5,558.9z M252,588
		l-1.1-0.5c-0.4,1.5-0.7,3.1-1.1,4.6c-0.5-2.6-0.7-5.2-0.8-7.9l2.5,0.4c-0.2,0.8-0.3,1.7-0.5,2.5l1.1,0.4
		C252,587.7,252,587.8,252,588z M256.4,562.4l-1.1-0.3c-0.3,2.8-0.7,5.5-1.1,8.2l1.1,0.3c0,0.1,0,0.3-0.1,0.5l-1.1-0.4
		c-0.4,2.7-0.9,5.4-1.4,8.1l1.1,0.4c0,0.2-0.1,0.3-0.1,0.5l-1.1-0.4c-0.2,1.4-0.6,2.7-0.8,4.1l-2.8-0.5c0-7.1,1.6-14.4,4.6-21
		c0.1-0.2,0.2-0.4,0.4-0.7l1.3,0.5c0,0,0,0.1,0,0.2l0.7,0.1l0.4,0.2C256.4,562.1,256.4,562.2,256.4,562.4z M256.7,532
		c-0.1,0-0.1,0-0.2,0l-44.9-6l42.8-23c0.3,2.3,0.6,4.6,0.9,6.9l1.1-0.3c0,0.2,0,0.3,0.1,0.5l-1.2,0.2c0.3,2.7,0.6,5.5,0.8,8.2
		l1.1-0.2c0,0.1,0,0.3,0,0.5l-1.1,0.1c0.2,2.7,0.3,5.5,0.4,8.3l1.1-0.1c0,0.2,0,0.3,0,0.5l-1.1,0C256.6,529,256.6,530.5,256.7,532z
		 M267.3,622.9c-0.5-0.8-0.9-1.8-1.2-2.8c0-0.6-0.1-1.3-0.3-1.9c-0.1-1.4,0.1-2.9,0.5-4.3c1.2-0.1,2.1-0.9,2.5-2.2
		c0.2-0.7,0.2-1.5,0-2.2l15.8-20.3c0.5-0.7,1.1-1.2,1.7-1.7c1.2-0.8,2.5-1.1,3.7-1c1.2,12,3.2,29.7,5.2,46.7
		C285.1,637.3,274.2,633.5,267.3,622.9z M272.4,587.5c0.2-0.9,0.3-1.7,0.5-2.5c1.4-0.2,2.6-1.3,2.9-3c0.3-1.7-0.4-3.4-1.6-4.4
		c0.1-0.9,0.3-1.7,0.4-2.6c1.4-0.3,2.6-1.5,2.8-3.2c0.2-1.6-0.5-3.3-1.8-4.3c0-0.2,0-0.3,0.1-0.5l6.1,4.2c0.6,0.4,1.1,1,1.6,1.6
		c0.9,1.3,1.5,3,1.6,4.9c0.2,2.8-0.6,5.7-2.2,7.7l-11.1,14.3c-0.2-0.9-0.6-1.7-1.2-2.3c0.2-0.8,0.4-1.7,0.6-2.5
		c1.4-0.1,2.6-1.1,3-2.7C274.2,590.4,273.6,588.6,272.4,587.5z M303,628.3c-0.9-7.4-1.7-14.8-2.6-21.7l4,11.8
		C305.5,621.6,304.8,625.5,303,628.3z M317.1,619.9c-3.3,2-7,0.3-8.4-3.9l-8.9-26.4c-0.3-0.8-0.5-1.7-0.5-2.6
		c-0.1-1.8,0.2-3.7,0.9-5.4c1.1-2.6,3-4.4,5.1-4.9l22.8-5.3c3.5-0.8,6.7,2.3,7.2,6.9c0,0.1,0,0.3,0,0.4
		C336.5,595.7,329,612.6,317.1,619.9z M300,568.9c1.3,0.9,2.9,1.7,4.8,2.5c-0.4,0-0.9,0-1.3,0C302.2,571.1,301,570.3,300,568.9
		C300,568.9,300,568.9,300,568.9z M313.1,523.7c0.3,0.1,0.6,0.1,0.9,0.2l-0.6,1.1L313.1,523.7z M318.4,568.3l13.8-22.7
		c0.9,3.3,1.5,6.9,1.6,10.6c0.2,4.7-2.5,9.1-6,9.9L318.4,568.3z M476.8,232.8L318.4,516c-0.2-0.1-0.4-0.3-0.6-0.4l0.6-1.5
		c0.2-0.5,0.1-1.1-0.3-1.3l-1.7-1c-0.4-0.2-0.8,0-1,0.5l-0.6,1.6c-0.3-0.2-0.6-0.4-0.9-0.5l0.5-1.6c0.2-0.5,0-1.1-0.4-1.2l-1.7-0.8
		c-0.4-0.2-0.8,0.1-0.9,0.6l-0.2,0.8l-21.9-134.4L476.8,232.8z M292.2,558.4c0,0,0.6,0.5,1.5,1.1l0,0.1c-0.2,1-0.4,1.8-0.8,2.7
		c-0.7,1.7-1.8,3.1-3.1,4c-2,1.3-4.2,1.4-6,0.1l-5.6-3.8c0.1-0.3,0.2-0.6,0.2-0.9c0.1-1.7-0.7-3.3-2-4.2c0.1-0.9,0.1-1.7,0.2-2.6
		c1.4-0.5,2.5-1.9,2.5-3.6c0.1-1.7-0.8-3.2-2.1-4c0-0.9,0.1-1.7,0.1-2.6c1.4-0.6,2.4-2,2.4-3.7c0-1.7-0.9-3.2-2.3-3.8
		c0-0.9,0-1.8,0-2.6c1.4-0.7,2.3-2.2,2.3-3.9c0-1.7-1-3.1-2.4-3.6c0-0.9-0.1-1.8-0.1-2.6c0.9-0.6,1.6-1.5,1.9-2.6
		c2-0.9,4.1-1.6,6.3-1.9L292.2,558.4z M276.6,514l0.3,1.1c-0.1,0-0.1,0.1-0.2,0.1C276.7,514.8,276.6,514.4,276.6,514z M246.9,409.3
		l16.9-12.9l19.9,113.2c-0.1-0.1-0.3-0.1-0.5,0l-1.8,0.7c-0.4,0.1-0.6,0.7-0.5,1.2l0.3,1.6c-0.3,0.1-0.7,0.3-1,0.4l-0.4-1.5
		c-0.1-0.5-0.5-0.7-0.9-0.5l-0.5,0.2c0.2-0.6,0.3-1.2,0.3-1.9c-0.1-1.7-1.2-2.9-2.6-3.3c-0.1-0.9-0.2-1.8-0.3-2.6
		c1.3-1,2-2.7,1.8-4.3c-0.2-1.7-1.3-2.8-2.7-3.1c-0.1-0.9-0.3-1.7-0.4-2.6c1.2-1.1,1.9-2.8,1.6-4.5c-0.3-1.6-1.4-2.7-2.9-2.9
		c-0.2-0.8-0.3-1.7-0.5-2.6c1.2-1.2,1.8-3,1.4-4.6c-0.3-1.6-1.5-2.6-3-2.6c-0.2-0.9-0.4-1.7-0.6-2.5c1.1-1.3,1.7-3.1,1.3-4.7
		c-0.4-1.6-1.6-2.5-3.1-2.4c-0.2-0.8-0.4-1.7-0.7-2.5c1.1-1.4,1.6-3.2,1.1-4.8c-0.4-1.6-1.7-2.4-3.1-2.2c-0.2-0.8-0.5-1.6-0.8-2.4
		c1-1.4,1.5-3.3,0.9-4.8c-0.5-1.5-1.8-2.2-3.2-1.9c-0.3-0.8-0.6-1.6-0.8-2.3c1-1.5,1.3-3.4,0.8-4.9c-0.6-1.5-1.9-2.1-3.3-1.7
		c-0.3-0.8-0.6-1.5-0.9-2.2c0.9-1.6,1.2-3.5,0.6-5c-0.6-1.4-2-1.9-3.4-1.5c-0.3-0.7-0.7-1.5-1-2.2c0.9-1.6,1.1-3.6,0.4-5
		c-0.7-1.4-2.1-1.8-3.4-1.2c-0.4-0.7-0.7-1.4-1.1-2.1c0.8-1.7,1-3.7,0.2-5c-0.7-1.3-2.1-1.6-3.5-0.9c-0.4-0.7-0.8-1.3-1.2-2
		C246.8,411.3,247,410.2,246.9,409.3z M241.1,453.2l1-0.9c0.1,0.1,0.1,0.3,0.2,0.4l-1,0.8c1,2.4,1.9,4.8,2.8,7.2l1-0.8
		c0.1,0.1,0.1,0.3,0.2,0.4l-1,0.7c0.9,2.5,1.7,4.9,2.5,7.4l1-0.7c0,0.1,0.1,0.3,0.1,0.4l-1.1,0.6c0.6,2,1.2,4,1.8,6l-58.2,48.3
		l-22.6-3l10-27.1l61.5-44.1C239.9,450.4,240.5,451.8,241.1,453.2z M230.7,432l0.9-1.1c0.1,0.1,0.1,0.2,0.2,0.4l-0.9,1
		c1.2,2.1,2.4,4.3,3.5,6.5l0.9-1c0.1,0.1,0.1,0.3,0.2,0.4l-0.9,0.9c1.1,2.2,2.2,4.5,3.3,6.8l1-0.9c0.1,0.1,0.1,0.2,0.2,0.4l-1,0.9
		c0.2,0.5,0.4,1,0.7,1.6l-60.1,43.1l8.7-23.6l40.5-42.6l-0.8,1C228.3,427.7,229.5,429.8,230.7,432z M210.4,404.5
		c1,1.1,2,2.2,3.1,3.3l0.7-1.3c0.1,0.1,0.2,0.2,0.3,0.3l-0.7,1.2c1.5,1.7,3,3.5,4.4,5.3l0.7-1.2c0.1,0.1,0.2,0.2,0.2,0.3l-0.8,1.2
		c1.4,1.8,2.9,3.7,4.2,5.6l0.8-1.2c0.1,0.1,0.1,0.2,0.2,0.3l-0.8,1.1c1.2,1.6,2.3,3.3,3.4,5.1l-37.8,39.8L210.4,404.5z M192.8,389.1
		c0.1,0,0.1,0.1,0.2,0.1l0.5-1.5c0.1,0.1,0.2,0.1,0.3,0.2l-0.5,1.4c1.7,1.2,3.5,2.5,5.2,3.9l0.5-1.4c0.1,0.1,0.2,0.2,0.3,0.2
		l-0.6,1.4c1.7,1.4,3.3,2.8,5,4.3l0.6-1.4c0.1,0.1,0.2,0.2,0.3,0.2l-0.6,1.3c1.6,1.5,3.2,3,4.8,4.6l0.6-1.3c0.1,0.1,0.2,0.2,0.3,0.3
		l-0.7,1.3c0.3,0.3,0.5,0.5,0.7,0.8l-23.1,62.7l-15,15.7L192.8,389.1z M179.8,381.4c0.7,0.4,1.4,0.7,2.1,1l0.4-1.6
		c0.1,0,0.2,0.1,0.3,0.1l-0.4,1.5c1.8,1,3.6,2,5.4,3.1l0.4-1.5c0.1,0.1,0.2,0.1,0.3,0.2l-0.5,1.5c1.4,0.9,2.7,1.8,4.1,2.7
		l-21.8,95.1l-16.2,17l-4-31.4L179.8,381.4z M160.2,374.4c1.4,0.3,2.7,0.6,4,1l0.2-1.6c0.1,0,0.2,0.1,0.3,0.1l-0.3,1.6
		c1.9,0.6,3.8,1.2,5.7,1.8l0.3-1.6c0.1,0,0.2,0.1,0.3,0.1l-0.3,1.6c1.9,0.7,3.8,1.4,5.6,2.3l0.3-1.6c0.1,0,0.2,0.1,0.3,0.1l-0.4,1.5
		c0.8,0.4,1.7,0.8,2.5,1.2l-29.2,85.9l-3.1-24.5L160.2,374.4z M140,372.2l0-1.6c0.1,0,0.2,0,0.3,0l0,1.7c1.9,0,3.9,0,5.9,0.1l0-1.6
		c0.1,0,0.2,0,0.3,0l-0.1,1.6c1,0.1,1.9,0.1,2.9,0.2c1,0.1,2,0.2,2.9,0.3l0.1-1.6c0.1,0,0.2,0,0.3,0l-0.1,1.6c2,0.3,3.9,0.6,5.8,1
		l0.2-1.6c0.1,0,0.2,0,0.3,0.1l-0.2,1.6c0.3,0.1,0.5,0.1,0.8,0.2l-13.1,65.1l-8.5-66.9C138.4,372.3,139.2,372.2,140,372.2z
		 M121.7,374.6l-0.2-1.6c0.1,0,0.2-0.1,0.3-0.1l0.2,1.6c1.9-0.5,3.9-0.8,5.8-1.2l-0.1-1.6c0.1,0,0.2,0,0.3-0.1l0.1,1.6
		c1.9-0.3,3.9-0.6,5.8-0.7l-0.1-1.6c0.1,0,0.2,0,0.3,0l0,1.6c0.8-0.1,1.7-0.1,2.6-0.1l8.8,69.9l-4.8,23.9l-23.2-90.5
		C118.9,375.3,120.3,374.9,121.7,374.6z M103.8,381l-0.4-1.5c0.1-0.1,0.2-0.1,0.3-0.1l0.3,1.6c1.9-0.9,3.7-1.7,5.6-2.5l-0.3-1.6
		c0.1,0,0.2-0.1,0.3-0.1l0.3,1.6c1.9-0.7,3.8-1.4,5.7-2l-0.2-1.6c0.1,0,0.2-0.1,0.3-0.1l0.2,1.6c0.2-0.1,0.4-0.1,0.6-0.2l23.7,92.5
		l-6.3,31.5l-16.2-19.3l-16.5-98.3C102.1,381.9,102.9,381.4,103.8,381z M86.9,391.2l-0.6-1.4c0.1-0.1,0.2-0.1,0.3-0.2l0.5,1.5
		c1.7-1.3,3.5-2.5,5.3-3.7l-0.5-1.4c0.1-0.1,0.2-0.1,0.3-0.2l0.4,1.5c1.8-1.2,3.6-2.2,5.4-3.3l-0.4-1.5c0.1-0.1,0.2-0.1,0.3-0.2
		l0.4,1.5c0.6-0.4,1.3-0.7,1.9-1l16.2,96.2l-13.9-16.6L82,395.1C83.6,393.7,85.2,392.5,86.9,391.2z M66.4,410.5l-0.7-1.2
		c0.1-0.1,0.2-0.2,0.3-0.3l0.7,1.3c1.5-1.8,3.1-3.5,4.7-5.1l-0.7-1.3c0.1-0.1,0.2-0.2,0.3-0.3l0.7,1.3c1.6-1.7,3.2-3.3,4.8-4.8
		l-0.6-1.3c0.1-0.1,0.2-0.2,0.3-0.2l0.6,1.4c1.5-1.4,3.1-2.8,4.6-4.1l19.6,64.6l-38-45.4C64,413.4,65.2,411.9,66.4,410.5z M48.4,434
		l0.9,1c1.2-2.2,2.5-4.3,3.8-6.4l-0.9-1c0.1-0.1,0.2-0.2,0.2-0.3l0.8,1.1c1.3-2.1,2.7-4.1,4-6.1l-0.8-1.1c0.1-0.1,0.2-0.2,0.2-0.3
		l0.8,1.2c1.4-2,2.8-3.9,4.3-5.8l-0.8-1.2c0.1-0.1,0.1-0.1,0.2-0.2l0.4,0.5l0.4,0.7c0,0,0.1-0.1,0.1-0.1l39.7,47.5l7.1,23.5
		l-60.5-50.1c0.2-0.4,0.5-0.9,0.7-1.4l-0.9-1C48.2,434.2,48.3,434.1,48.4,434z M37.8,455.8l1,0.8c1-2.4,2-4.8,3.1-7.1l-1-0.8
		c0-0.1,0.1-0.3,0.2-0.4l0.9,0.9c1.1-2.3,2.2-4.6,3.3-6.9l-1-0.9c0.1-0.1,0.1-0.2,0.2-0.4l0.9,1c0.7-1.4,1.5-2.7,2.2-4.1l61.8,51.2
		l9.6,31.6l-21.2,0L38.2,458c0.1-0.4,0.3-0.7,0.4-1.1l-1-0.8C37.7,456.1,37.8,455.9,37.8,455.8z M29.7,480.1c0-0.1,0.1-0.3,0.1-0.4
		l1.1,0.6c0.7-2.6,1.5-5.2,2.3-7.7l-1.1-0.6c0.1-0.2,0.1-0.3,0.1-0.4l1,0.7c0.8-2.5,1.6-5,2.5-7.5l-1-0.7c0-0.1,0.1-0.3,0.1-0.4
		l1,0.7c0.6-1.7,1.3-3.3,1.9-5l58.5,61.2l-18.2,0l-48.7-34.4c0.4-1.9,0.9-3.7,1.4-5.5L29.7,480.1z M23.3,513.5l1.1,0.3
		c0.3-2.8,0.7-5.5,1.1-8.2l-1.1-0.3c0-0.1,0-0.3,0.1-0.4l1.1,0.3c0.4-2.7,0.9-5.4,1.4-8.1l-1.1-0.4c0-0.1,0.1-0.3,0.1-0.4l1.1,0.4
		c0.5-2.7,1.1-5.4,1.7-8l-1.1-0.4c0-0.1,0.1-0.3,0.1-0.4l1.1,0.5c0.1-0.3,0.2-0.6,0.2-0.9l46.7,33l-51.9-0.1
		c0.2-2.1,0.4-4.2,0.6-6.2l-1.1-0.2C23.3,513.8,23.3,513.7,23.3,513.5z M22,531.4c0-0.2,0-0.3,0-0.5l1.1,0.1
		c0.1-1.4,0.1-2.8,0.2-4.1c0.1-1.4,0.2-2.8,0.3-4.1l-1.1-0.1c0-0.2,0-0.3,0-0.5l1.1,0.2c0-0.2,0.1-0.4,0.1-0.6l54.1,0.2l16.1,11.3
		l-70.7,16.9c0-0.5-0.1-0.9-0.1-1.4L22,549c0-0.1,0-0.3,0-0.5l1.1-0.1c-0.1-2.7-0.1-5.5-0.1-8.3l-1.1,0.1c0-0.2,0-0.3,0-0.5l1.2,0
		c0-2.7,0.1-5.5,0.2-8.3L22,531.4z"/>
</g>
</svg>
