<?xml version="1.0" encoding="utf-8"?>
<!-- Generator: Adobe Illustrator 18.1.1, SVG Export Plug-In . SVG Version: 6.00 Build 0)  -->
<svg version="1.1" id="Layer_1" xmlns="http://www.w3.org/2000/svg" xmlns:xlink="http://www.w3.org/1999/xlink" x="0px" y="0px"
	 viewBox="0 0 605.1 776.2" enable-background="new 0 0 605.1 776.2" xml:space="preserve">
<g>
	<g>
		<g>
			<g>
				<linearGradient id="SVGID_1_" gradientUnits="userSpaceOnUse" x1="22.8589" y1="426.7604" x2="405.9071" y2="426.7604">
					<stop  offset="0" style="stop-color:#CCCCCC"/>
					<stop  offset="2.784944e-03" style="stop-color:#CDCDCD"/>
					<stop  offset="6.985908e-02" style="stop-color:#E2E2E2"/>
					<stop  offset="0.1361" style="stop-color:#EEEEEE"/>
					<stop  offset="0.2" style="stop-color:#F2F2F2"/>
					<stop  offset="0.2865" style="stop-color:#E2E2E2"/>
					<stop  offset="0.4074" style="stop-color:#D2D2D2"/>
					<stop  offset="0.5" style="stop-color:#CCCCCC"/>
					<stop  offset="0.5857" style="stop-color:#D5D5D5"/>
					<stop  offset="0.7251" style="stop-color:#EDEDED"/>
					<stop  offset="0.75" style="stop-color:#F2F2F2"/>
					<stop  offset="1" style="stop-color:#E6E6E6"/>
				</linearGradient>
				<path fill="url(#SVGID_1_)" stroke="#DBDCDD" stroke-width="2" stroke-miterlimit="10" d="M365.6,730.6c0,6.5-49.9,22-151.2,22
					c-101.3,0-151.2-15.5-151.2-22L22.9,100.9h383L365.6,730.6z"/>
				<linearGradient id="SVGID_2_" gradientUnits="userSpaceOnUse" x1="15.5246" y1="95.0572" x2="413.2422" y2="95.0572">
					<stop  offset="0" style="stop-color:#D9D9D9"/>
					<stop  offset="2.345890e-03" style="stop-color:#D9D9D9"/>
					<stop  offset="0.1198" style="stop-color:#E7E7E7"/>
					<stop  offset="0.2625" style="stop-color:#F0F0F0"/>
					<stop  offset="0.5" style="stop-color:#F2F2F2"/>
					<stop  offset="0.7085" style="stop-color:#F0F0F0"/>
					<stop  offset="0.8338" style="stop-color:#E7E7E7"/>
					<stop  offset="0.9369" style="stop-color:#D9D9D9"/>
					<stop  offset="1" style="stop-color:#CCCCCC"/>
				</linearGradient>
				<path fill="url(#SVGID_2_)" stroke="#DBDCDD" stroke-width="2" stroke-miterlimit="10" d="M21.4,100.9c-3.2,0-5.9-2.6-5.9-5.9
					c0-3.2,2.6-5.9,5.9-5.9h386c3.2,0,5.9,2.6,5.9,5.9c0,3.2-2.6,5.9-5.9,5.9H21.4z"/>
			</g>
			<g>
				<linearGradient id="SVGID_3_" gradientUnits="userSpaceOnUse" x1="10.8979" y1="87.1448" x2="417.8695" y2="87.1448">
					<stop  offset="0" style="stop-color:#000000"/>
					<stop  offset="0.27" style="stop-color:#262626"/>
					<stop  offset="0.6" style="stop-color:#000000"/>
					<stop  offset="0.6788" style="stop-color:#090909"/>
					<stop  offset="0.8071" style="stop-color:#212121"/>
					<stop  offset="0.83" style="stop-color:#262626"/>
					<stop  offset="0.8469" style="stop-color:#212121"/>
					<stop  offset="0.9417" style="stop-color:#090909"/>
					<stop  offset="1" style="stop-color:#000000"/>
				</linearGradient>
				<path fill="url(#SVGID_3_)" stroke="#231F20" stroke-width="2" stroke-miterlimit="10" d="M10.9,81.9c0-2.4,1.9-4.3,4.3-4.3
					h398.4c2.4,0,4.3,1.9,4.3,4.3v14.8h-407V81.9z"/>
				<linearGradient id="SVGID_4_" gradientUnits="userSpaceOnUse" x1="-7.030849e-06" y1="110.013" x2="428.7675" y2="110.013">
					<stop  offset="0" style="stop-color:#000000"/>
					<stop  offset="0.27" style="stop-color:#262626"/>
					<stop  offset="0.6" style="stop-color:#000000"/>
					<stop  offset="0.6788" style="stop-color:#090909"/>
					<stop  offset="0.8071" style="stop-color:#212121"/>
					<stop  offset="0.83" style="stop-color:#262626"/>
					<stop  offset="0.8469" style="stop-color:#212121"/>
					<stop  offset="0.9417" style="stop-color:#090909"/>
					<stop  offset="1" style="stop-color:#000000"/>
				</linearGradient>
				<path fill="url(#SVGID_4_)" stroke="#231F20" stroke-width="2" stroke-miterlimit="10" d="M0,113c0-3.3,1.2-5.9,4.4-5.9h419.9
					c3.3,0,4.4,2.6,4.4,5.9H0z"/>
				<linearGradient id="SVGID_5_" gradientUnits="userSpaceOnUse" x1="4.522" y1="101.8772" x2="424.2447" y2="101.8772">
					<stop  offset="0" style="stop-color:#000000"/>
					<stop  offset="0.3" style="stop-color:#262626"/>
					<stop  offset="0.6" style="stop-color:#000000"/>
					<stop  offset="0.6686" style="stop-color:#090909"/>
					<stop  offset="0.7801" style="stop-color:#212121"/>
					<stop  offset="0.8" style="stop-color:#262626"/>
					<stop  offset="0.8199" style="stop-color:#212121"/>
					<stop  offset="0.9314" style="stop-color:#090909"/>
					<stop  offset="1" style="stop-color:#000000"/>
				</linearGradient>
				<polygon fill="url(#SVGID_5_)" stroke="#231F20" stroke-width="2" stroke-miterlimit="10" points="422.8,96.5 6,96.5 4.5,107.2 
					424.2,107.2 				"/>
				<linearGradient id="SVGID_6_" gradientUnits="userSpaceOnUse" x1="23.7701" y1="38.8749" x2="408.6148" y2="38.8749">
					<stop  offset="0" style="stop-color:#000000"/>
					<stop  offset="0.3" style="stop-color:#262626"/>
					<stop  offset="0.6" style="stop-color:#000000"/>
					<stop  offset="0.6686" style="stop-color:#090909"/>
					<stop  offset="0.7801" style="stop-color:#212121"/>
					<stop  offset="0.8" style="stop-color:#262626"/>
					<stop  offset="0.8199" style="stop-color:#212121"/>
					<stop  offset="0.9314" style="stop-color:#090909"/>
					<stop  offset="1" style="stop-color:#000000"/>
				</linearGradient>
				<path fill="url(#SVGID_6_)" stroke="#231F20" stroke-width="2" stroke-miterlimit="10" d="M408.6,77.7V41.1
					C408.6,15.2,329.2,0,216.2,0C103.2,0,23.8,15.2,23.8,41.1v36.7H408.6z"/>
			</g>
		</g>
		<linearGradient id="SVGID_7_" gradientUnits="userSpaceOnUse" x1="214.383" y1="752.5955" x2="214.383" y2="617.2545">
			<stop  offset="0" style="stop-color:#231F20"/>
			<stop  offset="1" style="stop-color:#231F20;stop-opacity:0"/>
		</linearGradient>
		<path opacity="0.15" fill="url(#SVGID_7_)" d="M55.9,617.3l7.3,113.3c0,6.5,49.9,22,151.2,22c101.3,0,151.2-15.5,151.2-22
			l7.3-113.3H55.9z"/>
	</g>
	<linearGradient id="SVGID_8_" gradientUnits="userSpaceOnUse" x1="29.3901" y1="399.0402" x2="399.3752" y2="399.0402">
		<stop  offset="0" style="stop-color:#B99664"/>
		<stop  offset="5.916107e-02" style="stop-color:#BD9F6F"/>
		<stop  offset="0.1562" style="stop-color:#C1A87C"/>
		<stop  offset="0.25" style="stop-color:#C2AB80"/>
		<stop  offset="0.5" style="stop-color:#B99664"/>
		<stop  offset="0.75" style="stop-color:#C2AB80"/>
		<stop  offset="1" style="stop-color:#B99664"/>
	</linearGradient>
	<path fill="url(#SVGID_8_)" d="M398,235.7c0,0-57.8-5-183.6-5s-183.6,5-183.6,5c-0.8,0.1-1.4,0.8-1.4,1.6L50,559.4
		c0.1,0.8,0.8,1.5,1.6,1.6c0,0,74.7,6.5,162.8,6.5s162.8-6.5,162.8-6.5c0.8-0.1,1.5-0.8,1.6-1.6l20.6-322.1
		C399.4,236.5,398.8,235.7,398,235.7z"/>
</g>
<g>
	<g>
		<linearGradient id="SVGID_9_" gradientUnits="userSpaceOnUse" x1="309.1414" y1="529.2434" x2="599.4955" y2="529.2434">
			<stop  offset="0" style="stop-color:#CCCCCC"/>
			<stop  offset="2.784944e-03" style="stop-color:#CDCDCD"/>
			<stop  offset="6.985908e-02" style="stop-color:#E2E2E2"/>
			<stop  offset="0.1361" style="stop-color:#EEEEEE"/>
			<stop  offset="0.2" style="stop-color:#F2F2F2"/>
			<stop  offset="0.2865" style="stop-color:#E2E2E2"/>
			<stop  offset="0.4074" style="stop-color:#D2D2D2"/>
			<stop  offset="0.5" style="stop-color:#CCCCCC"/>
			<stop  offset="0.5857" style="stop-color:#D5D5D5"/>
			<stop  offset="0.7251" style="stop-color:#EDEDED"/>
			<stop  offset="0.75" style="stop-color:#F2F2F2"/>
			<stop  offset="1" style="stop-color:#E6E6E6"/>
		</linearGradient>
		<path fill="url(#SVGID_9_)" stroke="#DBDCDD" stroke-width="2" stroke-miterlimit="10" d="M568.9,759.5
			c0,4.9-37.8,16.7-114.6,16.7c-76.8,0-114.6-11.8-114.6-16.7l-30.6-477.3h290.4L568.9,759.5z"/>
		<linearGradient id="SVGID_10_" gradientUnits="userSpaceOnUse" x1="303.5819" y1="277.8095" x2="605.0556" y2="277.8095">
			<stop  offset="0" style="stop-color:#D9D9D9"/>
			<stop  offset="2.345890e-03" style="stop-color:#D9D9D9"/>
			<stop  offset="0.1198" style="stop-color:#E7E7E7"/>
			<stop  offset="0.2625" style="stop-color:#F0F0F0"/>
			<stop  offset="0.5" style="stop-color:#F2F2F2"/>
			<stop  offset="0.7085" style="stop-color:#F0F0F0"/>
			<stop  offset="0.8338" style="stop-color:#E7E7E7"/>
			<stop  offset="0.9369" style="stop-color:#D9D9D9"/>
			<stop  offset="1" style="stop-color:#CCCCCC"/>
		</linearGradient>
		<path fill="url(#SVGID_10_)" stroke="#DBDCDD" stroke-width="2" stroke-miterlimit="10" d="M308,282.3c-2.5,0-4.4-2-4.4-4.4
			c0-2.5,2-4.4,4.4-4.4h292.6c2.5,0,4.4,2,4.4,4.4c0,2.5-2,4.4-4.4,4.4H308z"/>
	</g>
	<linearGradient id="SVGID_11_" gradientUnits="userSpaceOnUse" x1="454.3185" y1="776.2292" x2="454.3185" y2="673.6395">
		<stop  offset="0" style="stop-color:#231F20"/>
		<stop  offset="1" style="stop-color:#231F20;stop-opacity:0"/>
	</linearGradient>
	<path opacity="0.15" fill="url(#SVGID_11_)" d="M334.2,673.6l5.5,85.9c0,4.9,37.8,16.7,114.6,16.7c76.8,0,114.6-11.8,114.6-16.7
		l5.5-85.9H334.2z"/>
</g>
</svg>
