<?xml version="1.0" encoding="utf-8"?>
<!-- Generator: Adobe Illustrator 18.1.1, SVG Export Plug-In . SVG Version: 6.00 Build 0)  -->
<svg version="1.1" id="Layer_1" xmlns="http://www.w3.org/2000/svg" xmlns:xlink="http://www.w3.org/1999/xlink" x="0px" y="0px"
	 viewBox="0 0 900.5 363.6" enable-background="new 0 0 900.5 363.6" xml:space="preserve">
<line fill="none" stroke="#CCCCCC" stroke-miterlimit="10" x1="451" y1="184.7" x2="560" y2="184.7"/>
<g>
	<g opacity="0.6">
		<g>
			<line fill="none" stroke="#CCCCCC" stroke-miterlimit="10" x1="265.4" y1="0" x2="267.4" y2="2.2"/>
			
				<line fill="none" stroke="#CCCCCC" stroke-miterlimit="10" stroke-dasharray="5.9387,5.9387" x1="271.4" y1="6.6" x2="588.4" y2="356.4"/>
			<line fill="none" stroke="#CCCCCC" stroke-miterlimit="10" x1="590.4" y1="358.6" x2="592.4" y2="360.9"/>
		</g>
	</g>
	<g opacity="0.6">
		<g>
			<line fill="none" stroke="#CCCCCC" stroke-miterlimit="10" x1="303.6" y1="0" x2="305.6" y2="2.2"/>
			
				<line fill="none" stroke="#CCCCCC" stroke-miterlimit="10" stroke-dasharray="5.9387,5.9387" x1="309.6" y1="6.6" x2="626.7" y2="356.4"/>
			<line fill="none" stroke="#CCCCCC" stroke-miterlimit="10" x1="628.7" y1="358.6" x2="630.7" y2="360.9"/>
		</g>
	</g>
	<g opacity="0.6">
		<g>
			<line fill="none" stroke="#CCCCCC" stroke-miterlimit="10" x1="639.2" y1="0" x2="637.1" y2="2.2"/>
			
				<line fill="none" stroke="#CCCCCC" stroke-miterlimit="10" stroke-dasharray="5.9387,5.9387" x1="633.2" y1="6.6" x2="316.1" y2="356.4"/>
			<line fill="none" stroke="#CCCCCC" stroke-miterlimit="10" x1="314.1" y1="358.6" x2="312.1" y2="360.9"/>
		</g>
	</g>
	<g opacity="0.6">
		<g>
			<line fill="none" stroke="#CCCCCC" stroke-miterlimit="10" x1="599.5" y1="0" x2="597.5" y2="2.2"/>
			
				<line fill="none" stroke="#CCCCCC" stroke-miterlimit="10" stroke-dasharray="5.9387,5.9387" x1="593.5" y1="6.6" x2="276.5" y2="356.4"/>
			<line fill="none" stroke="#CCCCCC" stroke-miterlimit="10" x1="274.5" y1="358.6" x2="272.4" y2="360.9"/>
		</g>
	</g>
</g>
<g>
	<g>
		<line fill="none" stroke="#999999" stroke-miterlimit="10" x1="0" y1="184.7" x2="3" y2="184.7"/>
		<line fill="none" stroke="#999999" stroke-miterlimit="10" stroke-dasharray="6,6" x1="9" y1="184.7" x2="210" y2="184.7"/>
		<line fill="none" stroke="#999999" stroke-miterlimit="10" x1="213" y1="184.7" x2="216" y2="184.7"/>
	</g>
</g>
<g>
	<g>
		<line fill="none" stroke="#CCCCCC" stroke-miterlimit="10" x1="0" y1="93.7" x2="3" y2="93.7"/>
		<line fill="none" stroke="#CCCCCC" stroke-miterlimit="10" stroke-dasharray="6,6" x1="9" y1="93.7" x2="210" y2="93.7"/>
		<line fill="none" stroke="#CCCCCC" stroke-miterlimit="10" x1="213" y1="93.7" x2="216" y2="93.7"/>
	</g>
</g>
<line fill="none" stroke="#CCCCCC" stroke-miterlimit="10" x1="108" y1="139.7" x2="216" y2="139.7"/>
<line fill="none" stroke="#CCCCCC" stroke-miterlimit="10" x1="108" y1="229.7" x2="216" y2="229.7"/>
<g>
	<g>
		<line fill="none" stroke="#CCCCCC" stroke-miterlimit="10" x1="344" y1="142.7" x2="347" y2="142.7"/>
		<line fill="none" stroke="#CCCCCC" stroke-miterlimit="10" stroke-dasharray="6,6" x1="353" y1="142.7" x2="554" y2="142.7"/>
		<line fill="none" stroke="#CCCCCC" stroke-miterlimit="10" x1="557" y1="142.7" x2="560" y2="142.7"/>
	</g>
</g>
<g>
	<g>
		<line fill="none" stroke="#CCCCCC" stroke-miterlimit="10" x1="344" y1="226.7" x2="347" y2="226.7"/>
		<line fill="none" stroke="#CCCCCC" stroke-miterlimit="10" stroke-dasharray="6,6" x1="353" y1="226.7" x2="554" y2="226.7"/>
		<line fill="none" stroke="#CCCCCC" stroke-miterlimit="10" x1="557" y1="226.7" x2="560" y2="226.7"/>
	</g>
</g>
<g>
	<g>
		<line fill="none" stroke="#CCCCCC" stroke-miterlimit="10" x1="765" y1="114.7" x2="768" y2="114.7"/>
		<line fill="none" stroke="#CCCCCC" stroke-miterlimit="10" stroke-dasharray="6,6" x1="774" y1="114.7" x2="831" y2="114.7"/>
		<line fill="none" stroke="#CCCCCC" stroke-miterlimit="10" x1="834" y1="114.7" x2="837" y2="114.7"/>
	</g>
</g>
<g>
	<g>
		<line fill="none" stroke="#CCCCCC" stroke-miterlimit="10" x1="765" y1="255.7" x2="768" y2="255.7"/>
		<line fill="none" stroke="#CCCCCC" stroke-miterlimit="10" stroke-dasharray="6,6" x1="774" y1="255.7" x2="831" y2="255.7"/>
		<line fill="none" stroke="#CCCCCC" stroke-miterlimit="10" x1="834" y1="255.7" x2="837" y2="255.7"/>
	</g>
</g>
<g>
	<g>
		<line fill="none" stroke="#CCCCCC" stroke-miterlimit="10" x1="0" y1="273.7" x2="3" y2="273.7"/>
		<line fill="none" stroke="#CCCCCC" stroke-miterlimit="10" stroke-dasharray="6,6" x1="9" y1="273.7" x2="210" y2="273.7"/>
		<line fill="none" stroke="#CCCCCC" stroke-miterlimit="10" x1="213" y1="273.7" x2="216" y2="273.7"/>
	</g>
</g>
<g>
	<g>
		<line fill="none" stroke="#CCCCCC" stroke-miterlimit="10" stroke-dasharray="6,6" x1="57.5" y1="-0.8" x2="57.5" y2="378.2"/>
	</g>
</g>
<g>
	<g>
		<line fill="none" stroke="#CCCCCC" stroke-miterlimit="10" x1="158.5" y1="44.2" x2="158.5" y2="47.2"/>
		<line fill="none" stroke="#CCCCCC" stroke-miterlimit="10" stroke-dasharray="6,6" x1="158.5" y1="53.2" x2="158.5" y2="324.2"/>
		<line fill="none" stroke="#CCCCCC" stroke-miterlimit="10" x1="158.5" y1="327.2" x2="158.5" y2="330.2"/>
	</g>
</g>
<g>
	<g>
		<line fill="none" stroke="#CCCCCC" stroke-miterlimit="10" x1="817.5" y1="82.2" x2="817.5" y2="85.2"/>
		<line fill="none" stroke="#CCCCCC" stroke-miterlimit="10" stroke-dasharray="6,6" x1="817.5" y1="91.2" x2="817.5" y2="286.2"/>
		<line fill="none" stroke="#CCCCCC" stroke-miterlimit="10" x1="817.5" y1="289.2" x2="817.5" y2="292.2"/>
	</g>
</g>
<line fill="none" stroke="#CCCCCC" stroke-miterlimit="10" x1="801.5" y1="82.2" x2="801.5" y2="130.2"/>
<g>
	<g>
		<line fill="none" stroke="#CCCCCC" stroke-miterlimit="10" x1="785.5" y1="82.2" x2="785.5" y2="85.2"/>
		<line fill="none" stroke="#CCCCCC" stroke-miterlimit="10" stroke-dasharray="6,6" x1="785.5" y1="91.2" x2="785.5" y2="286.2"/>
		<line fill="none" stroke="#CCCCCC" stroke-miterlimit="10" x1="785.5" y1="289.2" x2="785.5" y2="292.2"/>
	</g>
</g>
<g>
	<path fill="#AAAAAA" d="M146.3,197.6c-7.8-8.9-18.1-13.4-30.9-13.4c-0.3,0-0.7,0-1.1,0c-0.4,0-0.6,0-1.1,0c-4.6,0-9.2,1.2-13.5,3.3
		c-4.4,2-7.8,4.8-10.4,8.8l-0.3,0.2v-12.3H57v140h32V264c3,3.3,6.7,5.6,11,7.3c4.2,1.8,8.7,2.9,13.2,2.9c0.4,0,0.8,0,1.2,0
		c0.4,0,0.8,0,1.2,0c12.5,0,22.9-4,30.7-13.1c7.9-9,11.9-19.6,11.9-31.7C158.3,217,154.3,206.6,146.3,197.6z M122,243.1
		c-3.4,3.8-8.2,5.8-14.5,5.8c-6.1-0.2-10.9-2.1-14.3-5.9c-3.4-3.8-5.1-8.3-5.1-13.5c0-5.4,1.7-9.9,5.1-13.7
		c3.4-3.7,8.3-5.5,14.3-5.5c6.2,0,10.9,1.8,14.5,5.5c3.4,3.7,5.1,8.3,5.1,13.7C127.2,234.8,125.5,239.3,122,243.1z"/>
</g>
<g>
	<path fill="#CCCCCC" d="M158.3,139c0-12.2-4.1-22.7-11.9-31.7c-7.9-9.1-18.2-13.1-30.7-13.1c-0.5,0-0.8,0-1.2,0c-0.4,0-0.8,0-1.2,0
		c-4.4,0-8.9,1-13.2,2.9c-4.4,1.8-8,4-11,7.3V44.2H57v140h32v-12.3l0.3,0.2c2.7,4.1,6.1,6.8,10.4,8.8c4.3,2.1,8.9,3.3,13.5,3.3
		c0.5,0,0.7,0,1.1,0c0.4,0,0.8,0,1.1,0c12.8,0,23.1-4.5,30.9-13.4C154.3,161.7,158.3,151.3,158.3,139z M127.2,138.8
		c0,5.4-1.7,10-5.1,13.7c-3.5,3.7-8.3,5.5-14.5,5.5c-6,0-10.9-1.8-14.3-5.5c-3.4-3.7-5.1-8.3-5.1-13.7c0-5.3,1.7-9.7,5.1-13.5
		c3.4-3.8,8.2-5.7,14.3-5.9c6.3,0,11.1,2,14.5,5.8C125.5,129,127.2,133.6,127.2,138.8z"/>
</g>
<g>
	<polygon fill="#AAAAAA" points="785.1,165 817.1,165 817.1,256 785.1,256 785.1,165 	"/>
	<path fill="#AAAAAA" d="M788.3,143.3c-3.5-3.5-5.4-7.8-5.4-12.8s1.8-9.3,5.4-12.8s7.7-5.4,12.7-5.4c5,0.2,9.2,2,12.8,5.5
		c3.5,3.5,5.4,7.7,5.4,12.7s-1.8,9.3-5.4,12.8c-3.5,3.5-7.8,5.4-12.8,5.4C796,148.5,791.8,146.8,788.3,143.3z"/>
</g>
<g>
	<path fill="#AAAAAA" d="M431,184.2l-36.7-41.4h41l16.3,18.8l16.3-18.8h41.6l-37.3,41.4c-0.1-5.6-2.1-10.4-6-14.3
		c-3.9-4-9-6.1-14.7-6.2c-5.8,0-10.7,2.1-14.7,6.1C433.2,173.6,431.1,178.3,431,184.2z"/>
	<path fill="#AAAAAA" d="M472.4,184.1l36.8,41.6H468l-16.4-18.9l-16.3,18.9h-41.8l37.4-41.6c0.1,5.6,2.1,10.4,6,14.3
		c3.9,4,9,6.1,14.8,6.2c5.8,0,10.7-2.1,14.8-6.1C470.3,194.7,472.3,190,472.4,184.1z"/>
</g>
<path fill="#FFFFFF" d="M575.6,198.8c-3.6,4.1-8.7,6.2-15.3,6.2c-6.5-0.2-11.6-2.2-15.2-6.2c-3.6-4.1-5.4-8.8-5.4-14.4
	c0-5.8,1.8-10.5,5.4-14.5c3.6-3.9,8.8-5.8,15.2-5.8c6.6,0,11.6,1.9,15.3,5.8c3.6,3.9,5.4,8.8,5.4,14.5
	C581,190,579.2,194.9,575.6,198.8z"/>
<path fill="#FFFFFF" d="M814.2,88.2c-3.1,3.5-7.4,5.3-13.1,5.3c-5.6-0.1-9.9-1.9-13-5.4c-3.1-3.5-4.7-7.5-4.7-12.3
	c0-4.9,1.5-9,4.7-12.4c3.1-3.3,7.5-5,13-5c5.6,0,9.9,1.7,13.1,5c3.1,3.3,4.7,7.5,4.7,12.4C818.8,80.7,817.3,84.8,814.2,88.2z"/>
<path fill="#FFFFFF" d="M231.2,153.8c-3.6,4.1-8.7,6.2-15.3,6.2c-6.5-0.2-11.6-2.2-15.2-6.2c-3.6-4.1-5.4-8.8-5.4-14.4
	c0-5.8,1.8-10.5,5.4-14.5c3.6-3.9,8.8-5.8,15.2-5.8c6.6,0,11.6,1.9,15.3,5.8c3.6,3.9,5.4,8.8,5.4,14.5
	C236.7,145,234.9,149.9,231.2,153.8z"/>
<path fill="#FFFFFF" d="M231.2,243.8c-3.6,4.1-8.7,6.2-15.3,6.2c-6.5-0.2-11.6-2.2-15.2-6.2c-3.6-4.1-5.4-8.8-5.4-14.4
	c0-5.8,1.8-10.5,5.4-14.5c3.6-3.9,8.8-5.8,15.2-5.8c6.6,0,11.6,1.9,15.3,5.8c3.6,3.9,5.4,8.8,5.4,14.5
	C236.7,235,234.9,239.9,231.2,243.8z"/>
</svg>
