<?xml version="1.0" encoding="utf-8"?>
<!-- Generator: Adobe Illustrator 18.1.1, SVG Export Plug-In . SVG Version: 6.00 Build 0)  -->
<svg version="1.1" id="Layer_1" xmlns="http://www.w3.org/2000/svg" xmlns:xlink="http://www.w3.org/1999/xlink" x="0px" y="0px"
	 viewBox="0 0 514 380.9" enable-background="new 0 0 514 380.9" xml:space="preserve">
<g>
	<g>
		<line fill="none" stroke="#999999" stroke-miterlimit="10" x1="0" y1="156.4" x2="3" y2="156.4"/>
		<line fill="none" stroke="#999999" stroke-miterlimit="10" stroke-dasharray="6,6" x1="9" y1="156.4" x2="508" y2="156.4"/>
		<line fill="none" stroke="#999999" stroke-miterlimit="10" x1="511" y1="156.4" x2="514" y2="156.4"/>
	</g>
</g>
<g>
	<g>
		<line fill="none" stroke="#CCCCCC" stroke-miterlimit="10" x1="0" y1="287.4" x2="3" y2="287.4"/>
		<line fill="none" stroke="#CCCCCC" stroke-miterlimit="10" stroke-dasharray="6,6" x1="9" y1="287.4" x2="508" y2="287.4"/>
		<line fill="none" stroke="#CCCCCC" stroke-miterlimit="10" x1="511" y1="287.4" x2="514" y2="287.4"/>
	</g>
</g>
<g>
	<g>
		<line fill="none" stroke="#CCCCCC" stroke-miterlimit="10" x1="0" y1="109.4" x2="3" y2="109.4"/>
		<line fill="none" stroke="#CCCCCC" stroke-miterlimit="10" stroke-dasharray="6,6" x1="9" y1="109.4" x2="508" y2="109.4"/>
		<line fill="none" stroke="#CCCCCC" stroke-miterlimit="10" x1="511" y1="109.4" x2="514" y2="109.4"/>
	</g>
</g>
<g opacity="0.6">
	<g>
		<line fill="none" stroke="#CCCCCC" stroke-miterlimit="10" x1="56" y1="0" x2="58" y2="2.2"/>
		
			<line fill="none" stroke="#CCCCCC" stroke-miterlimit="10" stroke-dasharray="5.9764,5.9764" x1="62" y1="6.7" x2="397.2" y2="376.4"/>
		<line fill="none" stroke="#CCCCCC" stroke-miterlimit="10" x1="399.2" y1="378.6" x2="401.2" y2="380.9"/>
	</g>
</g>
<g opacity="0.6">
	<g>
		<line fill="none" stroke="#CCCCCC" stroke-miterlimit="10" x1="96.4" y1="0" x2="98.4" y2="2.2"/>
		
			<line fill="none" stroke="#CCCCCC" stroke-miterlimit="10" stroke-dasharray="5.9764,5.9764" x1="102.4" y1="6.7" x2="437.5" y2="376.4"/>
		<line fill="none" stroke="#CCCCCC" stroke-miterlimit="10" x1="439.5" y1="378.6" x2="441.5" y2="380.9"/>
	</g>
</g>
<g opacity="0.6">
	<g>
		<line fill="none" stroke="#CCCCCC" stroke-miterlimit="10" x1="450.5" y1="0" x2="448.5" y2="2.2"/>
		
			<line fill="none" stroke="#CCCCCC" stroke-miterlimit="10" stroke-dasharray="5.9764,5.9764" x1="444.5" y1="6.7" x2="109.4" y2="376.4"/>
		<line fill="none" stroke="#CCCCCC" stroke-miterlimit="10" x1="107.3" y1="378.6" x2="105.3" y2="380.9"/>
	</g>
</g>
<g opacity="0.6">
	<g>
		<line fill="none" stroke="#CCCCCC" stroke-miterlimit="10" x1="408.7" y1="0" x2="406.6" y2="2.2"/>
		
			<line fill="none" stroke="#CCCCCC" stroke-miterlimit="10" stroke-dasharray="5.9764,5.9764" x1="402.6" y1="6.7" x2="67.5" y2="376.4"/>
		<line fill="none" stroke="#CCCCCC" stroke-miterlimit="10" x1="65.5" y1="378.6" x2="63.5" y2="380.9"/>
	</g>
</g>
<g>
	<g>
		<line fill="none" stroke="#999999" stroke-miterlimit="10" x1="64.5" y1="68.9" x2="64.5" y2="71.9"/>
		<line fill="none" stroke="#999999" stroke-miterlimit="10" stroke-dasharray="6,6" x1="64.5" y1="78.9" x2="64.5" y2="319.9"/>
		<line fill="none" stroke="#999999" stroke-miterlimit="10" x1="64.5" y1="322.9" x2="64.5" y2="325.9"/>
	</g>
</g>
<g>
	<g>
		<line fill="none" stroke="#999999" stroke-miterlimit="10" x1="447.5" y1="68.9" x2="447.5" y2="71.9"/>
		<line fill="none" stroke="#999999" stroke-miterlimit="10" stroke-dasharray="6,6" x1="447.5" y1="78.9" x2="447.5" y2="319.9"/>
		<line fill="none" stroke="#999999" stroke-miterlimit="10" x1="447.5" y1="322.9" x2="447.5" y2="325.9"/>
	</g>
</g>
<g>
	<g>
		<line fill="none" stroke="#CCCCCC" stroke-miterlimit="10" x1="253.5" y1="33.9" x2="253.5" y2="36.9"/>
		<line fill="none" stroke="#CCCCCC" stroke-miterlimit="10" stroke-dasharray="6,6" x1="253.5" y1="42.9" x2="253.5" y2="354.9"/>
		<line fill="none" stroke="#CCCCCC" stroke-miterlimit="10" x1="253.5" y1="357.9" x2="253.5" y2="360.9"/>
	</g>
</g>
<g>
	<g>
		<line fill="none" stroke="#999999" stroke-miterlimit="10" x1="0" y1="240.4" x2="3" y2="240.4"/>
		<line fill="none" stroke="#999999" stroke-miterlimit="10" stroke-dasharray="6,6" x1="9" y1="240.4" x2="508" y2="240.4"/>
		<line fill="none" stroke="#999999" stroke-miterlimit="10" x1="511" y1="240.4" x2="514" y2="240.4"/>
	</g>
</g>
<path fill="#00A8E0" d="M371.7,156c-0.4,0-0.8,0-1.2,0c-0.4,0-0.7,0-1.2,0c-4.2,0.4-8.3,1.4-12.3,3.1c-4,1.7-7.4,4.2-10.3,7.3v-57.3
	h-30.1v132.3h30.1v-11.5l0.3,0.1c2.4,3.7,5.7,6.5,9.8,8.3c4.1,1.9,8.3,3,12.7,3c0.3,0,0.6,0,1,0c0.3,0,0.6,0,1,0
	c11.9,0,21.7-4.1,29.3-12.6c7.6-8.5,11.3-18.4,11.3-30c0-11.5-3.7-21.4-11.2-30C393.3,160.2,383.6,156,371.7,156z M377.7,211.8
	c-3.2,3.5-7.8,5.2-13.6,5.2c-5.8,0-10.3-1.7-13.5-5.2c-3.2-3.5-4.8-7.8-4.8-12.9c0-4.8,1.6-9.1,4.8-12.7s7.8-5.5,13.5-5.5
	c5.9,0,10.3,1.7,13.6,5.5c3.2,3.6,4.8,7.8,4.8,12.7C382.4,204.1,380.9,208.3,377.7,211.8z M233.7,194.7l-34.4-38.9h38.5l15.3,17.6
	l15.3-17.6h39.1l-35,38.9c-0.1-5.3-1.9-9.7-5.6-13.4c-3.7-3.7-8.4-5.7-13.8-5.8c-5.4,0-10,1.9-13.8,5.7
	C235.7,184.8,233.8,189.2,233.7,194.7z M168.8,135.3c-3.3-3.4-5-7.4-5-12c0-4.7,1.7-8.8,5-12.1c3.4-3.3,7.4-5,12-5
	c4.7,0.1,8.7,1.9,12,5.2c3.3,3.3,5,7.3,5,11.9c0,4.7-1.7,8.7-5,12c-3.4,3.3-7.4,5-12,5C176.2,140.3,172.2,138.7,168.8,135.3z
	 M272.9,195.4l42.3,46h-39.7l-22-25.3l-22,25.3h-35.3h-4.6h-25.8v-85.6h30.5v80.5l37.7-40.9c0.1,5.3,1.9,9.7,5.5,13.4
	c3.7,3.7,8.4,5.7,13.8,5.7c5.4,0,10-1.9,13.8-5.7C270.7,205.1,272.5,200.6,272.9,195.4z M416.9,155.8h30.1v85.6h-30.1L416.9,155.8
	L416.9,155.8z M419.8,135.3c-3.3-3.3-5-7.3-5-12s1.7-8.8,5-12.1c3.3-3.3,7.3-5,11.9-5c4.7,0.1,8.6,1.9,12,5.2c3.3,3.3,5,7.3,5,11.9
	s-1.7,8.7-5,12c-3.3,3.3-7.3,5-12,5C427.1,140.3,423.1,138.7,419.8,135.3z M120,155.9c-0.3,0-0.6,0-1,0c-0.4,0-0.6,0-1,0
	c-4.3,0-8.6,1.1-12.7,3c-4.1,1.9-7.3,4.5-9.8,8.3l-0.3,0.1v-11.5H65.2v132.3h30.1v-57.3c2.8,3.1,6.2,5.6,10.3,7.3
	c4,1.7,8.1,2.7,12.3,3.1c0.4,0,0.8,0,1.2,0s0.7,0,1.2,0c11.8,0,21.5-4.2,28.9-12.7c7.4-8.5,11.2-18.6,11.2-30
	c0-11.6-3.7-21.5-11.3-30C141.7,160,132,155.9,120,155.9z M126.3,211.2c-3.2,3.6-7.7,5.5-13.6,5.5c-5.8-0.1-10.3-1.9-13.5-5.5
	c-3.2-3.6-4.8-7.8-4.8-12.7c0-5.1,1.6-9.4,4.8-12.9c3.2-3.5,7.8-5.2,13.5-5.2c5.8,0,10.3,1.7,13.6,5.2c3.2,3.5,4.8,7.8,4.8,12.9
	C131.1,203.3,129.5,207.7,126.3,211.2z"/>
</svg>
