<?xml version="1.0" encoding="utf-8"?>
<!-- Generator: Adobe Illustrator 18.1.1, SVG Export Plug-In . SVG Version: 6.00 Build 0)  -->
<svg version="1.1" id="Layer_1" xmlns="http://www.w3.org/2000/svg" xmlns:xlink="http://www.w3.org/1999/xlink" x="0px" y="0px"
	 viewBox="0 0 1024.3 644" enable-background="new 0 0 1024.3 644" xml:space="preserve">
<g>
	<path fill="#EEEEEE" d="M1024.3,2.9c0-1.6-1.3-2.9-2.9-2.9H2.9C1.3,0,0,1.3,0,2.9v28.9l0,609.3c0,1.6,1.3,2.9,2.9,2.9h1018.5
		c1.6,0,2.9-1.3,2.9-2.9L1024.3,2.9z M2.9,641.1V31.8h1018.5v609.3H2.9z"/>
	<circle fill="#FF6464" cx="16.8" cy="15.9" r="5.3"/>
	<circle fill="#F9D43A" cx="36.1" cy="15.9" r="5.3"/>
	<circle fill="#56E271" cx="55.4" cy="15.9" r="5.3"/>
	<path fill="#FFFFFF" d="M992,21.7c0,1.6-1.3,2.9-2.9,2.9H115.9c-1.6,0-2.9-1.3-2.9-2.9V10.1c0-1.6,1.3-2.9,2.9-2.9h873.2
		c1.6,0,2.9,1.3,2.9,2.9V21.7z"/>
	<path fill="#CCCCCC" d="M1010.6,12.8l-1.9,0c-0.4,0-0.6-0.3-0.6-0.6c0-0.3,0.3-0.6,0.6-0.6l3.4,0c0.4,0,0.6,0.3,0.6,0.6l0,0l0,3.4
		c0,0.3-0.3,0.6-0.6,0.6c-0.4,0-0.6-0.3-0.6-0.6l0-1.9l-5.3,5.3l1.9,0c0.3,0,0.6,0.3,0.6,0.6c0,0.3-0.3,0.6-0.6,0.6l-3.4,0l0,0l0,0
		h0h0c-0.3,0-0.5-0.3-0.6-0.6v0l0,0l0,0l0,0l0-3.4c0-0.3,0.3-0.6,0.6-0.6c0.3,0,0.6,0.3,0.6,0.6l0,1.9L1010.6,12.8z"/>
	<path fill="#CCCCCC" d="M81.3,14.9C81.3,14.9,81.3,14.8,81.3,14.9C81.3,14.8,81.3,14.9,81.3,14.9h-5.6l2.2-2.2
		c0.4-0.4,0.4-1.1,0-1.5c-0.4-0.4-1.1-0.4-1.5,0l-4,4l0,0l0,0v0l0,0c-0.3,0.4-0.3,0.9,0,1.4l0,0l0,0l0,0l0,0l3.9,4
		c0.4,0.4,1.1,0.4,1.5,0c0.4-0.4,0.4-1.1,0-1.5l-2.2-2.2h5.5c0,0,0,0,0,0c0,0,0,0,0,0c0.3,0,0.6-0.3,0.6-0.6v-0.8
		C81.9,15.1,81.7,14.9,81.3,14.9z"/>
	<path fill="#CCCCCC" d="M92.3,16.9C92.3,16.9,92.3,17,92.3,16.9C92.3,17,92.4,16.9,92.3,16.9h5.6l-2.2,2.2c-0.4,0.4-0.4,1.1,0,1.5
		c0.4,0.4,1.1,0.4,1.5,0l4-4l0,0l0,0v0l0,0c0.3-0.4,0.3-0.9,0-1.4l0,0l0,0l0,0l0,0l-3.9-4c-0.4-0.4-1.1-0.4-1.5,0
		c-0.4,0.4-0.4,1.1,0,1.5l2.2,2.2h-5.5c0,0,0,0,0,0c0,0,0,0,0,0c-0.3,0-0.6,0.3-0.6,0.6v0.8C91.7,16.7,92,16.9,92.3,16.9z"/>
</g>
</svg>
