<?xml version="1.0" encoding="utf-8"?>
<!-- Generator: Adobe Illustrator 18.1.1, SVG Export Plug-In . SVG Version: 6.00 Build 0)  -->
<svg version="1.1" id="Layer_1" xmlns="http://www.w3.org/2000/svg" xmlns:xlink="http://www.w3.org/1999/xlink" x="0px" y="0px"
	 viewBox="0 0 1082.4 711.5" enable-background="new 0 0 1082.4 711.5" xml:space="preserve">
<g>
	<path fill="#EEEEEE" d="M1082.4,3.1c0-1.7-1.4-3.1-3.1-3.1H3.1C1.4,0,0,1.4,0,3.1v30.5l0,674.8c0,1.7,1.4,3.1,3.1,3.1h1076.2
		c1.7,0,3.1-1.4,3.1-3.1L1082.4,3.1z M3.1,708.4V33.6h1076.2v674.8H3.1z"/>
	<circle fill="#FF6464" cx="17.7" cy="16.8" r="5.6"/>
	<circle fill="#F9D43A" cx="38.2" cy="16.8" r="5.6"/>
	<circle fill="#56E271" cx="58.6" cy="16.8" r="5.6"/>
	<path fill="#FFFFFF" d="M1048.2,22.9c0,1.7-1.4,3.1-3.1,3.1H122.5c-1.7,0-3.1-1.4-3.1-3.1V10.7c0-1.7,1.4-3.1,3.1-3.1h922.7
		c1.7,0,3.1,1.4,3.1,3.1V22.9z"/>
	<path fill="#CCCCCC" d="M1067.9,13.5l-2,0c-0.4,0-0.7-0.3-0.7-0.7c0-0.4,0.3-0.7,0.7-0.7l3.6,0c0.4,0,0.7,0.3,0.7,0.7l0,0l0,3.6
		c0,0.4-0.3,0.7-0.7,0.7c-0.4,0-0.7-0.3-0.7-0.7l0-2l-5.6,5.6l2,0c0.4,0,0.7,0.3,0.7,0.7c0,0.4-0.3,0.7-0.7,0.7l-3.6,0l0,0l0,0h0h0
		c-0.3,0-0.6-0.3-0.6-0.6v0l0,0l0,0l0,0l0-3.6c0-0.4,0.3-0.7,0.7-0.7c0.4,0,0.7,0.3,0.7,0.7l0,2L1067.9,13.5z"/>
	<path fill="#CCCCCC" d="M85.9,15.7C85.9,15.7,85.9,15.7,85.9,15.7C85.9,15.7,85.9,15.7,85.9,15.7H80l2.3-2.3c0.4-0.4,0.4-1.1,0-1.5
		c-0.4-0.4-1.1-0.4-1.6,0L76.6,16l0,0l0,0v0l0,0c-0.4,0.4-0.4,1,0,1.4l0,0l0,0l0,0l0,0l4.2,4.2c0.4,0.4,1.1,0.4,1.6,0
		c0.4-0.5,0.4-1.1,0-1.6L80,17.9h5.8c0,0,0,0,0,0c0,0,0,0,0,0c0.4,0,0.6-0.3,0.6-0.7v-0.9C86.6,16,86.3,15.7,85.9,15.7z"/>
	<path fill="#CCCCCC" d="M97.6,17.9C97.6,17.9,97.6,17.9,97.6,17.9C97.6,17.9,97.6,17.9,97.6,17.9h5.9l-2.3,2.3
		c-0.4,0.4-0.4,1.1,0,1.5c0.4,0.4,1.1,0.4,1.6,0l4.2-4.2l0,0l0,0v0l0,0c0.4-0.4,0.4-1,0-1.4l0,0l0,0l0,0l0,0l-4.2-4.2
		c-0.4-0.4-1.1-0.4-1.6,0c-0.4,0.5-0.4,1.1,0,1.6l2.3,2.3h-5.8c0,0,0,0,0,0c0,0,0,0,0,0c-0.4,0-0.6,0.3-0.6,0.7v0.9
		C96.9,17.6,97.2,17.9,97.6,17.9z"/>
</g>
</svg>
