<?xml version="1.0" encoding="utf-8"?>
<!-- Generator: Adobe Illustrator 18.1.1, SVG Export Plug-In . SVG Version: 6.00 Build 0)  -->
<svg version="1.1" id="Layer_1" xmlns="http://www.w3.org/2000/svg" xmlns:xlink="http://www.w3.org/1999/xlink" x="0px" y="0px"
	 viewBox="0 0 231.2 650.1" enable-background="new 0 0 231.2 650.1" xml:space="preserve">
<g>
	<rect x="2.3" y="24.7" fill="none" width="226.7" height="0.1"/>
	<path fill="#EEEEEE" d="M2.3,24.7H229v0.1h2.2l0-22.5c0-1.2-1-2.3-2.3-2.3H2.2C1,0,0,1,0,2.3v22.4v0.1L2.3,24.7L2.3,24.7z M218,9.5
		V9.2c0-0.2,0.1-0.3,0.3-0.2l2,1c0.2,0.1,0.2,0.2,0,0.3l-2,1c-0.2,0.1-0.3,0-0.3-0.2v-0.4c-1.3,0-2.4,1.1-2.4,2.4
		c0,1.3,1.1,2.4,2.4,2.4c1.2,0,2.3-0.9,2.4-2.1c0-0.2,0.1-0.3,0.3-0.3h0.6c0.2,0,0.3,0.1,0.3,0.3c-0.1,1.9-1.7,3.3-3.6,3.3
		c-2,0-3.6-1.6-3.6-3.6C214.4,11.2,216,9.6,218,9.5z M27.2,7.9c0-1.2,1.5-2.3,3.4-2.3h170c1.8,0,3.4,1,3.4,2.3v8.9
		c0,1.2-1.5,2.3-3.4,2.3h-170c-1.8,0-3.4-1-3.4-2.3V7.9z"/>
	<path fill="#EEEEEE" d="M229,647.8H2.3V23.1H0l0,624.7c0,1.2,1,2.3,2.3,2.3H229c1.2,0,2.3-1,2.3-2.3l0-624.7H229V647.8z"/>
	<path fill="#FFFFFF" d="M30.6,19.1h170c1.8,0,3.4-1,3.4-2.3V7.9c0-1.2-1.5-2.3-3.4-2.3h-170c-1.8,0-3.4,1-3.4,2.3v8.9
		C27.2,18.1,28.7,19.1,30.6,19.1z"/>
	<path fill="#CCCCCC" d="M218,16.7c1.9,0,3.5-1.5,3.6-3.3c0-0.2-0.1-0.3-0.3-0.3h-0.6c-0.2,0-0.3,0.1-0.3,0.3
		c-0.1,1.2-1.1,2.1-2.4,2.1c-1.3,0-2.4-1.1-2.4-2.4c0-1.3,1.1-2.4,2.4-2.4v0.4c0,0.2,0.1,0.3,0.3,0.2l2-1c0.2-0.1,0.2-0.2,0-0.3
		l-2-1c-0.2-0.1-0.3,0-0.3,0.2v0.4c-2,0-3.6,1.6-3.6,3.6C214.4,15.1,216,16.7,218,16.7z"/>
</g>
</svg>
